<?xml version="1.0" encoding="utf-8"?>
<!-- Generator: Adobe Illustrator 21.0.2, SVG Export Plug-In . SVG Version: 6.00 Build 0)  -->
<svg version="1.1" xmlns="http://www.w3.org/2000/svg" xmlns:xlink="http://www.w3.org/1999/xlink" x="0px" y="0px"
	 viewBox="0 0 1036.2 1085.5" style="enable-background:new 0 0 1036.2 1085.5;" xml:space="preserve">
<style type="text/css">
	.st0{fill:#FFFFFF;}
	.st1{fill:#BD1110;}
	.st2{fill:#9F1010;}
	.st3{fill:#FFD200;}
	.st4{fill:#797260;}
	.st5{fill:#492011;}
	.st6{fill:#005683;}
	.st7{fill:#00709C;}
	.st8{fill:#FF8800;}
	.st9{fill:#57A1BE;}
	.st10{fill:#EFE8DE;}
</style>
<g id="Layer_3">
</g>
<g id="Layer_1">
</g>
<g id="Layer_2">
	<g>
		<g>
			<g id="XMLID_10_">
				<g>
					<g>
						<path d="M467.2,882.5c3.2,2,4.8,5.5,3.7,9.2c-0.7,2.6-2.3,4.7-3,7.4c-1.3,5.2-2.1,10.5-3.8,15.6c-4,12.7-13.1,21.6-26.9,21.9
							c-6.7,0.1-13.3-2-20-1.9c-6.1,0-11.2,3.6-15.8,7.4c-5.9,4.8-11.7,9.3-18,13.6c-0.3,0.2-0.5,0.4-0.8,0.6c0.1,0.7-0.2,1.4-0.7,2
							c-8,9.1-18,16.5-27.5,24c-8.6,6.8-17.4,13.3-26.7,19.2c-9.2,5.9-18.6,11.4-28.6,15.6c-5.1,2.1-10.4,4-15.8,5.3
							c-1.5,0.4-3.1,0.8-4.8,1.2c-4.2,5.8-10,9.9-17.4,12.9c-9.6,3.9-20.3,4.3-30.3,1.6c-10.8-2.9-19.7-7.1-31-4.1
							c-10.3,2.7-19.5,8.6-28.3,14.5c-16.9,11.4-33.3,22.3-52.8,29.2c-19.2,6.8-39.9,9.7-60.1,6.9c-9.3-1.3-20-3.2-27.9-8.4
							c-9.2-6-11.6-16.1-9.4-26.4c2.2-10.2,7.9-20.1,12.4-29.4c4.9-10,10.1-19.9,15.5-29.7c21.5-39.2,45.8-76.9,65.3-117.2
							c9.5-19.6,17.5-39.6,24.5-60.2c7.1-20.8,11.3-41.9,13.9-63.8c0.3-2.7,4.1-2.8,4.3,0c0.4,7.1,0.5,14.3,0.1,21.4
							c5.7-11.6,14.5-21.2,27.9-24.5c12.7-3.2,25.9-0.4,38.1,3.5c2.2,0.7,4.5,1.5,6.7,2.2c1.3-0.4,2.7-0.7,4.2-0.6
							c1.8,0.1,3.7,1.5,3.9,3.4c8.3,3,16.5,6.3,24.6,9.7c25.7,10.8,50.9,23.6,75.1,37.4c24.6,14.1,48.4,29.6,71.9,45.6
							c11.5,7.8,22.9,15.8,34.2,23.8c5,3.5,10.4,6.9,14.9,11.2c0.1,0,0.1-0.1,0.2-0.1C461.3,880.9,464.9,881.1,467.2,882.5z
							 M450.9,896.6c-0.6-0.6-1.1-1.2-1.6-1.8c-0.8-0.8-1.5-1.5-2.3-2.2c-2.4-2.1-5.2-3.9-7.8-5.8c-5.9-4.2-11.8-8.3-17.8-12.5
							c-11.7-8.1-23.4-16.1-35.2-24c-42.4-28.2-86.1-54.3-132-76.5c-6.7-3.2-13.5-6.5-20.3-9.5c-0.1,0-0.1,0.1-0.1,0.1
							c-2.7,2.6-5.3,5.2-7.8,8c-5.1,5.6-9.7,11.5-13.8,17.8c-4.5,6.8-8.9,13.6-13,20.8c-0.2,0.3-0.3,0.6-0.5,0.9
							c0.3,0.5,0.4,1,0.2,1.7c-5.4,17.5-9.7,35.1-15.2,52.6c-9.4,29.7-16.9,62.4-14.8,93.7c0.9,14,4.9,28.2,13.8,39.2
							c3.9,4.9,8.9,8.7,13.4,13.1c1.7,1.6,2.9,3.1,4.3,4.2c0.1,0,0.3-0.1,0.4-0.1c10.5-1.6,19.7,0.4,29.6,3.6
							c8.1,2.6,15.4,3.7,23.7,1c2.4-0.8,4.9-2,7.2-3.4c0.3-2,1.9-3.8,3.8-4.3c0.7-0.2,1.4-0.3,2-0.2c0.2,0,0.5,0,0.7,0
							c1.8-1.4,3.5-3,5.1-4.5c3.1-3,8.5-1.6,10.2,1.8c4.5-1.3,8.9-2.9,13-4.5c9.8-3.8,19.1-8.7,27.9-14.3
							c9.1-5.8,17.8-12.2,26.5-18.6c3.7-2.7,7.4-5.5,11.2-8.3c-0.4-0.6-0.6-1.4-0.5-2.2c1.1-6.5,7.9-12.2,12.2-16.7
							c4.8-5.1,9.6-10,15-14.5c10-8.4,20.2-14.5,33.6-13.2c9,0.9,20.4,5.1,25-5.4C449.1,907.8,449.7,902,450.9,896.6z M221,759
							c-0.6-0.2-1.1-0.5-1.7-0.7c-11.5-4.4-24.9-8.4-37-4c-14.7,5.3-21.6,19.6-26.4,33.9c-4.4,32.6-15.9,64.5-29.5,94
							c-17.6,38.2-39.5,74.1-59.5,111c-5,9.3-9.9,18.6-14.7,28c-4.5,9-9.4,18.1-12.9,27.5c-1.1,3.1-3,7.8-1.3,11.1
							c1.4,2.7,5.5,3.7,8.2,4.6c9,2.9,18.2,4.2,27.5,4.2c18.4,0.1,36.7-4.8,53.3-12.6c17.2-8.2,31.6-20.4,48-29.8
							c2.5-1.4,5.1-2.8,7.7-4c-6-3.6-10.7-9-14.9-14.5c-21.2-28-17.7-66-12.1-98.5c3-17.5,7.2-35,13.2-51.7
							c4.2-12,10.1-22.8,17-33.2c0.3-2.1,1.3-4.2,2.1-6.3c1.4-4,2.6-8,4.1-12c2.8-7.8,5.9-15.5,10.3-22.5
							c4.2-6.8,8.9-13.3,14.2-19.3C217.9,762.6,219.4,760.8,221,759z"/>
					</g>
					<g>
						<path class="st0" d="M449.3,894.8c0.5,0.6,1.1,1.2,1.6,1.8c-1.2,5.4-1.9,11.2-3.9,16c-4.5,10.5-16,6.3-25,5.4
							c-13.5-1.3-23.7,4.8-33.6,13.2c-5.4,4.5-10.2,9.4-15,14.5c-4.3,4.5-11.1,10.3-12.2,16.7c-0.1,0.8,0,1.6,0.5,2.2
							c-3.8,2.7-7.5,5.5-11.2,8.3c-8.7,6.4-17.4,12.8-26.5,18.6c-8.8,5.6-18.1,10.5-27.9,14.3c-4.1,1.6-8.5,3.2-13,4.5
							c-1.7-3.4-7.1-4.8-10.2-1.8c-1.6,1.5-3.3,3-5.1,4.5c-0.2,0-0.5,0-0.7,0c-0.7-0.1-1.3,0-2,0.2c-1.9,0.6-3.5,2.4-3.8,4.3
							c-2.4,1.4-4.8,2.6-7.2,3.4c-8.2,2.8-15.6,1.7-23.7-1c-9.9-3.3-19.2-5.2-29.6-3.6c-0.1,0-0.3,0-0.4,0.1
							c-1.4-1.2-2.7-2.6-4.3-4.2c-4.5-4.4-9.5-8.2-13.4-13.1c-8.9-11-12.8-25.3-13.8-39.2c-2.1-31.3,5.4-64.1,14.8-93.7
							c5.6-17.5,9.8-35.1,15.2-52.6c0.2-0.7,0.1-1.3-0.2-1.7c0.2-0.3,0.3-0.6,0.5-0.9c4-7.1,8.5-13.9,13-20.8
							c4.1-6.3,8.7-12.2,13.8-17.8c2.5-2.8,5.1-5.4,7.8-8c0,0,0.1-0.1,0.1-0.1c6.8,3,13.6,6.3,20.3,9.5
							c45.9,22.2,89.6,48.3,132,76.5c11.8,7.9,23.5,15.9,35.2,24c5.9,4.1,11.9,8.3,17.8,12.5c2.6,1.9,5.4,3.7,7.8,5.8
							C447.8,893.3,448.5,894.1,449.3,894.8z M366.4,907.4c4.5-2.6,1.7-8.1-0.1-11.4c-2.6-4.8-5.8-9.2-9.2-13.4
							c-1.7-2-4.4,0.2-4,2.3C353.8,889.7,357.6,912.5,366.4,907.4z M357.2,935.4c0.2-0.8,0.3-1.8,0.2-2.6c-0.1-2.5-1.6-4.7-2.6-6.9
							c-1.4-3.1-2.5-6.3-4.7-8.7c-1.6-2.7-6.3-2.7-7.8,0.2c-2.2,4.2-0.9,9.3,0.8,13.5c0.9,2.2,1.7,4.8,3.4,6.5
							c0.9,0.9,2.3,1.8,3.5,2.1c0.4,0.1,4.1,0.3,2.7,0c1.4,0.3,2.9-0.4,3.2-1.8C355.7,938.9,357.2,935.5,357.2,935.4z M308.9,880.9
							c1.8-3.4,0.3-6-1.1-9.2c-2.6-6.1-5.3-11.9-8.5-17.6c-1.2-2.1-4.3-1.5-5,0.6c-3,9.1-1.4,17.8,2.9,26.2c1.1,2.1,3.5,3.2,5.8,3.3
							C305.7,884.3,307.7,883.1,308.9,880.9z M200.9,882.4c3.4-4.1,3.2-8.8,1.9-13.8c-0.9-3.7-1.4-9.1-5.2-10.7
							c-0.4-0.2-0.9-0.1-1.3,0.2l0,0c-1.2,0.7-1.9,1.9-2.3,3.2c0,0.1-0.1,0.1-0.1,0.2c-0.3,0.4-0.3,0.8-0.2,1.2
							c-0.4,2.2-0.4,4.7-0.6,6.5c-0.4,4.9-0.2,9.8,3.7,13.3C197.8,883.4,199.8,883.7,200.9,882.4z M200.4,1003.3
							c1.4-1.5,1-4-0.9-4.8c0-0.1-0.1-0.2-0.1-0.3c-0.3-0.7-0.6-1.4-0.9-2.1c-0.7-1.5-1.3-3-2-4.5c-1.5-3-3.1-5.9-5.3-8.4
							c-1.9-2.2-5.8-0.4-5.7,2.3c0.1,4.9,1.6,11.5,4.1,15.7C191.8,1004.7,197.3,1006.6,200.4,1003.3z"/>
					</g>
					<g>
						<path d="M366.2,896c1.8,3.3,4.6,8.8,0.1,11.4c-8.8,5.1-12.5-17.6-13.4-22.4c-0.4-2.1,2.3-4.4,4-2.3
							C360.5,886.8,363.6,891.2,366.2,896z"/>
					</g>
					<g>
						<path d="M357.5,932.8c0,0.8,0,1.8-0.2,2.6c0,0-1.5,3.5-1.2,2.2c-0.4,1.5-1.9,2.1-3.2,1.8c1.4,0.3-2.3,0.1-2.7,0
							c-1.2-0.3-2.6-1.2-3.5-2.1c-1.7-1.7-2.6-4.3-3.4-6.5c-1.7-4.2-3.1-9.2-0.8-13.5c1.5-2.9,6.2-2.8,7.8-0.2
							c2.3,2.4,3.3,5.6,4.7,8.7C355.8,928.1,357.4,930.4,357.5,932.8z"/>
					</g>
					<g>
						<path d="M307.9,871.6c1.3,3.2,2.9,5.9,1.1,9.2c-1.2,2.3-3.3,3.4-5.8,3.3c-2.3-0.1-4.7-1.2-5.8-3.3c-4.3-8.4-5.9-17.1-2.9-26.2
							c0.7-2.2,3.8-2.8,5-0.6C302.6,859.7,305.3,865.5,307.9,871.6z"/>
					</g>
					<g>
						<path class="st1" d="M219.3,758.3c0.6,0.2,1.2,0.5,1.7,0.7c-1.6,1.8-3.1,3.7-4.5,5.3c-5.2,6-10,12.5-14.2,19.3
							c-4.3,7-7.4,14.8-10.3,22.5c-1.4,4-2.7,8-4.1,12c-0.7,2.1-1.7,4.2-2.1,6.3c-6.9,10.4-12.7,21.2-17,33.2
							c-5.9,16.8-10.2,34.2-13.2,51.7c-5.6,32.5-9.1,70.5,12.1,98.5c4.1,5.5,8.9,10.9,14.9,14.5c-2.6,1.2-5.2,2.6-7.7,4
							c-16.4,9.4-30.8,21.6-48,29.8c-16.6,7.9-34.9,12.7-53.3,12.6c-9.4,0-18.6-1.4-27.5-4.2c-2.7-0.8-6.8-1.8-8.2-4.6
							c-1.7-3.2,0.2-7.9,1.3-11.1c3.4-9.4,8.4-18.6,12.9-27.5c4.7-9.4,9.6-18.8,14.7-28c20-36.9,41.9-72.8,59.5-111
							c13.6-29.5,25.1-61.4,29.5-94c4.8-14.3,11.8-28.6,26.4-33.9C194.4,749.9,207.8,753.9,219.3,758.3z"/>
					</g>
					<g>
						<path d="M202.8,868.6c1.3,5,1.5,9.7-1.9,13.8c-1.1,1.3-3.1,1-4.2,0c-3.9-3.4-4.2-8.4-3.7-13.3c0.2-1.9,0.1-4.3,0.6-6.5
							c-0.1-0.4,0-0.8,0.2-1.2c0,0,0.1-0.1,0.1-0.2c0.4-1.3,1.1-2.5,2.3-3.2l0,0c0.4-0.2,0.9-0.4,1.3-0.2
							C201.4,859.5,201.9,865,202.8,868.6z"/>
					</g>
					<g>
						<path d="M199.5,998.5c1.9,0.8,2.3,3.3,0.9,4.8c-3.1,3.3-8.6,1.3-10.7-2.1c-2.5-4.2-4-10.8-4.1-15.7c-0.1-2.8,3.8-4.5,5.7-2.3
							c2.2,2.5,3.8,5.4,5.3,8.4c0.7,1.5,1.3,3,2,4.5c0.3,0.7,0.6,1.4,0.9,2.1C199.4,998.3,199.5,998.4,199.5,998.5z"/>
					</g>
				</g>
			</g>
		</g>
		<g id="XMLID_9_">
			<g>
				<g>
					<g>
						<path class="st2" d="M1006.6,664.6c12.5,21.3,15.1,47.5,10.7,71.6c-3.9,21.3-13.6,50.5-35.8,59.3c-5.4,2.2-9.5-3.3-13.3-6.7
							c-5.5-5-10.6-10.5-15.4-16.2c-8.8-10.5-16.6-21.8-24-33.3c-16.8-25.8-32.6-52.4-48.3-78.9c-30.2-51-61.5-102.9-75.6-160.9
							c22.9,25.4,51.1,46.8,78.4,66c21.5,15.1,43.3,29.7,64.6,45C969.1,625.8,993.2,641.7,1006.6,664.6z"/>
					</g>
				</g>
				<g>
					<g>
						<path d="M1033.7,688.8c5.4,26.8,2,55.2-8.5,80.4c-5,12-12,23.8-22,32.3c-5.1,4.4-10.8,8.1-17.1,10.4
							c-8.2,2.9-15.5,0.7-22.1-4.5c-23.4-18.4-40.1-44.1-55.9-68.9c-17.6-27.5-34.1-55.7-50.7-83.9C826.5,602.3,796,548,785,487.6
							c-0.6-3.4,0.4-6.9,3-8.9c-5-7-9.6-14.3-13.6-21.9c-0.9-1.8,1.4-3.8,2.9-2.2c4.7,5,9,10.5,14,15.1c10,9.1,19.3,19,29.6,27.7
							c10.3,8.7,20.7,17.4,31.5,25.5c22,16.4,44.7,32,67.4,47.5c23,15.8,46.1,31.5,67.8,49C1010.2,637.7,1027.8,659.9,1033.7,688.8z
							 M1017.3,736.2c4.4-24,1.8-50.3-10.7-71.6c-13.5-23-37.5-38.9-58.7-54.1c-21.3-15.3-43.2-29.9-64.6-45
							c-27.3-19.2-55.5-40.6-78.4-66c14.1,57.9,45.4,109.9,75.6,160.9c15.7,26.5,31.5,53.1,48.3,78.9c7.5,11.5,15.2,22.8,24,33.3
							c4.8,5.7,9.9,11.1,15.4,16.2c3.7,3.4,7.8,8.9,13.3,6.7C1003.7,786.7,1013.4,757.6,1017.3,736.2z"/>
					</g>
				</g>
			</g>
		</g>
		<g>
			<g>
				<g>
					<path class="st0" d="M691.3,849.7c3.1,7.3,6.2,14.5,7.6,22.2c-2.6,0.3-5.2,0.7-6.9,2.8c-0.8,1-1,2-0.7,3
						c-2.5,0.5-5,1.4-7.2,1.9c-6.6,1.6-13.7,3-20.6,2.8c-4.9-0.1-9.9-1.3-14.2-3.7c-4.8-2.7-7.6-8.2-12.8-10
						c-0.6-0.2-1.2-0.3-1.9-0.2c-0.8-3.9-1-8-1.2-11.4c-0.5-8.2-0.7-16.4-0.2-24.5c0.7-12.6,3.8-34.9,18.4-39.2
						c8.6-2.6,15.3,5.4,19,12c3.9,6.9,7.1,14.2,10.5,21.4C684.6,834.4,688.1,842.1,691.3,849.7z"/>
				</g>
			</g>
			<g>
				<g>
					<path d="M708.9,874.6c0.5,2.8-0.8,4.8-3.3,5.9c-1.5,0.6-3.4,1.2-5.3,1.5c-0.4,1.2-1.3,2.5-1.8,3.1c-2.6,2.8-6.9,4.1-10.3,5.6
						c-8.3,3.4-16.9,5.7-26,5.2c-7.3-0.4-14.6-2.2-20.9-5.9c-6.1-3.6-12.9-9.5-11.7-17.1c0.1-0.4,0.2-0.8,0.4-1.2
						c-2.4-8-2.6-18-2.8-23.3c-0.7-15.5-0.5-31.8,6.4-46c5.7-11.8,17.8-20.9,30.9-14.1c6.1,3.2,10.4,8.9,13.6,14.8
						c4.2,7.6,7.9,15.5,11.5,23.3c3.8,8.1,7.5,16.3,11.1,24.6C703.9,858.6,707.3,866.4,708.9,874.6z M699,872
						c-1.4-7.8-4.5-14.9-7.6-22.2c-3.3-7.7-6.7-15.3-10.2-22.9c-3.4-7.2-6.6-14.5-10.5-21.4c-3.7-6.6-10.4-14.6-19-12
						c-14.6,4.3-17.7,26.6-18.4,39.2c-0.5,8.2-0.3,16.4,0.2,24.5c0.2,3.4,0.4,7.6,1.2,11.4c0.7-0.1,1.3,0,1.9,0.2
						c5.2,1.7,8,7.3,12.8,10c4.3,2.4,9.3,3.6,14.2,3.7c6.9,0.2,13.9-1.3,20.6-2.8c2.2-0.5,4.7-1.4,7.2-1.9c-0.3-1.1-0.1-2.1,0.7-3
						C693.8,872.7,696.4,872.3,699,872z"/>
				</g>
			</g>
		</g>
		<g id="XMLID_8_">
			<g>
				<g>
					<g>
						<path d="M813.2,898.4c0.2,16.2-3.6,33.7-17.6,43.6c-6,4.2-14.2,5.4-20.5,1.2c-0.6-0.4-1.1-0.8-1.7-1.3c-0.9,2-2,4-3.3,6
							c-1.9,2.8-6.3,1.1-5.5-2.3c1.4-5.6,2.1-10.8,1.8-16.2c-0.3-1.1-0.5-2.3-0.8-3.4c-0.2-0.9-0.1-1.7,0-2.5c-0.2-1-0.4-2-0.7-3
							c-1.9-7.4-5.8-14.3-11.3-19.6c-5.4-5.1-11.4-7.9-18.6-9.3c-8.9-1.8-18-0.9-26.9-2.9c-15.4-3.5-27.1-16-33.2-30
							c-7.3-16.9-7-35.5-6.2-53.5c0.1-1.7,0.6-3.2,1.3-4.4c-0.8-9.7-0.4-19.4,0.7-29.3c2-17.9,4.8-36.9,15.4-52.1
							c8.5-12.2,20.4-21.8,33.8-28.3c7.1-3.5,14.8-6.8,22.8-7.3c7.7-0.5,15.2,2.4,21.2,7.1c13.1,10.2,17.3,27.5,21.7,42.8
							c5.2,18,9.8,36.2,13.7,54.6C806.9,824.2,812.7,861.7,813.2,898.4z M799.4,915.2c2.3-8.5,1.9-17.5,1.4-26.2
							c-0.5-8.9-1.2-17.8-2-26.6c-3-31.1-8.5-62-15.8-92.3c-3.5-14.8-7.5-29.5-11.9-44c-3.6-11.9-9.2-28.3-23.2-31.3
							c-7.5-1.6-15.5,1.8-22.1,5c-5.5,2.6-10.9,5.7-15.8,9.4c-10.2,7.6-18.3,17.7-22.8,29.6c-5.3,14-7.7,29.8-9.2,44.7
							c-0.4,4.5-0.8,9-0.9,13.6c4.4-0.2,8.9,2.5,8.6,8.2c-0.7,17.2-1.9,36.2,7.2,51.6c3.5,5.9,8.3,11.1,14.6,14
							c8.1,3.7,17.6,2.6,26.2,3.8c25.7,3.6,45.5,28.7,43.4,53.5c2,4.3,4.9,7.7,10.3,4.7C793.8,929.1,797.5,922.1,799.4,915.2z"/>
					</g>
				</g>
				<g>
					<g>
						<path class="st0" d="M800.8,889c0.5,8.7,0.9,17.7-1.4,26.2c-1.8,6.9-5.6,13.9-12,17.5c-5.4,3-8.2-0.4-10.3-4.7
							c2.1-24.8-17.8-49.9-43.4-53.5c-8.6-1.2-18.1-0.1-26.2-3.8c-6.3-2.9-11.1-8.1-14.6-14c-9.1-15.4-7.9-34.4-7.2-51.6
							c0.2-5.7-4.2-8.4-8.6-8.2c0.2-4.5,0.5-9.1,0.9-13.6c1.4-14.9,3.8-30.7,9.2-44.7c4.5-11.9,12.7-22,22.8-29.6
							c4.9-3.7,10.2-6.8,15.8-9.4c6.6-3.1,14.7-6.5,22.1-5c14,3,19.6,19.4,23.2,31.3c4.4,14.5,8.4,29.2,11.9,44
							c7.2,30.4,12.8,61.2,15.8,92.3C799.6,871.2,800.3,880.1,800.8,889z"/>
					</g>
				</g>
			</g>
			<g>
				<g>
					<g>
						<path d="M749,823.7c-1.3,3.5-1.7,7.4-1.3,11.1c0.4,3.6,1,8.2,4.6,9.8c1.7,0.8,4.3,0.7,5.2-1.4c1.5-3.5,0.2-6.2-0.9-9.7
							c-1.1-3.3-2-6.6-3-9.9C752.9,821.3,749.8,821.5,749,823.7L749,823.7z"/>
					</g>
				</g>
			</g>
			<g>
				<g>
					<g>
						<path d="M700,834.5c-0.5,0.6-0.6,0.7-0.2,0.4c-0.7,0.2-1.2,0.5-1.7,1c-0.6,0.6-1.1,1.5-1.3,2.3c-0.6,1.8-0.2,4,0.2,5.8
							c1,3.9,3.8,6.7,8,6.7c1.9,0,3.4-1.9,2.8-3.7c-0.3-1.1-0.5-2.2-1-3.2c-0.5-1-1.1-1.9-1.5-2.9c-0.8-2.3-0.5-4.5-3-5.8
							c0.4,0.5,0.8,1,1.2,1.6c0-0.2,0-0.4,0.1-0.6C704.1,833.8,701.3,832.7,700,834.5L700,834.5z"/>
					</g>
				</g>
			</g>
		</g>
		<g>
			<g>
				<g>
					<g>
						<g>
							<g>
								<path class="st3" d="M157.8,411.5c-26.7-26.7-56.7-37.8-72.3-13.3s23.3,145.7,100.1,170.1l47.8-96.7
									C233.4,471.6,184.5,438.2,157.8,411.5z"/>
							</g>
						</g>
					</g>
				</g>
			</g>
			<g>
				<g id="XMLID_17_">
					<g>
						<g>
							<g>
								<path class="st4" d="M247.1,485.6c-7.3,15.9-8.2,33.9-15.3,49.9c-3.5,7.8-8.4,15.1-15.7,19.7c-6.9,4.3-14.8,6.9-21.1,12
									c-10.2-3.3-20.3-6.1-29.3-12.3c-9.4-6.5-17.9-14.4-26-22.5c-8.2-8.1-15.9-16.6-22.6-25.9c-5.2-7.2-9.1-14.9-13.1-22.7
									c5.2-3.1,9.3-7.6,13.5-12c5.8-6.2,11.7-12.3,17.5-18.5c5.8-6.2,11.5-12.5,17.3-18.7c3.1-3.4,6.2-6.7,9.3-10.1
									c1.6-1.7,3.2-3.1,4.2-4.9C188.7,445.8,218.6,465.8,247.1,485.6z"/>
							</g>
						</g>
						<g>
							<g>
								<path d="M249.1,481.7c0.6,2.1,1.1,4.3,1.7,6.4c-1.2-0.8-2.4-1.7-3.6-2.5C247.7,484.3,248.4,483,249.1,481.7z"/>
							</g>
						</g>
						<g>
							<g>
								<path d="M197.1,567.9c2.6,0.9,3.1,5.1,0,5.8c-1.7,0.4-3.2,0.6-4.7,0.7c-0.9-1.8-0.9-4,0.7-5.5c0.6-0.6,1.2-1.1,1.9-1.6
									C195.7,567.4,196.4,567.7,197.1,567.9z"/>
							</g>
						</g>
						<g>
							<g>
								<path d="M195,567.2c-0.6,0.5-1.3,1.1-1.9,1.6c-1.7,1.6-1.6,3.8-0.7,5.5c-4.4,0.3-8.2-0.5-12.9-2.4c-5.4-2.2-10.4-5-15.2-8.2
									c-10.3-6.9-19.6-15.2-28.5-23.9c-8.8-8.7-17.1-18-24.1-28.3c-5.3-7.9-10.6-16.9-13.3-26.3c0.5,0.5,1.2,0.7,1.9,0.4
									c1.3-0.5,2.5-1.2,3.7-1.9c4,7.8,7.9,15.5,13.1,22.7c6.7,9.4,14.4,17.9,22.6,25.9c8.1,8,16.6,16,26,22.5
									C174.7,561.1,184.8,563.9,195,567.2z"/>
							</g>
						</g>
						<g>
							<g>
								<path d="M163.8,413.9c1.4-0.2,3.1,0.6,3,2.3c-0.1,1.4-0.4,2.5-1,3.4c-0.9-1-1.8-2.1-2.7-3.1c-0.6-0.7-0.6-1.7-0.2-2.4
									C163.2,414,163.5,413.9,163.8,413.9z"/>
							</g>
						</g>
						<g>
							<g>
								<path d="M163.1,416.5c0.9,1,1.8,2.1,2.7,3.1c-1,1.8-2.6,3.2-4.2,4.9c-3.1,3.4-6.2,6.7-9.3,10.1
									c-5.8,6.2-11.5,12.5-17.3,18.7c-5.8,6.2-11.7,12.3-17.5,18.5c-4.2,4.4-8.3,8.9-13.5,12c-0.8-1.5-1.6-3.1-2.4-4.6
									c10.4-9.7,19.4-21,29.1-31.6c5.5-6,11-12,16.6-18.1c2.9-3.1,5.8-6.3,8.6-9.4c2.2-2.4,3.9-5.2,7.1-6
									C162.5,414.8,162.5,415.8,163.1,416.5z"/>
							</g>
						</g>
						<g>
							<g>
								<path d="M165.5,413.4c14.8,10.8,28.4,23.1,42.9,34.4c15,11.6,30.6,22.8,47.1,32.3c2.4,1.4,2.7,4.1,1.7,6.4
									c-8,18.1-9.1,38.4-17.8,56.2c-3.9,8-9.5,15.2-16.9,20.2c-7.5,5.1-16.1,8.2-23.5,13.5c-2.6,1.8-5.3,0.3-6.5-2
									c1.5-0.1,3-0.3,4.7-0.7c3.1-0.7,2.6-4.9,0-5.8c-0.7-0.2-1.4-0.5-2.1-0.7c6.3-5.1,14.3-7.7,21.1-12
									c7.3-4.6,12.3-11.9,15.7-19.7c7.1-16,7.9-34,15.3-49.9c1.2,0.9,2.4,1.7,3.6,2.5c-0.6-2.1-1.1-4.3-1.7-6.4
									c-0.7,1.3-1.4,2.6-1.9,3.9c-28.5-19.8-58.4-39.8-81.3-66c0.5-1,0.9-2.1,1-3.4c0.1-1.7-1.6-2.5-3-2.3c-0.3,0-0.6,0.1-0.8,0.2
									C163.4,413.2,164.4,412.6,165.5,413.4z"/>
							</g>
						</g>
						<g>
							<g>
								<path d="M101.6,479.2c0.8,1.6,1.6,3.1,2.4,4.6c-1.2,0.7-2.4,1.3-3.7,1.9c-0.7,0.3-1.4,0.1-1.9-0.4c-0.2-0.8-0.4-1.5-0.6-2.3
									c0.1-0.3,0.2-0.5,0.5-0.7C99.4,481.2,100.5,480.2,101.6,479.2z"/>
							</g>
						</g>
						<g>
							<g>
								<path d="M100.4,476.9c0.4,0.8,0.8,1.5,1.2,2.3c-1.1,1-2.2,2-3.3,3c-0.2,0.2-0.4,0.5-0.5,0.7c-0.4-1.5-0.7-3.1-0.9-4.6
									C96.7,476.3,99.3,474.8,100.4,476.9z"/>
							</g>
						</g>
						<g>
							<g>
								<path d="M97.8,482.9c0.2,0.8,0.4,1.6,0.6,2.3C97.8,484.7,97.5,483.7,97.8,482.9z"/>
							</g>
						</g>
					</g>
				</g>
			</g>
			<g>
				<g>
					<g>
						<g>
							<g>
								<path d="M190.8,580.5l-8.2-2.6c-23-7.3-44.1-22.7-62.8-45.7c-15.1-18.5-28.2-42.1-36.9-66.2c-4.4-12.3-18-53.8-5.8-73.1
									c6.7-10.5,16.2-16.7,27.6-18c17.8-2,39.2,8.6,60.2,29.6c25.7,25.7,73.7,58.5,74.2,58.8l7.2,4.9L190.8,580.5z M109,394.6
									c-0.7,0-1.4,0-2.1,0.1c-5.2,0.6-9.4,3.5-12.9,8.8c-3.3,5.2-3.1,25.8,7.7,55.5c13.3,36.8,40.8,80.2,79,96.7l40-80.9
									c-14.7-10.4-48.7-35.1-69.9-56.3C135.5,403.4,120.2,394.6,109,394.6z"/>
							</g>
						</g>
					</g>
				</g>
			</g>
			<g>
				<g id="XMLID_16_">
					<g>
						<g>
							<path d="M171,420.5c3.2-1,6.1,2.2,5.3,5.3c-0.2,0.7-0.2,1.7-0.2,2.7c-2.3,2.5-6.3,3.4-10,0.2c-0.5-0.4-0.9-0.8-1.4-1.2
								C165.8,424.3,167.7,421.5,171,420.5z"/>
						</g>
						<g>
							<path d="M176.3,425.8c0.8-3.1-2.1-6.3-5.3-5.3c-3.4,1-5.2,3.8-6.3,6.9c-2.8-2.6-5.2-5.7-7.7-8.7c1.2-2.3,2.4-4.6,3.3-7.1
								c0.3-0.9,0.4-1.7,0.4-2.4c0.9,0.5,1.7,0.9,2.5,1.3c4,2,8.1,4,11.6,6.7c4.5,3.4,3.9,8.4,1.2,11.2
								C176.2,427.5,176.2,426.5,176.3,425.8z"/>
						</g>
						<g>
							<path d="M176.2,428.5c0,1.1,0,2.2-0.2,3.2c-0.5,2.4-1.2,4.7-2,7c-1.5,4.4-3.3,8.7-5.3,12.8c-4.1,8.2-9.5,15.9-15.7,22.6
								c-6.4,7-13.8,13-21.9,17.9c-5.1,3-10.1,4.9-15.4,6.1c0.4-1.4,0.1-3.1-1.2-4.7c-0.7-0.9-1.4-1.9-2.1-2.8
								c5.1-3,10.2-6.2,14.9-9.4c7.2-4.9,13.7-10.8,19.3-17.5c5.7-6.8,10.4-14.6,13.8-22.7c1.7-4.1,2.8-8.2,4-12.4
								c0.1-0.4,0.2-0.7,0.3-1.1c0.5,0.4,0.9,0.8,1.4,1.2C169.8,431.8,173.8,430.9,176.2,428.5z"/>
						</g>
						<g>
							<path class="st4" d="M164.8,427.4c-0.1,0.4-0.2,0.7-0.3,1.1c-1.2,4.2-2.3,8.4-4,12.4c-3.4,8.2-8.1,16-13.8,22.7
								c-5.6,6.7-12.1,12.6-19.3,17.5c-4.7,3.2-9.8,6.5-14.9,9.4c-4.9-7-8-14.8-12.1-22.2c11.5-0.1,23.3-12.2,30.7-18.9
								c9.8-8.8,19.7-18.9,26.1-30.7C159.5,421.7,162,424.8,164.8,427.4z"/>
						</g>
						<g>
							<path d="M160.8,409.2c0.1,0.8,0,1.6-0.4,2.4c-0.9,2.4-2.1,4.8-3.3,7.1c-2.2-2.8-5.6-6.4-6.3-9.9c-0.2-1.2,0.5-2.2,1.7-2.3
								C155.3,406.5,158.2,407.9,160.8,409.2z"/>
						</g>
						<g>
							<path d="M149.2,406.9c2.9-5.2,11.2-2.7,11.6,2.3c-2.6-1.4-5.5-2.7-8.3-2.7c-1.2,0-1.9,1.1-1.7,2.3c0.7,3.5,4.1,7.2,6.3,9.9
								c-6.4,11.8-16.3,21.9-26.1,30.7c-7.5,6.7-19.3,18.8-30.7,18.9c-0.3-0.6-0.7-1.2-1-1.7c-1.3-2.1-4.2-1.5-5,0.6
								c-0.7-0.3-1.4-0.6-2.1-1.1c-2.8-1.6-1.3-5.3,1.5-5.6c7.3-0.8,12.2-4.8,17.5-9.6c4.8-4.3,9.6-8.6,14.2-13.1
								C135,428.5,142.6,418.7,149.2,406.9z"/>
						</g>
						<g>
							<path d="M114.4,493.4c1.3,1.6,1.6,3.3,1.2,4.7c-2.9,0.7-5.9,1.2-9.1,1.5c0,0-0.1-0.1-0.1-0.1c-1-1.3-1.9-2.6-2.9-4
								c0.2-0.3,0.5-0.5,0.8-0.7c2.6-1.3,5.3-2.7,7.9-4.2C113,491.5,113.7,492.4,114.4,493.4z"/>
						</g>
						<g>
							<path d="M115.6,498.1c-0.9,3.6-5.9,5.5-9.1,1.5C109.7,499.2,112.7,498.8,115.6,498.1z"/>
						</g>
						<g>
							<path d="M100.2,468.3c4.2,7.4,7.2,15.2,12.1,22.2c-2.6,1.5-5.3,3-7.9,4.2c-0.3,0.2-0.6,0.4-0.8,0.7
								c-5.4-8.1-10-17.8-9.5-27.5c0-0.3,0.1-0.6,0.2-0.8C96.2,468,98.2,468.3,100.2,468.3z"/>
						</g>
						<g>
							<path d="M106.6,499.6c-0.3,0-0.5,0.1-0.8,0.1c-2.2,0.2-3.3-2.7-2.1-4.3c0.9,1.4,1.9,2.8,2.9,4
								C106.5,499.5,106.5,499.6,106.6,499.6z"/>
						</g>
						<g>
							<path d="M100.2,468.3c-2,0-4-0.4-6-1.2c0.7-2.1,3.7-2.7,5-0.6C99.6,467.2,99.9,467.8,100.2,468.3z"/>
						</g>
					</g>
				</g>
			</g>
			<g>
				<g>
					<g>
						<path d="M117.9,429c1,3.3,2.5,6.1,4.8,8.7c1,1.2,2.1,2.3,3.3,3.3c1.9,1.6,2.9,1.1,5.1,1.4c2.2,0.3,3.1-2.4,2.3-4
							c-0.3-0.7-0.2-1.4-0.6-2.1c-0.3-0.6-0.8-0.9-1.3-1.3c-1.1-0.9-2.2-1.9-3.1-2.9c-1.8-1.9-3.7-3.9-5.4-5.9
							C121,423.8,117.1,426.2,117.9,429L117.9,429z"/>
					</g>
				</g>
			</g>
			<g>
				<g>
					<g>
						<path d="M155.8,470.2c-0.1-0.5-0.2-0.9-0.2-1.4c-0.6-3.3-5.9-1.9-5.1,1.4c0.5,2.1,2,4.1,3.1,5.9c1.3,2,3.2,4.4,5.3,5.6
							c3.8,2.2,8.6-2.3,6.1-6.1c-1.3-2.1-3.6-3.9-5.6-5.2c-1.8-1.2-3.7-2.6-5.7-3.3c-0.2,1.7-0.5,3.4-0.7,5.1c0.4,0,0.8,0,1.3,0
							C155.4,472.2,156,471.2,155.8,470.2L155.8,470.2z"/>
					</g>
				</g>
			</g>
		</g>
		<g>
			<g>
				<g>
					<g>
						<g>
							<path class="st5" d="M284.4,294.4c-4.3,5.9-8.3,12.1-12.1,18.4c-3.5-8-9.5-14.4-16.3-17.9c7.4-5.2,20.8-8.9,27.2-1.7
								C283.6,293.7,284,294.1,284.4,294.4z"/>
						</g>
					</g>
				</g>
			</g>
			<g>
				<g>
					<g>
						<g>
							<path class="st5" d="M237.1,307.6c9.3-8.2,25.2-0.2,30.5,13.3c-7.3,12.8-14.4,26-22.8,38.2c-12.6,18.3-40.3,17.1-42.8-14.3
								c-2.1-26.4,21.2-35.7,38.2-20.5c2.1,1.8,4.7-1.5,2.7-3.7c-3.1-3.5-6.5-6.1-10.1-8.1C234.2,310.9,235.5,309,237.1,307.6z"/>
						</g>
					</g>
				</g>
			</g>
			<g>
				<g>
					<g>
						<g>
							<path d="M272.3,312.8c3.8-6.3,7.8-12.5,12.1-18.4c-0.4-0.3-0.9-0.7-1.3-1.2c-6.4-7.3-19.8-3.5-27.2,1.7
								C262.8,298.4,268.8,304.9,272.3,312.8z M240.2,324.3c-17-15.2-40.3-5.9-38.2,20.5c2.5,31.4,30.2,32.7,42.8,14.3
								c8.4-12.2,15.5-25.4,22.8-38.2c-5.3-13.5-21.2-21.5-30.5-13.3c-1.6,1.4-2.9,3.3-4.3,4.9c3.5,2,7,4.7,10.1,8.1
								C244.9,322.8,242.3,326.2,240.2,324.3z M388.9,262.6c-22.6-7.9-48,0.2-63.5,9.8c-19.1,11.9-32.9,29.6-45,48.8
								c-8.1,13-16,34-27.4,48.4c23.7-9.3,40.3-34.8,57.4-57C330,287.4,355.2,269.9,388.9,262.6z M292.6,284.3
								c25.1-28,76.8-56.8,123.4-21.8c8.1,6.1,0.9,15.1-7.1,11.7c-0.5,0.2-1.1,0.3-1.7,0.4c-27.1,3.4-50,12.2-68.1,27.8
								c-15.9,13.8-27,32.6-40.4,48.9c-16,19.6-39,37.7-63.4,32.2c-4.4,1.5-9.2,1.7-14.4,0.2c-22-6.1-34.2-37.1-24.3-59.3
								c5.3-12,15.2-16.9,25.3-15.6c0.9-5,5.2-9.3,8.3-12.3c4.2-4,9.2-4.7,14.8-4.6c0.8,0,1.7,0.1,2.5,0.2
								c7.2-14.6,31.1-20.1,44.7-8.2C292.4,284.1,292.5,284.2,292.6,284.3z"/>
						</g>
					</g>
				</g>
			</g>
			<g>
				<g>
					<g>
						<g>
							<path class="st5" d="M325.4,272.4c15.5-9.6,40.9-17.7,63.5-9.8c-33.7,7.3-58.9,24.8-78.3,50c-17.1,22.3-33.7,47.7-57.4,57
								c11.3-14.4,19.2-35.4,27.4-48.4C292.5,301.9,306.3,284.3,325.4,272.4z"/>
						</g>
					</g>
				</g>
			</g>
		</g>
		<g>
			<g>
				<g>
					<g>
						<g>
							<path d="M411.2,832.4c2.6,0,5.2,0.5,7.6,1.5c6.9,2.9,11.7,9.4,12.3,16.9c1.3,16.7,5.1,16.7,13.2,16.7
								c13.9,0,23.8-5.7,31.1-17.9c3.9-6.4,11.1-10.2,18.6-9.6c4,0.3,8.2,0.4,12.4,0.4c19.4,0,49.9-3.2,85-18.2
								c9.8-4.2,21.1,0,25.8,9.6c0.4,0.8,0.7,1.5,1,2.3c3.2-8,5.9-16.1,8.1-24.2c1.2-4.6,4-8.7,8-11.4
								c94.7-65.2,90.2-281.8,56.1-378c-7.2-20.3-16.2-39.3-26.9-56.3c-4.7-7.5-3.9-17.2,2-23.9c5.9-6.6,15.4-8.6,23.5-4.8
								c15.9,7.5,30.7,11.4,44,11.4c6.2,0,12.2-0.9,17.8-2.5c25.1-7.5,40.1-21.1,47.8-31.5c-4,0-8.8-0.1-14.5-0.1
								c-9.7,0-20.8,0.1-32.5,0.1c-13.4,0.1-27.7,0.1-42,0.1c-25.5,0-62.1-0.2-86.3-1.9c-3.9-0.3-7.6-1.7-10.7-4.1
								c-30.8-23.7-66.7-36.3-106.8-37.5c-3-0.1-5.9-0.1-8.8-0.1c-83.5,0-156.6,37-195.7,98.9c-0.8,1.3-1.7,2.4-2.8,3.5
								c-5,5.1-11.5,10.4-18.5,15.7c5.5,3,9.5,8.6,10.2,15.2c1.1,9.5,7.2,13.1,7.8,13.5c9,5,12.7,16,8.6,25.4
								c-4,9.3-14.3,14-24,11.2c0,0,0,0,0,0c-6.9,5.8-16.7,6.2-24,1.2c-4.1,1.1-12.2,5.6-17.5,12.2c-3,3.8-3.8,6.7-3.7,7.7
								c0.2,1.2,0.6,1.9,0.8,2.2c6.2,6.7,7,16.8,2,24.4c-22.9,35-35,75.7-35,117.7c0,23.2,3.7,46.1,11.1,68.2
								c3.1,9.1-0.8,19.2-9.3,23.8c-8.4,4.7-19,2.6-25.1-4.8c-3.4-4.1-5.2-5.7-5.9-6.2c-6.4-5-13.1-7.6-19.3-7.6
								c-5.5,0-10.2,2.1-13.4,6.1c-4.2,5.1-5.4,12.8-3.6,21.6c5.9,28.4,60.6,87.4,94.6,95.6c1.6,0.4,2.9,0.6,3.8,0.7
								c0.4-4.2-0.7-12.2-3.1-17.6c-1.3-3.1-3.2-7-5.3-11.4c-4.3-8.9-1.5-19.7,6.7-25.2c8.2-5.6,19.2-4.3,25.9,2.9
								c37.8,40.9,88.8,65.3,144,68.9C408,832.6,409.6,832.4,411.2,832.4z M241.5,914.8c-6.4,0-15,1.8-15.5,17.7
								c-0.2,5.3,4,15.5,16.4,28.3c24.7,25.5,75.6,53.1,129,53.1c11.3,0,22.4-1.3,32.8-3.7c83.8-19.8,162.4-80.3,201.6-150.3l-1.8,1
								c-45.1,78.2-138.5,136.5-219.6,136.5l0,0c-43.3,0-77.5-17.5-96.4-49.3C274.3,925,254.8,914.8,241.5,914.8z M371.4,1053.8
								c-65.3,0-126.3-32.8-157.7-65.2c-18.7-19.3-28.2-39.1-27.7-57.4c1.1-33.7,23.4-56.3,55.5-56.3c30.5,0,61.5,20.2,80.9,52.7
								c14.6,24.6,41.8,29.7,62,29.7l0,0c48,0,113.2-29.2,158.4-79.8c-14.1,2.1-26.4,2.9-36.4,2.9c-1.3,0-2.6,0-3.9,0
								c-14.5,17.6-34.7,27.1-58.2,27.1c-15.5,0-40.5-5.1-49.8-35.4c-42.9-4.3-83.4-19.3-118.4-43.4c-1.1,3.6-2.7,7.2-4.8,10.5
								c-6.9,10.5-18.2,16.3-32,16.3c-4.4,0-9.3-0.6-14.3-1.8c-51.3-12.3-115.6-83.9-124.4-126.4c-4.3-20.8-0.1-40.4,11.7-55
								c10.7-13.2,26.9-20.8,44.4-20.8c3.6,0,7.3,0.3,10.9,0.9c-1.5-11.4-2.3-22.8-2.3-34.3c0-45.6,14.5-89.1,34.8-129.6
								c9.7-19.4,27.1-44.9,28.9-46.7c-15.7-5.2-35.8-23.4-36.9-33.3c-1.5-13.7,7.5-25.9,21.5-29c8.3-1.9,40.4-6.6,56.8-22.1
								c48.3-74.9,138.3-118.1,239-115c46.5,1.4,86.3,2.7,122.8,29.2c22.8,1.3,54.8,1.5,77.6,1.5c14.2,0,28.4-0.1,41.8-0.1
								c11.8,0,22.9-0.1,32.7-0.1c30.3,0,37.8,0.6,42.4,1.7c11,2.8,18.3,12.5,18.6,24.9c0.5,23.4-25.4,66-82.8,83.2
								c-9.3,2.8-19.2,4.2-29.3,4.2c-4.3,0-8.7-0.3-13.2-0.8c2.9,6.9,5.7,13.9,8.2,21.1c36.6,103.5,45.4,335.4-65.1,419.8
								c-30.2,102-133.9,194.6-249.6,222C399.9,1052.1,385.8,1053.8,371.4,1053.8z"/>
						</g>
					</g>
				</g>
			</g>
		</g>
		<g>
			<g>
				<g>
					<g>
						<g>
							<path d="M410.2,859.6c-0.1,0-0.2,0-0.3,0C280.2,854,178.6,747.8,178.6,617.9c0-76.8,35.3-147.4,96.8-193.6
								c2.9-2.2,7.1-1.6,9.3,1.3c2.2,2.9,1.6,7.1-1.3,9.3c-58.1,43.7-91.5,110.4-91.5,183c0,122.8,96,223.1,218.6,228.4
								c3.7,0.2,6.5,3.3,6.3,6.9C416.7,856.9,413.8,859.6,410.2,859.6z"/>
						</g>
					</g>
				</g>
			</g>
		</g>
		<g>
			<g>
				<g>
					<g>
						<g>
							<path class="st6" d="M410.2,853c-125.1-5.4-224.9-108.6-224.9-235.1c0-77,37-145.3,94.1-188.3c40.6,21,72.4-17.6,97.6-36
								c72.1,18.4,188.2,7.7,267,149.8c11.9,21.6,12,48.4,12,74.4c0,23.4-3.4,45.9-9.7,67.2c-57.8-21.4-126.6,5.4-146.7,57.5
								C460.9,811.4,410.2,853,410.2,853z"/>
						</g>
					</g>
				</g>
			</g>
		</g>
		<g>
			<g>
				<g>
					<g>
						<g>
							<path class="st7" d="M523.5,601.6c0-99.6-79.9-180.4-179.1-182c-18.5,13.3-39.7,22.6-64.1,10.5c-1,0.4-1.9,0.7-2.9,1
								c-56,43-92.2,110.7-92.2,186.8c0,41.7,10.9,80.9,30,114.9c32.7,31.5,77.2,50.9,126.2,50.9C442,783.7,523.5,702.1,523.5,601.6
								z"/>
						</g>
					</g>
				</g>
			</g>
		</g>
		<g>
			<g>
				<g>
					<g>
						<g>
							<path class="st0" d="M331.2,444.7c-117.1,9.6-193.1,186.1-89.6,278.4c105,93.5,234.6-27.3,230.1-139.5
								C468.3,496.6,396.3,441.5,331.2,444.7 M223.7,525.7c35.6-54.8,103.7-99.4,178.5-44.7c-0.5,0-47.9,2.1-13.5,53.2
								c18.6,27.5,19.8,49.7,5.1,94.6c-5.3,22.2-6.9,28.9-11.7,51.7c-22.7-54.4-41.3-100.7-56-159.8c12.9-1.9,27.5-4,20-12.3
								c-1-1-68.9,5.7-69.5,5.8c-5.2,0.9-6.1,7-6.2,7.1c-0.5,4.8,0.4,4.8,15,3.9c3.9,20.9,5.7,30.4,15.3,60.9
								c-6.9,28.8-14.1,58.6-15.1,104.6c-31-61.6-43.3-104.4-45.7-157.8c4.4-2.7,10.2-1.6,14.1-5.6c2.7-2.7,3.9-8.8,0.6-9.5
								C243.1,515.2,234.2,523.5,223.7,525.7 M386.3,717.8c12.5-53.9,33.3-105.5,45.6-159.6c2.4-10.5,4.4-26.7,0.7-44.9
								C469.1,570.3,464.9,658.8,386.3,717.8 M279.5,733.7c-78.9-35.9-93.4-120.9-66.9-186.3C213.6,612.2,231.7,662.7,279.5,733.7
								 M325.8,741.3c-10.1,0.6-18.3,0.1-28.3-2c-3-30.1-5-67.8,10.2-133.4c27.6,71.4,58,123.8,58.2,124.1
								C360.7,732.5,345,740,325.8,741.3"/>
						</g>
					</g>
				</g>
			</g>
		</g>
		<g>
			<g>
				<g>
					<g>
						<g>
							<path class="st8" d="M268.1,412.1c-57.7,16.3-63.6-10.4-50.3-13.3c13.3-3,48.8-23.7,66.6-41.4L268.1,412.1z"/>
						</g>
					</g>
				</g>
			</g>
		</g>
		<g>
			<g>
				<g>
					<g>
						<g>
							<path class="st8" d="M645.6,814.7c-25.2,96.2-124.3,188-236.8,214.6c-96.8,22.9-204.3-51.8-202.8-97.7
								c1.7-51.7,66.6-48.9,99.2,5.9c49.9,83.9,220.6,25.1,284.2-91.8L645.6,814.7z"/>
						</g>
					</g>
				</g>
			</g>
		</g>
		<g>
			<path class="st4" d="M589.4,845.8C540.6,935.4,429,990.8,357,974.1c0.4,9.1-1.3,18.8-2.8,26.2c-1.9,9.6-4.9,21.5-10.3,31.2
				c21.3,3.2,43.3,2.9,64.9-2.2c112.5-26.7,211.6-118.4,236.8-214.6L589.4,845.8z"/>
		</g>
		<g>
			<g>
				<g>
					<g>
						<g>
							<path class="st9" d="M279.4,429.6c-0.6,0.5-1.3,1-1.9,1.5c1-0.4,1.9-0.7,2.9-1C280,429.9,279.7,429.8,279.4,429.6z"/>
						</g>
					</g>
				</g>
			</g>
		</g>
		<g>
			<g>
				<g>
					<g>
						<g>
							<path class="st9" d="M344.4,419.6c-1,0-2-0.1-3-0.1c-21.4,0-42,3.7-61.1,10.5C304.7,442.2,325.9,432.9,344.4,419.6z"/>
						</g>
					</g>
				</g>
			</g>
		</g>
		<g>
			<g>
				<g>
					<g>
						<path class="st3" d="M490.2,859.5c36.1,3.2,95.4-3.5,155.4-44.8c108.3-74.5,97.7-304.9,63.7-401.1
							c-34.1-96.2-105.1-161.3-202.8-164.3c-97.7-2.9-179.1,40-222,108.1c-28.9,45.9-7.4,71,5.9,76.9c13.3,5.9,69.6-16.3,85.9-45.9
							c38.5,23.7,81.4,13.3,118.4,1.5l71.1,20.7c-56.3-22.2-127.3-8.9-164.3,23.7c-37,32.6-11.8,56.3,16.3,59.2
							c28.1,3,82.9-22.2,125.8-13.3c42.9,8.9,56.1,24.6,102,66.1c0,0,25.1,100.7,0,139.3c-43.6-25.2-122.5,3.3-146,57L490.2,859.5z"
							/>
					</g>
				</g>
			</g>
		</g>
		<g id="XMLID_14_">
			<g>
				<g>
					<g>
						<path class="st4" d="M685.9,741.3c3.8,9.8,7,19.5,3.3,29.8c-1.5,4.2-3.6,9.6-6.6,12.9c-2.6,2.9-6.8,4-9.6,6.7
							c-3.3,3.2-5.5,6.4-9.6,8.8c-3.8,2.2-7.6,4.3-11.1,7c-3.9,3.1-7.4,6.6-11.6,9.2c-3.9,2.4-8.3,4.2-12.6,6.1
							c-7.9,3.6-16.3,6.8-23.7,11.4c-3.7,2.3-7.2,5-11.1,6.8c-4.5,2.1-9.5,3.6-14.2,5.3c-19,6.8-38.4,13-58.8,12.3
							c-6.1-0.2-12.3-0.5-18.4-0.8c-2.6-0.1-7.4,0.6-9.7-0.5c-0.7-0.3-0.9,0.1-1.2-0.5c-0.7-1.3-0.3-4.5-0.3-5.8
							c-0.1-12.5,3-24.7,5.2-36.9c2.1-11.9,3.8-23.8,4.9-35.8c1-10.5,2.2-21.4,1.4-31.9c1.6,1.2,4.4,0.5,4.6-2.1
							c0.8-9.9,9.3-17.5,15.6-24.3c6.7-7.2,13.6-14.4,21.5-20.2c16.2-12,37.5-16.7,57.4-17.5c19.2-0.8,38.4,3.5,53.8,15.5
							C669.5,707.8,679.4,724.5,685.9,741.3z"/>
					</g>
				</g>
				<g>
					<g>
						<path d="M696.9,748.8c3.1,10.5,2.2,20.2-2.4,30c-2.2,4.7-4.5,9.7-8.8,12.8c-1.5,1.1-3.2,1.9-4.7,2.9c-2.4,1.5-3.6,3.2-5.4,5.3
							c-3.2,3.6-7.3,6-11.5,8.3c-4.4,2.5-8.1,5.6-12,8.9c-8,6.7-17.4,10.6-26.8,14.9c-4.7,2.2-9.6,4.2-14.1,6.8
							c-4.2,2.5-8.1,5.5-12.4,7.8c-9.4,5.1-20.7,8.1-30.8,11.3c-10.3,3.3-20.9,6.1-31.7,7.4c-12,1.5-24.3,0.4-36.4-0.3
							c-4.3-0.2-10.3,0.4-13.9-2.4c-3.2-2.5-3.2-6.9-3.3-10.6c-0.4-12.5,2.5-24.8,4.8-37c2.4-12.4,4.1-25,5.2-37.6
							c1.1-12.6,0.6-25.4,2.5-37.9c0.4-2.8,4.9-3.1,6.1-0.8c1.2-9.2,7.4-16.7,13.7-23.5c8.3-9,16.8-17.9,26.8-24.9
							c19.7-13.8,47.3-18.7,71-17.2c20.7,1.3,39.7,9,54.4,23.7C681.3,710.8,691.4,729.8,696.9,748.8z M689.3,771.1
							c3.6-10.3,0.5-20-3.3-29.8c-6.6-16.8-16.4-33.5-30.8-44.6c-15.4-11.9-34.6-16.2-53.8-15.5c-19.8,0.8-41.2,5.6-57.4,17.5
							c-7.9,5.9-14.8,13-21.5,20.2c-6.4,6.8-14.8,14.5-15.6,24.3c-0.2,2.7-3,3.4-4.6,2.1c0.7,10.6-0.4,21.4-1.4,31.9
							c-1.1,12-2.8,24-4.9,35.8c-2.2,12.2-5.3,24.4-5.2,36.9c0,1.4-0.4,4.6,0.3,5.8c0.4,0.6,0.5,0.2,1.2,0.5
							c2.3,1.1,7.1,0.4,9.7,0.5c6.1,0.3,12.3,0.6,18.4,0.8c20.4,0.7,39.8-5.5,58.8-12.3c4.7-1.7,9.7-3.1,14.2-5.3
							c3.9-1.9,7.4-4.5,11.1-6.8c7.4-4.6,15.8-7.8,23.7-11.4c4.2-1.9,8.6-3.7,12.6-6.1c4.2-2.6,7.8-6.1,11.6-9.2
							c3.5-2.8,7.3-4.8,11.1-7c4.1-2.4,6.3-5.7,9.6-8.8c2.8-2.7,7-3.8,9.6-6.7C685.6,780.7,687.8,775.3,689.3,771.1z"/>
					</g>
				</g>
			</g>
			<g>
				<g>
					<g>
						<path d="M604,678.7c4.9,10.1,11.7,19.5,17.2,29.3c5.8,10.2,11.3,20.7,15.9,31.5c4.5,10.6,8.1,21.5,10.7,32.7
							c1.3,5.5,2.3,11.1,2.8,16.8c0.6,5.8-0.2,12.3,1.5,17.8c1.4,4.6,8.5,5,9.7,0c1.4-5.6-0.1-11.8-1-17.4c-1-6-2.3-12-3.8-17.9
							c-3-11.6-7.3-22.9-12.2-33.9c-4.9-10.9-10.7-21.4-16.9-31.5c-6.3-10.2-12.7-21.1-20.8-29.9C605.5,674.5,603,676.7,604,678.7
							L604,678.7z"/>
					</g>
				</g>
			</g>
			<g id="XMLID_15_">
				<g>
					<g>
						<path d="M594,834.2c0.9,7.6,1.1,12.7-6.4,16.5c-7.1,3.6-15.1,6-23.1,6c-2.5,0-5.4-1.9-5.9-4.4c-8.3-47-19.4-93-38.8-136.8
							c-0.1-0.2-0.1-0.3-0.2-0.5c0-0.1,0-0.1-0.1-0.2c-0.5-1.2-0.3-2.3,0.3-3.1c0.2-0.4,0.4-0.7,0.8-1c5-5.2,10.3-10.1,15.8-14.8
							c2.3-2,5.4-1.6,7.1,0.9c18.3,27,31.9,57.6,40.8,89C588.8,801.7,592,817.9,594,834.2z M585,840.8c0.9-1.8-0.8-8-1.1-10.1
							c-0.5-3.6-1-7.2-1.6-10.8c-2.4-13.8-5.6-27.4-9.8-40.8c-8.1-25.9-19.7-50.2-33.9-73.3c-3.9,3.3-7.5,6.7-11.1,10.4
							c24.2,38.3,34,84.3,42.1,128.4c2.2,0,4.5-0.2,6.7-0.6C578.1,843.6,584.3,842.2,585,840.8z"/>
					</g>
					<g>
						<path class="st10" d="M583.9,830.7c0.3,2.1,2,8.3,1.1,10.1c-0.7,1.4-6.9,2.8-8.8,3.2c-2.2,0.4-4.5,0.6-6.7,0.6
							c-8.1-44.1-17.9-90.1-42.1-128.4c3.5-3.7,7.2-7.1,11.1-10.4c14.2,23.1,25.8,47.4,33.9,73.3c4.2,13.4,7.4,27,9.8,40.8
							C582.9,823.5,583.4,827.1,583.9,830.7z"/>
					</g>
				</g>
			</g>
			<g>
				<g>
					<path d="M636.2,793.1c-0.3,0.6-0.4,1-0.5,1.6c0,0.7,0.2,1.4,0.5,1.9c0.6,1.2,1.6,1.8,2.8,2.2c0.7,0.2,1.8,0.1,2.4-0.3
						c0.7-0.4,1.2-1,1.4-1.8c0.1-0.4,0.2-0.9,0.2-1.4c-0.3,0.7-0.6,1.5-0.9,2.2c1.5-1.3,1.9-3.7,0.9-5.4c-0.5-0.9-1.5-1.7-2.6-2
						c-1-0.3-2.4-0.2-3.3,0.4c-0.9,0.6-1.7,1.5-2,2.6c-0.3,1.1-0.2,2.3,0.4,3.3c1.1,1.7,3.2,2.6,5.2,1.9c-1.3-0.7-2.6-1.5-3.8-2.2
						c0,0,0,0.1,0,0.1c0-0.3-0.1-0.6-0.1-0.8c0,0.1,0,0.3,0,0.4c1.3-1,2.6-2,3.9-3c-0.2,0-0.4-0.1-0.5-0.1c-0.1,0-0.2-0.1-0.3-0.1
						c0.1,0,0.7,0.4,0.3,0.1c-0.1-0.1-0.4-0.3,0,0c0.5,0.4-0.4-0.3-0.4-0.3c-0.1-0.1-0.3-0.1-0.4-0.2
						C638.3,791.7,636.7,792.1,636.2,793.1L636.2,793.1z"/>
				</g>
			</g>
			<g>
				<g>
					<path d="M636.2,768.2c-0.8-0.4-1.2-0.6-2.1-0.6c-0.8,0-1.4,0.2-2.1,0.6c0.7-0.2,1.3-0.4,2-0.5c-0.8,0.1-1.4,0.2-2.1,0.6
						c-0.9,0.5-1.7,1.5-1.9,2.5c-0.5,2,0.4,4,2.4,4.8c0.9,0.4,1.8,0.4,2.7,0.2c0.9-0.2,2-1,2.5-1.9c0.5-1,0.8-2.1,0.4-3.2
						c-0.2-0.7-0.6-1.4-1.1-1.9c0,1.8,0,3.7,0,5.5c0,0,0-0.1,0.1-0.1c-0.3,0.2-0.5,0.4-0.8,0.6c0,0,0.1,0,0.1,0
						c-0.3,0.1-0.6,0.3-0.9,0.4c0,0,0.1,0,0.1,0c-0.3,0-0.7,0.1-1,0.1c0,0,0.1,0,0.1,0c1.6,0,3.3-1.2,3.7-2.8c0.2-0.7,0.2-1.4,0-2
						C637.8,769.7,637,768.6,636.2,768.2L636.2,768.2z"/>
				</g>
			</g>
			<g>
				<g>
					<path d="M669.3,770.5C669.3,770.5,669.3,770.5,669.3,770.5c0.3,0.4,0.7,0.7,1.1,1.1c0,0,0,0,0,0c0.1,0.8,0.2,1.7,0.3,2.5
						c0,0,0,0,0,0c-0.1,0.3-0.2,0.5-0.3,0.8c0,0,0,0,0,0c-0.2,0.2-0.4,0.5-0.5,0.7c0,0,0,0,0,0c1.1-1,1.3-2.9,0.5-4.1
						c-0.7-1.3-2.4-2-3.9-1.6c-1.3,0.4-2.3,1.5-2.5,2.8c-0.1,0.8,0,1.5,0.4,2.2c0.5,0.8,1.2,1.2,2,1.6c0.7,0.3,1.6,0.1,2.2-0.2
						c0.9-0.4,1.7-1.2,1.9-2.2C671.2,772.6,670.5,771.3,669.3,770.5L669.3,770.5z"/>
				</g>
			</g>
			<g>
				<g>
					<path d="M659.9,754.3c1.2,0,2.5-0.5,3.4-1.4c0.8-0.8,1.5-2.2,1.4-3.4c-0.1-2.6-2.1-4.8-4.8-4.8c-1.2,0-2.5,0.5-3.4,1.4
						c-0.8,0.8-1.5,2.2-1.4,3.4C655.2,752.1,657.2,754.3,659.9,754.3L659.9,754.3z"/>
				</g>
			</g>
		</g>
		<g>
			<g>
				<g>
					<g>
						<g>
							<path d="M646.2,691.8c-0.6,0-1.3-0.1-1.9-0.3c-3.5-1-5.5-4.8-4.5-8.3c6.3-21.1,9.5-43.1,9.5-65.3c0-24.8-3.9-49.1-11.7-72.3
								c-1.1-3.5,0.7-7.3,4.2-8.4c3.5-1.2,7.3,0.7,8.4,4.2c8.2,24.6,12.4,50.4,12.4,76.6c0,23.5-3.4,46.8-10,69.1
								C651.7,689.9,649.1,691.8,646.2,691.8z"/>
						</g>
					</g>
				</g>
			</g>
		</g>
		<g>
			<g>
				<g>
					<g>
						<g>
							<path d="M502,745.9c-1,0-2-0.2-2.9-0.7c-3.3-1.6-4.7-5.6-3-8.9c17.9-36.5,51.6-59.8,92.4-63.9c33.7-3.4,67.3,7.2,81.6,25.8
								c2.3,2.9,1.7,7.1-1.2,9.3c-2.9,2.3-7.1,1.7-9.3-1.2c-11.5-14.9-40.8-23.6-69.8-20.7c-21.2,2.2-60.1,12.4-81.8,56.5
								C506.8,744.5,504.5,745.9,502,745.9z"/>
						</g>
					</g>
				</g>
			</g>
		</g>
		<g>
			<g>
				<g>
					<g>
						<g>
							<path d="M506.2,866.8c-6.7,0-12.3-0.3-16.6-0.7c-3.7-0.3-6.4-3.5-6.1-7.2c0.3-3.7,3.7-6.4,7.2-6.1c23.4,2,84.8,2,151.1-43.6
								c104.2-71.8,95.1-297.5,61.1-393.4C668,317,596.3,258.7,506.3,256c-92.2-2.8-173,36.5-216.2,105
								c-11.8,18.7-15.9,35.8-11.8,49.3c3,9.8,9.9,15.9,14.8,18.1c8.4,3.8,61.8-14.8,77.3-43c0.9-1.6,2.4-2.8,4.1-3.2
								c1.8-0.5,3.7-0.2,5.2,0.8c36.4,22.4,77.4,12.2,112.9,0.8c3.5-1.1,7.2,0.8,8.4,4.3c1.1,3.5-0.8,7.3-4.3,8.4
								c-39.2,12.5-80.5,21.2-118.3,1.1c-21,29.2-74.3,50.3-90.7,43c-7.9-3.5-17.8-12.3-22.1-26.4c-3.7-12.1-4.3-32.3,13.3-60.2
								c45.7-72.5,130.9-114.1,227.9-111.2c95.8,2.9,171.9,64.4,208.8,168.7c16,45.1,28.9,128,21.9,211.5
								c-5.6,66.2-25.4,154.2-88.1,197.4C591.8,859.9,537.4,866.8,506.2,866.8z"/>
						</g>
					</g>
				</g>
			</g>
		</g>
		<g>
			<g>
				<g>
					<g>
						<g>
							<path class="st8" d="M621.9,290.7c-26.6-2.1-5.9,17.8,2.9,25.2c8.9,7.4,72.5,65.1,131.8,47.4c59.2-17.8,77-66.6,65.1-69.6
								C809.9,290.7,676.7,295.2,621.9,290.7z"/>
						</g>
					</g>
				</g>
			</g>
		</g>
		<g>
			<g>
				<path d="M712.1,776.3c-3-0.4-5.9-0.8-8.9-1.2c1.8-2.8,3.5-5.7,5.1-8.7C709.6,769.8,710.9,773,712.1,776.3z"/>
			</g>
		</g>
		<g>
			<g>
				<path d="M651.3,677.6c-0.7,1.7-1.5,3.3-2.3,5c-0.6-2.4-1.2-4.8-1.9-7.2C648.6,676.1,650,676.8,651.3,677.6z"/>
			</g>
		</g>
		<g>
			<g>
				<g>
					<path class="st4" d="M711.9,544.6c26.9,51.9,42.9,111.6,38.1,170.3c-2.4,29.4-10.5,58.2-24.7,84.1c-8-20.3-17.1-40.3-27.5-59.3
						c-9.3-17-21.4-33.6-38.4-43.5c7.3-16.6,11.8-34.3,13.5-52.4c2-21.4-0.8-42.6-5.5-63.4c-4.4-19.4-8.5-39.6-22.2-54.8
						c-10-11.1-22.2-20.4-35.1-28.2c3.6-22.3,6.9-44.8,9-67.4C657.8,460.9,689.2,500.7,711.9,544.6z"/>
				</g>
			</g>
			<g id="XMLID_12_">
				<g>
					<g>
						<path d="M755.6,657.2c5.4,13.4,5.8,29.7,5.1,43.7c-0.1,2.4-1.8,3.8-3.6,4.2c-1.3,1.2-3,1.8-4.7,1.1c-7.4-3-13.9-9.5-20.7-13.8
							c-6.9-4.4-14.1-8.3-21.5-11.9c-7.6-3.6-15.4-6.7-23.5-9.3c-6.7-2.1-13.8-3.5-20.4-6c-2.7,1.2-6.6-0.7-5.8-4.7
							c0.7-3.5,1.1-6.9,1.2-10.4c0.1-3.1-0.1-6.1,0.6-9.1c0.4-1.4,2-2,3.3-1.6c6.7-3,14.2-2.6,21.5-2.1c7.8,0.5,15.5,1.1,23.3,2
							c14.5,1.8,30.9,4.2,43.7,12C756.1,652.5,756.5,655.2,755.6,657.2z M752.3,692.3c0.2-5.2,0.1-10.3-0.4-15.5
							c-0.5-5.9-1.6-11.7-2.4-17.6c-13-5-25.4-9.3-39.3-11.5c-14.1-2.2-27.9-3.5-42.1-3.8c1.2,4.6,1.1,9.9,0.7,14.6
							c7.4,0,15.3,2.2,22.2,4.1c8,2.2,15.9,5,23.5,8.2c7.9,3.3,15.5,7.2,22.8,11.6C742,685.3,747.6,688.5,752.3,692.3z"/>
					</g>
					<g>
						<path class="st10" d="M751.9,676.7c0.5,5.2,0.6,10.3,0.4,15.5c-4.6-3.8-10.3-6.9-15-9.8c-7.3-4.4-14.9-8.3-22.8-11.6
							c-7.7-3.2-15.5-6-23.5-8.2c-6.9-1.9-14.8-4.1-22.2-4.1c0.4-4.7,0.5-10-0.7-14.6c14.2,0.3,28,1.6,42.1,3.8
							c13.9,2.2,26.3,6.5,39.3,11.5C750.3,665,751.4,670.9,751.9,676.7z"/>
					</g>
				</g>
			</g>
			<g>
				<path d="M684.1,479.9c-18.4-23.7-39.4-45.2-62.4-64.4c-1.2-1-2.3-1.9-3.5-2.9c-4.8-3.9-10.7-1.2-11.4,4.7
					c-3,24.3-5.8,48.7-9.6,72.9c-0.1-0.1-0.3-0.1-0.4-0.2c-3.8-2-7.1,3.5-3.4,5.8c0.9,0.5,1.8,1.1,2.6,1.7c-0.1,0.6-0.2,1.3-0.3,1.9
					c-1.3,7.7,8.9,11.5,12.3,6.3c10.1,7.4,19.6,15.7,27.7,25.1c12.8,14.8,16.1,34.2,20.1,52.8c4.1,18.9,6.7,37.8,5.2,57.2
					c-1.5,19.1-6.8,37.6-14.7,55.1c-0.2,0.5-0.4,1.1-0.5,1.6c1.6,1.1,3.3,2.1,4.9,3.1c4.4,2.7,8.6,5.4,12.6,8.6
					c9.4,7.6,17.1,17.1,23.5,27.3c10,15.9,19.4,33.7,22.1,52.5c3,7.1,6,14.3,8.8,21.5c0.4,1,0.8,1.9,1.1,2.9
					c1.7,4.4,7.6,5.7,10.3,1.3c0.7-1.1,1.4-2.3,2.1-3.4C793.4,706.6,754.4,570.4,684.1,479.9z M656.8,701.9
					c-0.2-0.6-0.1-0.6,0.1-0.2C656.9,701.7,656.9,701.8,656.8,701.9z M725.3,798.9c-8-20.2-17-40.2-27.5-59.2
					c-9.3-17-21.4-33.6-38.4-43.5c-0.1,0.3-0.3,0.7-0.4,1c0-0.8,0.1-1.2,0.4-1c7.3-16.6,11.8-34.3,13.5-52.4
					c2-21.4-0.8-42.6-5.5-63.4c-4.4-19.4-8.5-39.6-22.2-54.8c-10-11.1-22.2-20.4-35.1-28.2c3.6-22.3,6.9-44.8,9-67.4
					c38.7,30.9,70.1,70.7,92.8,114.6c26.9,51.9,42.9,111.6,38.1,170.3C747.7,742.4,726.6,794.9,725.3,798.9z"/>
			</g>
			<g>
				<g>
					<g>
						<path d="M665.4,625.8c11.4,4.8,25.6,1.4,37.7,2.2c13.5,0.9,26.8,2.6,39.9,6c2.9,0.8,6.1-0.5,7.6-3.1c0.7-1.1,0.9-2.1,0.9-3.4
							c0-2.9-2.1-5.8-5-6.5c-26.9-6.7-53.5-5.5-80.6-0.5C663.8,620.9,663.1,624.9,665.4,625.8L665.4,625.8z"/>
					</g>
				</g>
			</g>
			<g>
				<g id="XMLID_18_">
					<g>
						<path class="st4" d="M715.1,806.1c-3-1.7-6.1-3.2-9.1-5c-4.5-2.6-7.3-6.8-9.9-11.2c3.3-4.2,6.9-8.2,10.8-11.9
							C710.3,787.1,713.1,796.6,715.1,806.1z"/>
						<path d="M724.5,811.7c0,0.5,0,0.9-0.1,1.3c-0.1-0.2-0.1-0.4-0.3-0.6C724.3,812.2,724.4,812,724.5,811.7z"/>
						<path d="M724.2,809.9c0.4,0.5,0.5,1.2,0.3,1.8c0-0.1,0-0.3-0.1-0.5C724.3,810.8,724.3,810.3,724.2,809.9z"/>
						<path d="M724.4,811.3c0,0.2,0,0.3,0.1,0.5c-0.1,0.3-0.2,0.5-0.4,0.7c-0.2-0.5-0.6-1-1.1-1.3c-1.8-1.3-3.7-2.5-5.6-3.6
							c1.8,0.7,3.6,1.2,5.5,1.7c0.5,0.1,0.9,0.4,1.2,0.7C724.3,810.3,724.3,810.8,724.4,811.3z"/>
						<path d="M713.3,773.1c4.8,11.9,8.5,24.1,10.9,36.8c-0.3-0.3-0.7-0.6-1.2-0.7c-1.9-0.5-3.7-1-5.5-1.7c-0.8-0.5-1.6-0.9-2.3-1.3
							c-2-9.6-4.8-19-8.3-28.1c1.4-1.4,2.8-2.7,4.3-4L713.3,773.1z"/>
						<path d="M723,811.1c0.5,0.4,0.9,0.8,1.1,1.3c-0.5,0.7-1.3,1.2-2.4,1c-0.3,0-0.5-0.1-0.8-0.1c0.4-0.9,0.7-1.8,1.1-2.7
							c-2.3-0.8-4.5-1.7-6.6-2.8c-0.1-0.4-0.2-0.9-0.3-1.3c0.7,0.3,1.5,0.6,2.2,0.9C719.3,808.6,721.2,809.8,723,811.1z"/>
						<path d="M722.1,810.7c-0.4,0.9-0.8,1.8-1.1,2.7c-1.6-0.2-3.1-0.6-4.7-1c-0.3-1.5-0.5-3-0.9-4.5
							C717.6,809,719.8,809.9,722.1,810.7z"/>
						<path d="M721.8,813.5c1,0.1,1.9-0.3,2.4-1c0.1,0.2,0.2,0.4,0.3,0.6v0c-0.5,2.2-2.7,3.5-4.7,3.3c0.4-1,0.9-2,1.3-3
							C721.3,813.4,721.5,813.5,721.8,813.5z"/>
						<path d="M721,813.4c-0.4,1-0.9,2-1.3,3c-1.5-0.1-2.8-1-3.2-3c-0.1-0.3-0.1-0.7-0.2-1C717.9,812.8,719.4,813.1,721,813.4z"/>
						<path d="M719.7,816.4c2,0.1,4.2-1.2,4.7-3.3c0.9,2.7-0.9,6.3-4.3,5c-0.3-0.1-0.6-0.2-0.9-0.4l0,0
							C719.4,817.2,719.5,816.8,719.7,816.4z"/>
						<path d="M719.2,817.7L719.2,817.7c-5.3-2.1-10.2-4.9-14.7-8.2C709.4,812.2,714.6,814.5,719.2,817.7z"/>
						<path d="M717.4,807.5c-0.8-0.3-1.5-0.6-2.2-0.9c0-0.2-0.1-0.3-0.1-0.4C715.9,806.6,716.7,807,717.4,807.5z"/>
						<path d="M704.8,773.2c2.1,0.3,4.2,0.5,6.2,0.8c-1.5,1.3-2.9,2.6-4.3,4C706.2,776.4,705.5,774.8,704.8,773.2z"/>
						<path d="M715.5,807.9c-7.1-3.5-13.3-8.6-18.3-14.7c4.8,5.9,11.1,10.4,18,13.4C715.3,807,715.4,807.5,715.5,807.9z"/>
						<path d="M715.2,806.6c-7-3-13.2-7.5-18-13.4c-0.4-0.5-0.9-1.1-1.3-1.6c-0.2-0.2-0.4-0.5-0.6-0.7c0.2-0.3,0.5-0.6,0.8-1
							c2.6,4.4,5.4,8.6,9.9,11.2c3,1.8,6.1,3.4,9.1,5C715.1,806.3,715.2,806.4,715.2,806.6z"/>
						<path d="M697.2,793.2c5,6.2,11.2,11.2,18.3,14.7c0.3,1.5,0.6,3,0.9,4.5c-10.2-2.6-19-8.5-25.6-16.9c1.7-1.3,3.4-2.7,5.1-4
							C696.3,792.1,696.7,792.6,697.2,793.2z"/>
						<path d="M696,789.9c-0.3,0.3-0.5,0.6-0.8,1c-0.2-0.2-0.4-0.3-0.6-0.4c0-1,0-1.9,0-2.9C695.2,788.4,695.6,789.2,696,789.9z"/>
						<path d="M695.3,790.9c-0.2,0.2-0.4,0.5-0.6,0.7c0-0.4,0-0.8,0-1.1C694.9,790.6,695.1,790.7,695.3,790.9z"/>
						<path d="M704.5,809.5c-5.2-3.9-9.8-8.5-13.8-13.9l0,0c6.6,8.4,15.4,14.3,25.6,16.9c0.1,0.3,0.1,0.7,0.2,1c0.3,2,1.7,2.9,3.2,3
							c-0.2,0.4-0.3,0.8-0.5,1.3C714.6,814.5,709.4,812.2,704.5,809.5z"/>
						<path d="M695.9,791.5c-1.7,1.3-3.4,2.6-5.1,4l0,0c-0.2-0.2-0.3-0.5-0.5-0.7c-2.1-3,1.8-5.8,4.5-4.3c0,0.4,0,0.8,0,1.1
							c0.2-0.2,0.4-0.5,0.6-0.7C695.5,791.1,695.7,791.3,695.9,791.5z"/>
						<path d="M690.7,795.5c3.9,5.4,8.5,10.1,13.8,13.9c-1.8-1-3.5-2.1-5.1-3.3c-5.1-3.7-8.4-9.2-11.5-14.6c-0.6-1.1-0.8-2.9,0-4
							c5.3-7,11.1-13.4,17.6-19.2c1.7-1.5,5.2-1.7,6.2,0.8c0.5,1.3,1.1,2.6,1.6,3.9l-2.2,0.9c-2.1-0.3-4.2-0.5-6.2-0.8
							c0.7,1.6,1.3,3.2,2,4.8c-3.8,3.7-7.5,7.7-10.8,11.9c-0.5-0.8-0.9-1.5-1.3-2.3c0,1,0,1.9,0,2.9c-2.7-1.4-6.6,1.4-4.5,4.3
							C690.4,795.1,690.6,795.3,690.7,795.5z"/>
					</g>
				</g>
			</g>
		</g>
		<g>
			<g>
				<g>
					<g>
						<g>
							<path d="M616.3,297.3c1.8,2.8,6,7.8,12.8,13.5l1.7,1.4C677.1,351.7,712,360,733.1,360l0,0c7.5,0,14.8-1,21.7-3.1
								c32.5-9.7,52.4-29.9,60.3-45.5c2.9-5.8,3.5-9.7,3.5-11.5c-4.4-0.5-15.9-0.7-34.3-0.7c-9.8,0-20.9,0.1-32.7,0.1
								c-13.4,0.1-27.8,0.1-42.1,0.1c-26.5,0-64.5-0.2-88.1-2.1C619.3,297.2,617.5,297.2,616.3,297.3z M733.1,373.3L733.1,373.3
								c-23.3,0-61.5-8.8-110.8-50.9l-1.6-1.3c-21.8-18.2-18.8-26.5-17.8-29.2c1.9-5.2,7.1-7.9,15.4-7.9c1.3,0,2.7,0.1,4.3,0.2
								c23.1,1.9,60.7,2.1,87,2.1c14.3,0,28.6-0.1,42.1-0.1c11.9-0.1,23-0.1,32.8-0.1c28.2,0,35.9,0.5,39.1,1.3
								c5.2,1.3,8.3,5.9,8.5,12.2c0.4,16.2-21.4,54.6-73.3,70.2C750.4,372.1,741.9,373.3,733.1,373.3z"/>
						</g>
					</g>
				</g>
			</g>
		</g>
		<g>
			<g>
				<g>
					<g>
						<g>
							<path d="M236,424c-15.1,0-22.6-4.5-26.2-8.2c-3.9-4-5.4-9.3-4-14.1c1.4-4.8,5.4-8.3,10.6-9.5c11.5-2.5,45.9-22.1,63.3-39.7
								c2.6-2.6,6.8-2.6,9.4,0c2.6,2.6,2.6,6.8,0,9.4c-18.3,18.3-54.9,39.9-69.9,43.2c-0.6,0.1-0.8,0.4-0.8,0.4
								c0.1,0,0.5,0.7,1.9,1.7c2.8,1.9,14.3,7.3,46-1.6c3.5-1,7.2,1,8.2,4.6c1,3.5-1.1,7.2-4.6,8.2C255.7,422.5,244.6,424,236,424z"
								/>
						</g>
					</g>
				</g>
			</g>
		</g>
		<g>
			<g>
				<g>
					<g>
						<g>
							<path d="M364.4,350c-10.6,8-7.4,17.8,4.4,19.2c11.9,1.5,12.8,2.3,23.7-5.9c11.9-8.9,13.3-23.7,0-22.2
								C379.2,342.6,370.3,345.5,364.4,350z"/>
						</g>
					</g>
				</g>
			</g>
		</g>
		<g>
			<g>
				<g>
					<g>
						<g>
							<path d="M333.3,355.9c0,7.4-5.9,13.3-13.3,13.3c-7.4,0-13.3-5.9-13.3-13.3c0-7.3,5.9-13.3,13.3-13.3
								C327.3,342.6,333.3,348.5,333.3,355.9z"/>
						</g>
					</g>
				</g>
			</g>
		</g>
		<g>
			<g>
				<g>
					<g>
						<g>
							<path d="M487.2,318.9c0,7.4-6,13.3-13.3,13.3c-7.4,0-13.3-5.9-13.3-13.3c0-7.3,5.9-13.3,13.3-13.3
								C481.3,305.6,487.2,311.5,487.2,318.9z"/>
						</g>
					</g>
				</g>
			</g>
		</g>
		<g>
			<g>
				<g>
					<g>
						<g>
							<path d="M372.1,1040.4c-51.8,0.1-102.7-21.9-134.9-48.2c-24.5-20-38.3-41.9-37.8-60.2c0.7-21.9,11.7-37.2,30.2-42.1
								c23.5-6.1,59.1,7.2,81.3,44.6c18.4,30.7,51.7,36.6,76.2,36c73.1-1.6,157.5-56.7,196.2-128.2c1.8-3.2,5.8-4.4,9.1-2.7
								c3.2,1.7,4.4,5.8,2.7,9C554.2,924,464.9,982.2,387.4,983.8c-40,0.7-71-14.3-87.9-42.5c-19-31.7-47.9-43.4-66.6-38.5
								c-12.6,3.3-19.7,13.8-20.2,29.6c-0.4,13.9,11.9,32.4,32.9,49.5c37.8,30.7,102.5,55.3,161.9,41.1
								c109.3-26.1,206.7-114.6,231.4-210.4c0.9-3.5,4.5-5.7,8.1-4.8c3.5,0.9,5.7,4.6,4.8,8.1c-26,100.3-127.4,192.8-241.2,220
								C397.9,1038.9,384.9,1040.3,372.1,1040.4z"/>
						</g>
					</g>
				</g>
			</g>
		</g>
		<g>
			<g>
				<g>
					<g>
						<g>
							<path d="M645.7,534.9c-35.8-32-62.6-53.3-100.8-61.2c-26.5-5.5-56.4,1.1-82.7,6.9c-17.1,3.8-33.2,7.4-43.8,6.3
								c-14.1-1.5-25.4-8.3-28.2-17c-2.7-8.5,2.9-19.3,15.6-30.6c37.2-32.8,106.4-42.7,157.4-22.5c3.4,1.4,7.3-0.3,8.7-3.8
								c1.3-3.4-0.3-7.3-3.8-8.6c-55.3-21.8-130.5-10.9-171.2,24.9c-21.7,19.1-22.6,34.8-19.5,44.6c4.4,13.9,19.9,24.2,39.5,26.2
								c12.8,1.4,29.1-2.3,48.1-6.5c25-5.5,53.3-11.8,77.1-6.9c39.1,8.1,65,31.2,107.2,69.4C647.8,549.2,646.5,542.1,645.7,534.9z"
								/>
						</g>
					</g>
				</g>
			</g>
		</g>
		<g>
			<g>
				<g>
					<g>
						<g>
							<path class="st4" d="M188.2,683c-36.1-27.8-76.9-3-68.1,40c7.3,35.2,66.9,100.8,109.5,111c37,8.9,29.5-31,23.7-44.4
								C243,765.9,207.5,697.8,188.2,683z"/>
						</g>
					</g>
				</g>
			</g>
		</g>
		<g>
			<g>
				<g>
					<g>
						<g>
							<path d="M156.7,677.9c-9.6,0-18,3.9-23.8,11c-6.7,8.2-9,19.9-6.3,32.7c6.8,32.8,65.1,96.4,104.6,105.9c3,0.7,5.8,1.1,8.1,1.1
								c6.2,0,8.5-2.4,9.6-4.2c4.8-7.3,2.1-23.4-1.7-32.1c-10.9-25-45.6-90.5-63.1-104C175.4,681.5,165.9,677.9,156.7,677.9z
								 M239.3,841.9L239.3,841.9c-3.4,0-7.2-0.5-11.2-1.5c-45.1-10.8-106.7-78.5-114.5-116.1c-3.5-16.8-0.3-32.4,9-43.8
								c8.2-10.1,20.6-15.9,34.1-15.9c12.1,0,24.4,4.5,35.6,13.1c21.9,16.9,59.1,90.8,67.2,109.2c3.3,7.6,10,30.6,0.7,44.8
								C257.1,836.3,251,841.9,239.3,841.9z"/>
						</g>
					</g>
				</g>
			</g>
		</g>
		<g>
			<g>
				<g>
					<g>
						<g>
							<path class="st4" d="M502,835.5c0,0-8.9,51.8-57.7,51.8c-48.8,0-28.1-59.2-34-97.7c-5.9-38.5-29.6-88.8,5.9-112.5
								c35.5-23.7,78.5,45.9,85.9,72.5C512.4,785.1,510.9,807.3,502,835.5z"/>
						</g>
					</g>
				</g>
			</g>
		</g>
		<g>
			<g>
				<g>
					<g>
						<g>
							<path d="M431.6,681.1c-3.7,0-7.1,1.1-10.5,3.4c-21,14-16.8,39.3-7.9,76.3c2.2,9.1,4.4,18.6,5.8,27.4
								c1.8,11.5,1.4,24.4,0.9,36.8c-0.6,19.3-1.3,39.2,7,47.8c3.6,3.8,9.3,5.6,17.3,5.6c40.6,0,48.7-42.6,49-44.5
								c0.1-0.4,0.1-0.8,0.3-1.1c7.9-25.1,10.3-45.4,0-80.7C486.9,728.4,455.5,681.1,431.6,681.1z M444.3,896.2
								c-12.9,0-23-3.7-30.1-11c-13.5-14-12.8-37.8-12-60.8c0.4-11.6,0.8-23.6-0.7-33.5c-1.3-8.1-3.3-16.8-5.5-26
								c-8.2-34.4-17.6-73.3,15.3-95.2c6.3-4.2,13.1-6.3,20.3-6.3c38.6,0,72.6,60.8,79,83.9c11.4,39.1,8.7,62.8,0.1,90.3
								C506.9,858.2,488.4,896.2,444.3,896.2z"/>
						</g>
					</g>
				</g>
			</g>
		</g>
		<g>
			<g>
				<g>
					<g>
						<g>
							<g>
								<path d="M326.9,400.8c-4.5-6.7-11.8-9.4-19.2-12c-9.2-3.2-21.2-3.1-30.4,0.2c-9.6,3.4-17.3,10.1-25.1,16.5
									c-3.9,3.2-7,7-11.8,9.1c-5.4,2.5-11.3,2.7-17.1,2.5c-2.7-0.1-3,3.7-0.6,4.5c8.6,3,18.8,3.1,27.6,1.1c4.2-1,8.1-2.1,11.8-4.4
									c4-2.6,7.6-5.8,11.4-8.6c7.3-5.3,16.5-7.8,25.4-9.3c4.2-0.7,8.8-2.2,13-2.2c4.5,0,9.3,2.2,13.1,4.5
									C326.1,403.4,327.6,401.9,326.9,400.8L326.9,400.8z"/>
							</g>
						</g>
					</g>
				</g>
			</g>
		</g>
		<g>
			<g>
				<g>
					<g>
						<g>
							<g>
								<path d="M417.8,376.6c10.4-21.3,42.1-14.6,60.7-12.2c11.6,1.5,23.8,4.5,35.5,4.3c9.9-0.2,18.5-7.3,14.6-17.6
									c-0.7-1.7-2.9-2.2-4-0.5c-1.6,2.6-9,2.6-11.6,2.6c-5.8-0.1-11.8-1.2-17.5-2c-12.3-1.6-24.6-3.3-37.1-2
									c-16.1,1.6-38.8,8.4-43.1,26.5C415,377,417.1,378,417.8,376.6L417.8,376.6z"/>
							</g>
						</g>
					</g>
				</g>
			</g>
		</g>
		<g>
			<g id="XMLID_5_">
				<g>
					<g>
						<g>
							<g>
								<g>
									<path d="M770.9,209.1c9.2,12.1,10.5,31.6,4.3,45.3c-5,11.2-18.1,19-30.5,22.1c-1.6,5.1-4.2,10.2-8,15.3
										c-12.9,17-34.8,22.9-53.8,14.9c-2.6,5.1-6.1,9.6-10.7,13.2c-15.9,12.5-43.3,19.8-63.1,16.1c-24.6-4.5-41.3-23.3-59.5-38.6
										c-21.7-18.2-47.7-29.8-75.8-33.8c-12.6-1.8-25.4-2.5-38.1-1.3c-12.9,1.2-25.2,5.9-38,6.9c-3.6,0.3-5-2.9-4.3-5.7
										c-0.7-0.9-1.1-2.1-0.7-3.4c14.3-47.4,62.6-70.1,108.4-76.2c47.3-6.4,102.5-1.8,139.6,31.6c1.4,1.2,2.1,2.6,2.5,3.9
										c2.5,0.1,5,0.4,7.5,0.9c19.1-21.1,48.4-30.3,74.5-14.4c0.3,0.2,0.5,0.3,0.7,0.5c2-2.3,4.1-4.3,6.2-5.7
										C744.8,192,762,197.4,770.9,209.1z M756.6,255.8c8.8-7.4,10.1-20.4,6.2-30.9c-4.3-11.8-18.8-19.4-27-6.1
										c-2.3,3.8-2.5,7.4-4.5,10.3c0.5,0.6,1,1.2,1.5,1.8c8.1,10.3,13.1,21.1,13.6,32.1C750,260.8,753.4,258.5,756.6,255.8z
										 M686.7,296.4c21.7,4.4,46.4-7.8,46.2-33.1c-0.1-8.4-11-29.6-20.3-31.6c-7.1,1.7-10.1,5.4-9.1,11
										c-0.9,5.1,1.3,9.2,6.4,12.3c2.3,2.3,5,2.8,7.3,5.6c2.4,2.8,1.3,6.3-2,7.6c-20.3,7.9-31.6-23.5-24.9-38.4
										c6.8-15.3,18.3-16.3,28.7-10.8c0.2-0.7,0.4-1.4,0.6-2.2c-0.3-0.1-0.5-0.2-0.8-0.3c-22.2-9.9-46.7-6.4-58.9,16.2
										c-1.3,2.4-4.4,4.1-7.2,3.9c-0.5,0-1-0.1-1.5-0.3c-20.4-7.5-32.9-0.1-44.6,16.9c-1.2,1.7-4.6,1.3-4.4-1.2
										c1.1-13.9,10.1-23.9,21.6-29c-62.7-44.7-179.9-39.8-219.6,32.2c21.2-9.9,51.5-9.8,72.7-6.8c28.4,4,55.4,15.1,78.1,32.7
										c13.3,10.3,24.8,23.5,39.5,31.8c19,10.6,38.8,7.1,57.9-1.4c10.7-4.8,16.6-12,17.6-23.7c0.9-10.6-0.1-24.8-11.6-29.5
										c-11-4.5-26.4,1.8-20.4,14.7c3.9,8.4,7.9,4.7,14.9,8.5c2.1,1.1,2.9,3.7,2.4,5.9c-0.2,0.9-0.4,1.7-0.6,2.6
										c-0.6,2.8-3.2,5.3-5.9,5.9c-17.2,3.9-34.4-8.9-33-27.3c1.3-17,16.5-29.9,33.1-30.3c1.2,0,2.3,0,3.5,0.1
										C680.5,240.1,692.9,271.2,686.7,296.4z"/>
								</g>
							</g>
						</g>
					</g>
					<g>
						<g>
							<g>
								<g>
									<path class="st5" d="M762.8,224.9c3.8,10.5,2.6,23.6-6.2,30.9c-3.1,2.6-6.6,5-10.1,7.1c-0.5-11-5.5-21.8-13.6-32.1
										c-0.5-0.6-1-1.2-1.5-1.8c1.9-2.9,2.1-6.5,4.5-10.3C743.9,205.5,758.5,213.1,762.8,224.9z"/>
								</g>
							</g>
						</g>
					</g>
					<g>
						<g>
							<g>
								<g>
									<path class="st5" d="M659.8,232.7c12.3-22.7,36.7-26.2,58.9-16.2c0.3,0.1,0.5,0.2,0.8,0.3c-0.3,0.7-0.5,1.4-0.6,2.2
										c-10.4-5.5-21.9-4.4-28.7,10.8c-6.7,14.9,4.6,46.3,24.9,38.4c3.3-1.3,4.4-4.9,2-7.6c-2.3-2.8-5-3.3-7.3-5.6
										c-5.1-3.1-7.2-7.2-6.4-12.3c-1-5.7,2-9.4,9.1-11c9.3,2,20.2,23.2,20.3,31.6c0.2,25.3-24.5,37.5-46.2,33.1
										c6.2-25.2-6.2-56.2-34.2-57.9l0.1-1.8C655.4,236.8,658.6,235.1,659.8,232.7z"/>
								</g>
							</g>
						</g>
					</g>
					<g>
						<g>
							<g>
								<g>
									<path class="st5" d="M651.1,236.3c0.5,0.2,1,0.3,1.5,0.3l-0.1,1.8c-1.1-0.1-2.3-0.1-3.5-0.1c-16.6,0.4-31.8,13.4-33.1,30.3
										c-1.4,18.5,15.8,31.3,33,27.3c2.7-0.6,5.3-3.2,5.9-5.9c0.2-0.9,0.4-1.7,0.6-2.6c0.5-2.2-0.3-4.8-2.4-5.9
										c-7.1-3.7-11-0.1-14.9-8.5c-6.1-13,9.4-19.2,20.4-14.7c11.4,4.7,12.5,18.9,11.6,29.5c-1,11.8-6.9,19-17.6,23.7
										c-19.1,8.6-38.9,12.1-57.9,1.4c-14.8-8.3-26.3-21.5-39.5-31.8c-22.7-17.6-49.7-28.7-78.1-32.7c-21.2-3-51.4-3.1-72.7,6.8
										c39.7-72,156.9-76.9,219.6-32.2c-11.5,5.1-20.5,15.1-21.6,29c-0.2,2.5,3.2,2.9,4.4,1.2
										C618.3,236.2,630.7,228.7,651.1,236.3z M612.2,305.5c7,3.2,13-7.3,6-10.3c-4.3-1.8-7.5-4.5-9.6-8.7
										c-2.2-4.2-2.1-8.2-3-12.6c-0.7-3.6-5.6-3.7-7.3-1C590.8,284.5,601.5,300.6,612.2,305.5z"/>
								</g>
							</g>
						</g>
					</g>
					<g>
						<g>
							<g>
								<g>
									<path d="M618.2,295.2c7,2.9,1,13.5-6,10.3c-10.7-4.9-21.5-20.9-14-32.5c1.8-2.7,6.6-2.6,7.3,1c0.9,4.4,0.9,8.4,3,12.6
										C610.7,290.7,613.9,293.4,618.2,295.2z"/>
								</g>
							</g>
						</g>
					</g>
				</g>
			</g>
		</g>
		<g id="XMLID_7_">
			<g>
				<g>
					<g>
						<g>
							<g>
								<path d="M135.9,371.3c2-0.7,4-1.4,5.8-2.4c0.6-0.3,1.1-0.7,1.7-1c9.7-6.1,18.2-15.4,21.2-26.7c0.2-0.9,0.4-1.8,0.6-2.6
									c-4,1.1-8.1,1.6-12.3,2.1c-5,0.6-13.1,2.3-18,3.7c-11,3.3-21.8,7.1-32.4,11.4c-10.9,4.3-21.7,9-32.1,14.6
									c-6.1,3.2-10.9,8.5-17.1,11.3c-0.8,1.1-1.6,2.1-2.3,3.3c-11.5,17.7-12.1,40.5-8.1,60.7c4.1,20.9,13.2,43.9,32.2,55.5
									c9.8,6,22.2,8.4,33.2,4.6c3.5-3,10-0.4,9.9,4.7c-0.3,9,6.2,14.2,13.8,17.2c5.3-0.2,10.6-1.3,14.7-2.6
									c5.4-1.7,12.1-4.6,17.2-8.8c-0.3-2.2-1-4.6-1.3-6.1c-0.9-4-2.1-8-3.1-12c-3.2-13.2-5.8-26.5-8.9-39.8
									c-6.2-26.6-14.6-52.6-18.6-79.6C131.7,375.6,133,372.2,135.9,371.3z M112.3,479c-0.4,3.5-3.2,5.4-5.9,5.7
									c-2.9,1.7-6,2.4-9.4,2.1c-8.2-0.6-15.3-6-20-12.5c-10.3-14.4-14.8-34.9-14.1-52.4c0.5-11.7,5-22,12.8-29.6
									c0.2-0.3,0.4-0.6,0.7-0.9c0.9-1,1.7-1.6,2.9-2.3c3.6-2,7.5-0.1,8.8,3.6c5.6,15.9,9.5,32.3,14.5,48.4
									C106.4,453.3,113.8,465.8,112.3,479z M127.7,503.9c-0.1-0.1,0-0.1,0.5-0.1c0.1,0.1,0.3,0.3,0.4,0.4
									C128.2,504.3,127.9,504.1,127.7,503.9z M138,470.9c1.6,5.9,3.3,11.7,5.3,17.4c0.9,2.7,1.9,5.4,3,8.1c0.4,1,0.8,2.1,1.2,3.1
									c-2.4,1.5-5,2.6-7.6,3.3c-2.2,0.6-4.4,1.1-6.7,1.2c-0.1,0-0.3,0-0.4,0c0-0.4,0-0.8,0-1.3c-0.1-2.9-0.3-5.9-0.5-8.8
									c-0.4-6.3-1.2-12.5-2-18.7c-1.6-12-3.9-23.9-7.3-35.5c-3.4-11.6-7.8-22.9-12.7-33.9c-3.7-8.3-8.1-17.3-13.8-24.8
									c5.4-1.5,11.1-2.5,16.7-3.5c8.3,19,12.6,39.4,17,59.6C132.6,448.4,135,459.7,138,470.9z"/>
							</g>
						</g>
					</g>
				</g>
				<g>
					<g>
						<g>
							<g>
								<path class="st8" d="M146.2,496.4c0.4,1,0.8,2.1,1.2,3.1c-2.4,1.5-5,2.6-7.6,3.3c-2.2,0.6-4.4,1.1-6.7,1.2
									c-0.1,0-0.3,0-0.4,0c0-0.4,0-0.8,0-1.3c-0.1-2.9-0.3-5.9-0.5-8.8c-0.4-6.3-1.2-12.5-2-18.7c-1.6-12-3.9-23.9-7.3-35.5
									c-3.4-11.6-7.8-22.9-12.7-33.9c-3.7-8.3-8.1-17.3-13.8-24.8c5.4-1.5,11.1-2.5,16.7-3.5c8.3,19,12.6,39.4,17,59.6
									c2.4,11.3,4.8,22.6,7.8,33.8c1.6,5.9,3.3,11.7,5.3,17.4C144.2,491,145.2,493.7,146.2,496.4z"/>
							</g>
						</g>
					</g>
				</g>
			</g>
		</g>
		<g>
			<g>
				<g>
					<g>
						<path d="M174.4,344.7c-0.6-4.2-4.4-8.4-8.7-9.7c-10.2,2.2-20.4,4.2-30.5,7c-13.4,3.7-26.6,8-39.8,12.3
							c-20.6,6.8-44.8,19.2-48.2,43.4c-0.2,1.7,2,3,3,1.3c5.6-9.7,10.9-18.2,20.3-24.6c9.7-6.6,21.7-9.3,32.8-12.7
							c11.7-3.7,23.5-7.2,35.4-10.3c7.8-2,15.8-4,23.9-5.3c-3.5,1.9-7.5,3.1-11.2,4.2c-11.5,3.3-25.2,5.1-34.8,12.4
							c-3.9,3-2.6,8.7,2.5,9.2c7.8,0.7,12.6,0.7,20.1-1.5c6.6-1.9,15.3-6.1,21.7-8.6c4.2-1.7,8.4-3.7,12-6.4
							C174.3,352.1,175,348.9,174.4,344.7z"/>
					</g>
				</g>
			</g>
		</g>
		<g>
			<g>
				<g>
					<path class="st0" d="M93.8,366.8c0,0-83-299-87-318s0-39,0-39s17,16,23,34s78.3,311.3,78.3,311.3L93.8,366.8z"/>
				</g>
			</g>
			<g>
				<g>
					<path d="M91,375.5l-2-7.4C85.6,355.9,5.9,68.8,1.9,49.8c-4.2-19.8-0.2-40.2,0-41L3.6,0l6.6,6.2c0.7,0.7,18,17.1,24.3,36.1
						c6,18,75.4,299.7,78.4,311.7l0.8,3.1L91,375.5z M10.4,21.1c-0.6,7.2-0.7,17.1,1.3,26.7c3.6,17,72.1,264.1,84.9,310.3l5.9-4.8
						C94.7,321.9,30.6,62,25,45.4C21.9,36,15.5,27.1,10.4,21.1z"/>
				</g>
			</g>
		</g>
		<g id="XMLID_1_">
			<g>
				<g>
					<path d="M580.7,373c4.6,7.8,7,20,0.3,26.6c-3.2,3.1-7.8,3.3-11.9,2.7c-6.2-0.9-12.3-2.9-18.5-3.8c-14.2-2.2-28.1-1.7-42.2-0.1
						c-4.9,0.6-10.1,0.5-14.1-2.8c-1.3-1.1-2.4-2.4-3-3.7c-2.3,1.2-4.5,2.5-6.7,3.9c-1.4,0.9-3.8-0.6-2.7-2.2
						c2.3-3.7,5.7-6.5,9.5-8.8c0.3-0.3,0.6-0.5,1-0.6c2.6-1.5,5.4-2.9,7.9-4.2c8.5-4.2,17.3-8.1,26.5-10.5
						c8.8-2.3,17.7-3.7,26.8-3.8c7.4-0.1,20.1-1.1,25.8,4.5C580.1,370.8,580.5,371.9,580.7,373z M571.6,395.6
						c9.4,0.3,6.4-11.4,2.9-18.1c-2.4-0.1-4.7-0.7-7.3-1.2c-4.2-0.9-8.4-1.3-12.7-1.3c-8.1,0-16.2,1-24.1,2.9
						c-11.3,2.7-23.3,6.3-34.2,11.3c4,6,17.2,1.9,23.2,1.5c8.9-0.7,17.9-0.5,26.8,0.4c4.3,0.4,8.6,1.1,12.8,1.9
						C563,393.9,567.3,395.5,571.6,395.6z"/>
				</g>
				<g>
					<path class="st8" d="M574.5,377.6c3.5,6.7,6.6,18.4-2.9,18.1c-4.2-0.1-8.5-1.8-12.7-2.6c-4.2-0.8-8.5-1.4-12.8-1.9
						c-8.9-0.9-17.9-1-26.8-0.4c-6,0.4-19.2,4.5-23.2-1.5c10.9-5.1,22.9-8.6,34.2-11.3c7.9-1.9,16-3,24.1-2.9
						c4.3,0,8.5,0.5,12.7,1.3C569.8,376.9,572.1,377.5,574.5,377.6z"/>
				</g>
			</g>
		</g>
		<g>
			<g>
				<g>
					<path d="M774.8,930.3c-2.5,1-5,2-7.5,3c-1.1,0.4-1.8,1.5-1.5,2.7c0.3,1,1.6,2,2.7,1.5c2.5-1,5-2,7.5-3c1.1-0.4,1.8-1.4,1.5-2.7
						C777.2,930.8,775.9,929.9,774.8,930.3L774.8,930.3z"/>
				</g>
			</g>
		</g>
		<g>
			<g>
				<g>
					<path d="M148.4,1058.4c2,0,2-3.1,0-3.1C146.4,1055.3,146.4,1058.4,148.4,1058.4L148.4,1058.4z"/>
				</g>
			</g>
		</g>
		<g id="XMLID_4_">
			<g>
				<g>
					<path d="M958.4,702.3c19.1,44.5,27.7,95.5,12.5,142.5c-13.1,40.6-41.8,73.4-75.6,98.6c-17,12.7-35.4,23.5-54.5,32.7
						c-10.5,5.1-21.3,10-32.4,13.8c-6.2,2.1-12.4,4-19,3.7c-6.3-0.3-12.2-0.7-18.3-2.5c-5.4-1.5-3.8-8.8,1.3-9.3
						c0.7-0.1,1.4-0.2,2-0.2c-1.9-2.5-3-5.7-3.2-9c-1.1-14,6.7-28.7,12.7-40.8c7.1-14.3,13.9-28.3,16.2-44.3
						c2.4-16.3,1.1-33.1-1.9-49.2c-5.5-29.7-16.1-58.4-25.5-87c-9.9-30.2-19.5-60.5-29.3-90.8c-9.6-29.7-18.6-59.3-33-87.1
						c-13.5-26.1-29.9-50.5-46.2-74.9c-17.8-26.7-36.3-53.1-53.4-80.2c-6.3-10-8-22.4,2.1-30.6c8.2-6.7,19.5-8.2,29.8-8.3
						c28.1-0.5,57.1,1.4,83.2,12.8c22.5,9.9,41.4,26.9,51,49.7c0.5,1.2,0.6,2.3,0.3,3.2c6.6,8.5,12.8,17.4,18.8,26.2
						c8.5,12.2,17.1,24.4,25.8,36.4c17.2,23.8,35.4,46.8,53.8,69.6C906.8,616.3,938.6,656,958.4,702.3z M960,817.8
						c7.5-46-7.3-93.7-29.2-133.7c-23.1-42-54.3-78.5-84-115.8c-15.9-20-31.4-40.4-46.2-61.2c-14.7-20.6-30.4-41.8-40.5-65.2
						c-1-2.3-0.3-4.8,1.1-6.5c-11.4-18.5-31.1-31.1-51.6-37.6c-14.6-4.6-29.8-6.5-45-7.1c-12.3-0.5-26.8-1.7-38.6,2.9
						c-3.4,1.3-7.2,3.4-8.5,7c-2,5.5,3,11.5,5.9,15.8c8.1,12.2,16.3,24.4,24.4,36.6c15.8,23.8,31.9,47.4,47.3,71.4
						c14.6,22.8,28,46.3,38.3,71.4c10.7,26.3,18.5,53.8,27.2,80.9c9.1,28.4,18.2,56.8,27.2,85.2C796,787.7,805,813.8,809,841
						c3.8,25.6,2.4,51.4-8.3,75.3c-5.1,11.3-11.7,21.9-16.6,33.3c-2.7,6.2-5.4,13.2-5.9,20.1c-0.2,2.7-0.1,6.2,1.9,8.3
						c0.8,0.8,1.9,1.5,3.1,1.8c1.7-0.5,3.4-1,5.2-1.6c0.3-0.1,0.5-0.2,0.8-0.2c1.4-0.4,2.8-0.9,4.2-1.3c6.5-1.9,12.8-3.8,19.1-6.3
						c10.7-4.3,21.1-9.3,31.2-14.6c20.1-10.6,39.4-22.9,56.6-37.9C930.5,891.6,953.5,857.8,960,817.8z"/>
				</g>
				<g>
					<path class="st1" d="M930.8,684c22,40,36.8,87.7,29.2,133.7c-6.5,40-29.5,73.8-59.7,100.1c-17.2,14.9-36.5,27.3-56.6,37.9
						c-10.2,5.3-20.6,10.3-31.2,14.6c-6.3,2.5-12.6,4.4-19.1,6.3c-1.4,0.4-2.8,0.8-4.2,1.3c-0.3,0-0.5,0.1-0.8,0.2
						c-1.7,0.5-3.4,1.1-5.2,1.6c-1.2-0.3-2.3-0.9-3.1-1.8c-2-2.1-2.1-5.6-1.9-8.3c0.5-6.8,3.2-13.9,5.9-20.1
						c4.9-11.4,11.6-22,16.6-33.3c10.7-23.9,12.1-49.6,8.3-75.3c-4-27.2-13-53.3-21.3-79.4c-9-28.4-18.1-56.8-27.2-85.2
						c-8.7-27-16.5-54.6-27.2-80.9c-10.3-25.1-23.7-48.6-38.3-71.4c-15.4-24.1-31.5-47.7-47.3-71.4c-8.1-12.2-16.3-24.4-24.4-36.6
						c-2.9-4.3-7.9-10.2-5.9-15.8c1.3-3.6,5.1-5.7,8.5-7c11.8-4.5,26.2-3.3,38.6-2.9c15.2,0.6,30.4,2.5,45,7.1
						c20.5,6.4,40.2,19.1,51.6,37.6c-1.4,1.7-2.1,4.2-1.1,6.5c10.1,23.4,25.8,44.6,40.5,65.2c14.9,20.8,30.3,41.2,46.2,61.2
						C876.4,605.5,907.7,642.1,930.8,684z"/>
				</g>
			</g>
		</g>
		<g id="XMLID_3_">
			<g>
				<g>
					<g>
						<path d="M825.7,879.9c0.7,23.2,1.4,47.9-6.1,70.2c-6.7,20-23.8,44.3-47.9,40.6c-10.3-1.6-21-9.8-21.1-21
							c-0.1-5,1.6-10.7,4.4-14.8c0.6-0.9,1.3-1.8,2-2.6c5.4-13.8,10.8-27.7,13.3-42.4c3.2-19.1,2.6-39,0.7-58.2
							c-3.7-36.8-12-73.5-21.2-109.3c-9.6-37-21.5-73.4-35.4-109c-13.9-35.5-29.9-70.2-47.9-103.8c-9-16.7-18.5-33.1-28.3-49.4
							c-5-8.2-10.1-16.4-15.4-24.5c-2.7-4.2-5.4-8.3-7.9-12.6c-0.7-1.2-1.6-2.5-2.1-3.8c-6.5-8-10.5-19-7.9-28.4
							c1.8-6.4,7.5-10.2,14.1-9.4c3,0.4,5.5,1.6,7.5,3.9c0.4,0.5,0.7,0.9,0.9,1.5c37,38.1,67.8,83.1,94.5,128.7
							c49.1,83.8,84,176.1,97.6,272.5C822.8,832,824.9,855.9,825.7,879.9z M810.9,900c0.4-89.7-19.5-178.5-53.2-261.4
							c-16.8-41.5-37.3-81.6-60.4-119.9c-21.2-35.2-45.3-68.3-69.3-101.6c-0.2,0-0.5,0-0.8-0.1c-1.5-0.5-2.7-1-3.9-1.9
							c-1.3-1-2-2.5-3.6-3.1c-4-1.6-4.5,3.1-4.2,6c0.5,4.2,2,8.1,4,11.8c1.5,0.2,2.9,0.6,4.3,1.9c2,1.9,3.8,4.7,5.4,7
							c3.1,4.2,6,8.6,8.9,13c6.1,9.2,12.1,18.6,17.9,28.1c11.3,18.7,22,37.8,32,57.3c36,69.9,63.5,144.1,81.8,220.6
							c8.7,36.5,16.7,74.1,18.3,111.6c0.8,17.5-0.2,35.3-4,52.4c-3,13.3-7.6,26.4-16.1,36.8c-0.4,1.5-0.8,3-1.3,4.4
							c-1.3,4-2.7,7.1,1,10.1c8.8,7,19.8-0.3,25.9-7.1C809.6,948.4,810.8,922.3,810.9,900z"/>
					</g>
				</g>
				<g>
					<g>
						<path class="st0" d="M757.8,638.6c33.6,82.9,53.6,171.7,53.2,261.4c-0.1,22.3-1.4,48.4-17.1,65.9c-6.1,6.8-17.1,14.1-25.9,7.1
							c-3.7-3-2.4-6.1-1-10.1c0.5-1.4,0.9-2.9,1.3-4.4c8.5-10.4,13.1-23.5,16.1-36.8c3.8-17.2,4.8-34.9,4-52.4
							c-1.6-37.6-9.6-75.2-18.3-111.6c-18.2-76.5-45.7-150.7-81.8-220.6c-10-19.5-20.7-38.6-32-57.3c-5.7-9.5-11.7-18.8-17.9-28.1
							c-2.9-4.4-5.8-8.8-8.9-13c-1.7-2.2-3.4-5.1-5.4-7c-1.3-1.2-2.8-1.6-4.3-1.9c-2-3.7-3.5-7.6-4-11.8c-0.3-2.8,0.2-7.6,4.2-6
							c1.6,0.6,2.3,2.1,3.6,3.1c1.2,1,2.4,1.5,3.9,1.9c0.2,0.1,0.5,0.1,0.8,0.1c24,33.3,48.1,66.4,69.3,101.6
							C720.5,557.1,741,597.2,757.8,638.6z"/>
					</g>
				</g>
			</g>
			<g>
				<g>
					<g>
						<path d="M685,515c1.4,4.6,3.3,9,5.4,13.3c2.1,4.4,4,8.4,8.5,10.6c2.1,1,4.6-0.2,4.6-2.7c0.2-5.1-2.5-8.5-5.4-12.5
							c-2.9-3.9-6-7.6-9.4-11C687.3,511.2,684.3,512.8,685,515L685,515z"/>
					</g>
				</g>
			</g>
			<g>
				<g>
					<g>
						<path d="M722.4,580.1c-0.9,4.1,1.5,9.5,2.8,13.4c1.7,5.1,4.3,10,6.9,14.7c1,1.8,3.7,3.1,5.7,2.3c0.4-0.2,0.9-0.3,1.2-0.5
							c2.4-1.5,3.1-4.4,1.8-6.9c-2.3-4.7-4.8-9.5-7.8-13.8c-2.3-3.3-4.7-8.2-8.3-10.1C723.8,578.7,722.6,579.1,722.4,580.1
							L722.4,580.1z"/>
					</g>
				</g>
			</g>
			<g>
				<g>
					<g>
						<path d="M750.7,653.5c0.8,6.5,4,13.2,6,19.5c1.1,3.5,2.2,6.9,3.2,10.4c0.9,3.4,1.1,5.2,4.1,7.1c1.6,1,4.1,0.4,4.9-1.3
							c2.9-5.7-1.9-14-4.2-19.4c-2.4-5.9-5.6-13.5-10.2-17.9C753.2,650.7,750.4,651.5,750.7,653.5L750.7,653.5z"/>
					</g>
				</g>
			</g>
			<g>
				<g>
					<g>
						<path d="M775.6,735.4c0.1,6.2,1.7,12.5,2.9,18.6c1.1,5.3,1.4,11.9,7.2,13.8c1.4,0.5,3.1-0.3,3.8-1.6c3.1-5-1.1-10.7-3.1-15.5
							c-2.3-5.5-3.9-11.3-6.5-16.6C779,732,775.6,733.1,775.6,735.4L775.6,735.4z"/>
					</g>
				</g>
			</g>
			<g>
				<g>
					<g>
						<path d="M792.4,815.3c-0.7,6.5-1.1,13.7-0.2,20.2c0.6,3.9,2.8,7.3,6.9,7.7c1.7,0.2,2.9-1.8,2.5-3.2c-2.2-8.3-2.3-17-5-25.2
							C795.9,812.4,792.7,813,792.4,815.3L792.4,815.3z"/>
					</g>
				</g>
			</g>
			<g>
				<g>
					<g>
						<path d="M799.1,903.8c-1.1,5.8-2.2,11.6-3.5,17.4c-0.3,1.3-0.1,3,1,3.9c1.4,1.1,2.2,1.4,3.9,1c1.3-0.3,2.5-1.5,2.8-2.8
							c1.5-6.8,1.6-12.8-0.2-19.5C802.7,901.8,799.5,901.6,799.1,903.8L799.1,903.8z"/>
					</g>
				</g>
			</g>
		</g>
		<g>
			<g>
				<g>
					<path d="M193.3,865.8c2,0,2-3.1,0-3.1C191.3,862.8,191.3,865.8,193.3,865.8L193.3,865.8z"/>
				</g>
			</g>
		</g>
		<g id="XMLID_2_">
			<g>
				<g>
					<g>
						<path d="M777.3,430.3c0.2,1.1,0.2,2.3,0,3.5c-1,6.4-6.6,10.8-12.7,11.9c-7,1.3-13.4-2.1-19.2-5.6c-11.6-6.9-23.6-13-36.2-17.6
							c-12.8-4.7-25.9-8.3-39.3-10.6c-6.8-1.2-13.6-2.2-20.6-2.5c-7-0.4-14.3,0.4-21.2-0.5c-1.1-0.1-2.1-0.5-2.9-1.1
							c-5.9-1.3-11.9-8-14-12.5c-1.8-3.8-1.9-8.5,0.9-11.8c0.3-0.3,0.6-0.7,1-1c0-0.8,0.4-1.6,1.4-1.9c33-10.8,70.1-7.3,103.2,1.6
							c15.7,4.2,32.6,9.1,45.3,19.6C770.2,407.9,778.9,420.2,777.3,430.3z M761.4,429.1c0.2-0.1,0.4-0.2,0.6-0.3
							c-0.9-2.1-1.8-4.2-3-6.3c-3-5.4-7.7-9.4-13.1-12.5c-12.3-7.2-27-11.1-40.7-14.4c-28.2-6.9-56.8-8.5-85.5-10.7
							c-0.9,1.2-1.7,2.7-1.8,3.3c-0.5,2.5,1.3,4.9,2.9,6.7c1.5,1.7,3.2,2.7,5,3.6c0.7-0.5,1.4-0.5,2.1-0.1c0.2-0.1-2.9-3.8-2.7-3.9
							c1.6-0.8,7.3-0.5,9-1c3.3-1,7.1,1.9,10.5,1.5c6.5-0.7,11.5-0.7,18,0c13,1.4,26.5,3.7,39,7.5c12.5,3.8,24.8,8.8,36.5,14.6
							c5.8,2.9,11.4,6.2,17,9.5C756.6,427.2,759.8,429.5,761.4,429.1z"/>
					</g>
				</g>
				<g>
					<g>
						<path class="st0" d="M762,428.8c-0.2,0.1-0.4,0.2-0.6,0.3c-1.6,0.4-4.8-1.9-6.1-2.7c-5.6-3.3-11.2-6.6-17-9.5
							c-11.7-5.9-23.6-12.3-36.5-14.6c-50.5-9-75-6.7-76.5-6c-0.2,0.1,2.9,1.8,2.7,1.9c-0.6-0.3-4.7-2.9-2.1,0.1
							c-1.8-0.9-3.5-1.9-5-3.6c-1.6-1.7-3.5-4.2-2.9-6.7c0.1-0.6,0.9-2.1,1.8-3.3c28.7,2.2,57.3,3.8,85.5,10.7
							c13.7,3.4,28.4,7.2,40.7,14.4c5.3,3.1,10,7.1,13.1,12.5C760.2,424.6,761.1,426.7,762,428.8z"/>
					</g>
				</g>
			</g>
		</g>
		<g>
			<g>
				
					<ellipse transform="matrix(0.9952 -9.781205e-02 9.781205e-02 0.9952 -35.8208 60.0297)" class="st8" cx="594.3" cy="395.4" rx="30" ry="30"/>
			</g>
		</g>
		<g>
			<g>
				<path d="M597.8,430.2c-19.2,1.9-36.4-12.2-38.3-31.4c-1.9-19.2,12.2-36.4,31.4-38.3c19.2-1.9,36.4,12.2,38.3,31.4
					C631.1,411.1,617,428.3,597.8,430.2z M591.9,370.5c-13.7,1.3-23.8,13.6-22.4,27.3s13.6,23.8,27.3,22.4
					c13.7-1.3,23.8-13.6,22.4-27.3C617.9,379.2,605.6,369.1,591.9,370.5z"/>
			</g>
		</g>
		<g id="XMLID_11_">
			<g>
				<g>
					<g>
						<path class="st4" d="M441.6,424.5c2.9,6.5,5.7,13.2,8.3,19.8c-5.9,1.7-11.6,3.8-17,6.8c-4.2-10.7-9.3-21.1-15.1-31.1
							c5.6-3.4,11.4-6.4,17.2-9.1C436.9,415.7,439.7,420.3,441.6,424.5z"/>
					</g>
				</g>
				<g>
					<g>
						<path class="st4" d="M463.7,487.4c0.3,1.3,0.6,2.5,0.9,3.7c-6.6,0.9-13.2,2.4-19.8,4.5c-1.9-12.6-5-25-9.2-37
							c6.2-0.6,12.3-2,18.3-3.4c2.3,6.3,4.3,12.6,6.2,19C461.4,478.6,462.6,483,463.7,487.4z"/>
					</g>
				</g>
				<g>
					<g>
						<path d="M638.9,429.1c4,19.7,5.6,39.9,5,60.1c-0.3,9.4-0.2,19.9-2.4,29.1c-2.2,9-9.5,11.4-17.5,13.6
							c-9.1,2.5-18.3,4.6-27.6,5.2c-6.9,0.4-18.2,0.9-23.9-4.4c-0.4,0-0.7,0-1.1,0c-9.8-0.4-18.4-10.6-23.8-17.9
							c-0.9-1.2-1.8-2.5-2.6-3.8c-32.8-8.9-70.2-17.3-102-2c-3.1,1.5-8.4,0.6-8.9-3.6c-4.1-30.1-13.6-58.5-29.8-84.3
							c-1.8-2.9-0.5-6.6,2.2-8.3c55.4-36.5,127.1-36.4,189.2-19.8c4.7-3,9.4-5.8,14.2-8.6c2-3.5,8.7-2.6,9.3,1.6c0,0.1,0,0.1,0,0.2
							C633.2,394.1,636.1,415.1,638.9,429.1z M627.7,478.3c0.1-16.6-1.1-33.2-3.3-49.6c-1.3-9.3-3.7-18-6.2-26.8
							c-0.4,2.1-0.8,4.2-1.1,6.3c-1.3,7.9-2.8,15.8-4.4,23.6c-3.1,14.9-6.7,29.7-10.8,44.4c-3.7,13.1-7.5,26.2-12.2,39
							c-0.6,1.5-1.2,3.1-1.9,4.6c2.5,0.4,5,0.7,7.4,0.6c7.9-0.3,15.6-2.2,23.3-4.2c1.8-0.5,3.9-0.8,5.7-1.5c0.7-0.3,1.1-0.4,1.3-0.4
							c0-0.1,0.1-0.2,0.2-0.4c1.4-2.9,0.9-8.1,1.2-11.3C627.4,494.5,627.7,486.4,627.7,478.3z M603.1,416.7
							c1.3-6.9,1.8-14.5,3.3-21.6c-15.8,12.8-31.5,25.9-46.5,39.6c-3.9,3.6-7.8,7.2-11.6,10.9c-3.2,3.1-9.4,7.4-9.8,11.9
							c-0.4,4.6,2.2,10.5,3.5,14.9c1.2,4.3,2.6,8.6,4.1,12.8c1.9,5.3,4.2,10.7,7,15.7c0.3,0.2,0.8,0.6,1.1,0.8
							c3.5,0.9,4.6,4.1,3.9,6.8c2.8,3.7,6.3,7.4,10.2,10.1c4.2,2.9,6.2,0.7,8.3-3.5c4.9-9.8,7.4-21.4,10.5-31.8
							c3.2-10.8,6.1-21.6,8.8-32.5C598.5,439.5,601,428.2,603.1,416.7z M549.8,427.8c12.1-10.7,24.7-20.6,38-29.6
							c-48.5-5.9-98.6-8.5-143.9,9c3.2,4.5,5.6,9.8,7.9,14c3.6,6.6,6.9,13.3,9.8,20.1c4.2-1,8.4-2,12.7-2.9c4.7-1,8-2.3,12.2,0.4
							c1.8,1.2,3,4,1.6,6c-3.2,4.4-6.6,4.4-11.8,5.4c-3.4,0.7-6.8,1.4-10.2,2.2c2.5,6.4,4.7,13,6.8,19.5c1.7,5.4,4.6,12,4.8,18.1
							c20-0.7,40.2,2.8,59.9,7.5c-2.3-5.1-4.2-10.5-5.9-15.8c-1.2-3.8-2.3-7.7-3.4-11.6c-1.4-5.2-3.5-11-2.2-16.4
							c1.4-5.8,6.1-9.6,10.2-13.5C540.8,436,545.2,431.8,549.8,427.8z M464.6,491.1c-0.3-1.2-0.6-2.4-0.9-3.7
							c-1.1-4.4-2.3-8.8-3.5-13.2c-1.9-6.4-3.9-12.8-6.2-19c-6.1,1.4-12.1,2.8-18.3,3.4c4.2,12,7.3,24.4,9.2,37
							C451.3,493.5,457.9,492,464.6,491.1z M449.9,444.4c-2.6-6.7-5.4-13.3-8.3-19.8c-1.9-4.2-4.7-8.8-6.6-13.5
							c-5.8,2.6-11.6,5.6-17.2,9.1c5.9,9.9,10.9,20.3,15.1,31.1C438.3,448.2,444,446.1,449.9,444.4z"/>
					</g>
				</g>
				<g>
					<g>
						<path class="st4" d="M624.4,428.7c2.2,16.4,3.4,33,3.3,49.6c-0.1,8.1-0.3,16.2-1,24.3c-0.3,3.2,0.2,8.4-1.2,11.3
							c-0.1,0.2-0.1,0.3-0.2,0.4c-0.2,0-0.6,0.1-1.3,0.4c-1.8,0.7-3.8,1.1-5.7,1.5c-7.6,2-15.4,3.9-23.3,4.2
							c-2.4,0.1-4.9-0.2-7.4-0.6c0.7-1.6,1.4-3.1,1.9-4.6c4.7-12.8,8.6-25.9,12.2-39c4.1-14.7,7.7-29.5,10.8-44.4
							c1.6-7.9,3.1-15.7,4.4-23.6c0.4-2.1,0.8-4.2,1.1-6.3C620.8,410.7,623.2,419.4,624.4,428.7z"/>
					</g>
				</g>
				<g>
					<g>
						<path class="st4" d="M606.4,395.1c-1.5,7.1-2,14.7-3.3,21.6c-2.2,11.4-4.6,22.8-7.3,34.1c-2.6,10.9-5.6,21.7-8.8,32.5
							c-3.1,10.4-5.7,22.1-10.5,31.8c-2.1,4.2-4,6.4-8.3,3.5c-3.9-2.7-13.1-11.7-14.1-16.9c-0.3-0.2-0.8-0.6-1.1-0.8
							c-2.8-5-5.1-10.3-7-15.7c-1.5-4.2-2.8-8.5-4.1-12.8c-1.3-4.4-3.9-10.3-3.5-14.9c0.4-4.5,6.6-8.8,9.8-11.9
							c3.8-3.7,7.7-7.3,11.6-10.9C575,421.1,590.6,407.9,606.4,395.1z"/>
					</g>
				</g>
				<g>
					<g>
						<path class="st4" d="M587.8,398.2c-13.3,9-25.9,18.8-38,29.6c-4.6,4-9,8.2-13.4,12.4c-4.1,3.9-8.8,7.8-10.2,13.5
							c-1.3,5.5,0.8,11.2,2.2,16.4c1.1,3.9,2.1,7.8,3.4,11.6c1.7,5.3,3.6,10.6,5.9,15.8c-19.7-4.7-39.9-8.2-59.9-7.5
							c-0.3-6.1-3.2-12.7-4.8-18.1c-2-6.6-4.3-13.1-6.8-19.5c3.4-0.7,6.8-1.5,10.2-2.2c5.2-1,8.5-1,11.8-5.4c1.4-2,0.2-4.8-1.6-6
							c-4.2-2.7-7.5-1.4-12.2-0.4c-4.2,0.9-8.5,1.9-12.7,2.9c-3-6.8-6.2-13.5-9.8-20.1c-2.3-4.2-4.8-9.5-7.9-14
							C489.1,389.7,539.3,392.3,587.8,398.2z"/>
					</g>
				</g>
				<g>
					<g>
						<path d="M532.7,453.2c-0.2,0-0.4-0.1-0.5-0.1c-0.9-0.2-1.7,0.2-2.3,0.9c-0.2,0.2-0.3,0.4-0.5,0.6c-0.5,0.7-0.3,1.7,0,2.4
							c1.4,3.2,4.8,2.2,7.5,1.4c5.4-1.5,10.9-2.3,16.6-2.7c10.8-0.7,21.7-0.2,32.5,0.5c5.2,0.3,8.3,0.9,12.1,4.5
							c4.3,4,8.6,8.1,12.8,12.2c4.3,4.1,8.5,8.2,12.8,12.2c3.8,3.7,7.5,8.7,13.2,8.7c2,0,3.9-1.7,3.8-3.8c-0.2-5.6-4.6-8.6-8.3-12.2
							c-4.3-4.1-8.6-8.1-12.8-12.2c-4.3-4.1-8.6-8.1-12.9-12.1c-3.5-3.3-7-6.5-11.9-7.5c-4.9-0.9-10.2-0.6-15.2-0.6
							c-5.4,0-10.9,0.1-16.3,0.6c-5.1,0.5-10.3,1.2-15.3,2.5c-2.6,0.7-5.1,1.4-7.7,2.4c-1.1,0.4-2.2,0.9-3.3,1.3
							c-2.2,0.9-2.1,0.9-3.4,3.3C534.1,454.6,533.7,453.5,532.7,453.2L532.7,453.2z"/>
					</g>
				</g>
			</g>
			<g>
				<g>
					<path d="M409.4,416.9c-0.9-2.5-3.8-2.2-5.2-0.3c-2.2,2.9-3.1,7.7-3.7,11.2c-0.4,2.3,2.6,4.9,4.4,2.6c1.8-2.3,2.3-4.6,2.5-7.5
						c0.1-1.2,0.1-2.4,0.5-3.6c0.5-1.2,1.5-2,2.2-3c0.8-1.1,0-3-1.3-3.2c-3.2-0.5-5.2,1.9-6.1,4.8c-1,3-0.1,6.6-2,9.3
						c1.7,0.4,3.3,0.9,5,1.3c0.2-1.9,0.6-3.7,1.1-5.5c0.3-1.1,0.7-3.8,1.7-4.5c-0.5,0.1-0.9,0.1-1.4,0.2c0.1,0,0.3,0,0.4,0.1
						C408.5,419,409.8,418.1,409.4,416.9L409.4,416.9z"/>
				</g>
			</g>
			<g>
				<g>
					<path d="M422.8,498.5c-0.2,3.4,2.5,6.8,5.1,8.6c2.9,2,6,2.9,9.4,3.4c3.1,0.4,5.8-3.5,4.8-6.3c-1.7-4.6-4.9-8.3-9.1-10.7
						c-5.2-2.9-9.6,4.7-4.7,8c2,1.3,3.4,3.1,4.2,5.3c1.6-2.1,3.2-4.2,4.8-6.3c-4-0.4-6.7-3.9-10.4-5.2
						C424.9,494.5,422.9,496.5,422.8,498.5L422.8,498.5z"/>
				</g>
			</g>
			<g>
				<g>
					<path d="M506.5,386.4c-0.2,4.5,1.1,9,1.8,13.4c0.8,5.2,1.4,10.4,1.9,15.6c0.8,9.2,1.2,18.4,0.9,27.6c-0.2,9.5-1.1,19-2.7,28.4
						c-0.8,4.9-1.8,9.7-3,14.5c-0.9,3.7-2.7,7.5-0.5,11.1c0.7,1,1.9,1.3,3,0.8c3.7-1.8,4.1-6.1,5-9.8c1.2-5.1,2.2-10.2,3-15.4
						c1.5-9.8,2.5-19.6,2.6-29.5c0.2-9.8-0.4-19.7-1.7-29.5c-1.2-8.9-2.3-20.3-7-28.1C509,383.9,506.5,384.6,506.5,386.4
						L506.5,386.4z"/>
				</g>
			</g>
			<g>
				<g>
					<path d="M536,408.7c1.3-2.7-1.2-5.2-3.7-5.7c-2.6-0.6-5.2,0.5-6.6,2.7c-1.1,1.7-0.1,4.8,2.1,5.1c1.8,0.3,3.9,1.5,5.7,0.8
						c-0.6,0-1.3,0-1.9,0c0.7,0.1,1.3,0.4,2,0.4c1.1,0,2.2-0.6,2.8-1.5c1.1-1.9,0-3.6-1.2-5c0.3,0.5,0.6,1.1,0.9,1.6
						c-0.5-2.2-2.5-3.2-4.5-3.4c-1.7-0.2-3,0-4.5,0.8c1.7,1.3,3.4,2.6,5.1,3.9c0.1-0.4,0-0.3-0.2,0.2c0.1-0.2,0.1-0.2,0,0
						c-0.2,0.2-0.2,0.2,0,0.1c-0.4,0.3-0.5,0.3-0.3,0.2c0.2-0.1,0.1-0.1-0.3,0.1c0.1,0,0.3-0.1,0.4-0.1c-0.1,0-0.3,0-0.4,0.1
						c0.1,0,0.3,0,0.4,0c0.3,0,0.3,0,0,0c-0.3,0-0.3,0,0,0c0.3,0.1,0.3,0.1-0.1-0.1c0.1,0,0.1,0.1,0.2,0.1c0.2,0.2,0.5,0.2,0.1,0
						c0.5,0.3,0.8,0.7,1.4,0.8C534.2,410.1,535.6,409.6,536,408.7L536,408.7z"/>
				</g>
			</g>
			<g>
				<g>
					<path d="M502.2,405c-0.1,0.1-0.1,0.2-0.2,0.4c0.5-0.3,1.1-0.6,1.6-0.9c-2.1,0.1-2.9,2.5-3.9,4.1c1.8,0.5,3.5,1,5.3,1.4
						c0.2-3.8-3.4-7.2-7.1-7c-2.6,0.1-4,2.7-2.9,5c0.9,1.7,2,3.4,3.9,4.1c-0.4-0.3-0.9-0.5-1.3-0.8c0.6,0.5,1.1,1.1,1.8,1.4
						c1.6,0.8,3.8-0.1,3.7-2.1c-0.1-2.6-1.3-4.6-2.9-6.6c-0.5,1.8-1,3.7-1.5,5.5c0.4-0.1,0.4-0.1,0,0c0.2,0,0.4,0,0.6,0
						c-0.2,0-0.5-0.1-0.7-0.1c0.3,0.2,0.3,0.2,0.2,0.1c0.1,0.1,0.2,0.3,0.3,0.3c0.2,0.3,0.2,0.4,0.1,0.1c0-0.3,0-0.2,0,0.1
						c0,1.4,1.1,2.6,2.5,2.8c1.3,0.2,2.8-0.6,3.1-2c0.3-1.8,1.5-4.2,0-5.7c0.2,0.6,0.3,1.2,0.5,1.8c0-0.1,0.1-0.3,0.1-0.4
						C506,404.4,503.2,403.1,502.2,405L502.2,405z"/>
				</g>
			</g>
			<g>
				<g>
					<path d="M496.7,442.3c-0.4,0.4-0.6,0.8-0.8,1.3c0.3-0.4,0.6-0.7,0.9-1.1c-1.8,1.2-1.4,3.1-0.2,4.6c-0.2-0.4-0.4-0.7-0.6-1.1
						c1,2.9,5,3.8,7.1,1.6c1.8-1.8,1.2-4.5-0.9-5.8c-1.1-0.7-2.6-0.8-3.9-0.4c-2.8,0.9-4.8,4.2-3.3,7c0.8,1.4,2.3,2.4,3.8,2.7
						c1,0.2,2,0.1,2.9-0.3c0.7-0.2,0.9-0.4,1.4-0.9c-0.6,0.4,0.6-0.5,0.7-0.6c1.4-1.4,0.4-4-1.6-4c-0.2,0-0.9-0.1-0.1,0.1
						c0.9,0.2-0.3-0.2-0.5-0.2c-0.3-0.1-0.4-0.2-0.1,0c-0.1-0.1-0.3-0.1-0.5-0.2c-0.2-0.1-0.4-0.2-0.6-0.3c-0.2-0.1-0.4-0.4-0.1,0
						c0.2,0.3,0.4,0.6,0.5,1c0,0.2,0,0.4,0.1,0.6c0-0.2,0-0.2,0,0.2c0,0.2,0,0.4-0.1,0.6c-0.1,0.3-0.2,0.3-0.1,0.2
						c0.1-0.2,0.4-0.6-0.2,0.2c0.1-0.1,0.2-0.2,0.2-0.2c-0.1,0.1-0.7,0.4-0.2,0.2c0.3-0.2-0.7,0.3-0.4,0.1c0.5-0.2-0.2,0-0.4,0
						c0,0-0.9-0.2-0.5-0.1c-0.5-0.1-1-0.5-1.3-0.9c-0.1-0.8-0.2-1.7-0.3-2.5c-0.1,0.3,0,0.2,0.2-0.3c0.2-0.3,0.4-0.5,0.7-0.7
						c-0.3,0.1-0.1,0.1,0.3-0.1c-0.3,0.1-0.2,0.1,0.3,0c-0.1,0-0.2,0-0.3,0c0.5,0.1,0.6,0.1,0.3,0c-0.3-0.2-0.8-0.2-1.1-0.2
						c0.4,0.1,0.8,0.2,1.2,0.3c-0.3-0.2,0,0,0.1,0.1c-0.4-0.4,0.5,0.5-0.1-0.1c-0.5-0.5-0.8-0.7-1.4-0.9c0.5,0.6,0.9,1.2,1.4,1.8
						c0-0.4-0.1,0.3,0-0.1C500.2,442.4,497.8,441,496.7,442.3L496.7,442.3z"/>
				</g>
			</g>
			<g>
				<g>
					<path d="M498.2,481c0-0.3,0-0.6-0.1-1c-0.1-0.6-0.4-1.1-0.7-1.6c-0.1-0.1-0.2-0.3-0.2-0.4c0.1,0.2,0.1,0.2,0,0
						c-0.1-0.2-0.1-0.4-0.2-0.6c-0.1-0.4,0,0.6,0-0.1c-0.1-1.8-1.7-3.2-3.5-2.7c-3.6,1-3,6.4,0.5,7.1c1.9,0.4,3.7-0.7,4.3-2.6
						c0.5-1.5-0.2-3.3-1.4-4.3c-3-2.6-7.2,0-7.1,3.7c0.1,1.7,1.1,3.4,2.6,4.2c0.8,0.4,1.7,0.7,2.6,0.7c0.6,0,1-0.2,1.6-0.4
						c-0.6,0.2,0.3-0.1,0.4-0.1c1-0.4,1.7-1.1,1.7-2.2c0-1-0.7-2-1.7-2.2c-0.3-0.1-0.6-0.2-0.9-0.3c0.4,0.2,0.8,0.4,1.1,0.7
						c-0.4-0.4-0.8-0.6-1.3-0.9c-0.1-0.1-0.3-0.2-0.4-0.2c-0.5-0.2,0.2,0.2,0,0c-0.1-0.1-0.1-0.1,0,0c0.1,0.1,0.2,0.3,0.3,0.5
						c-0.2-0.5,0.1,0.2,0,0.2c-0.1,0,0.2-0.8,0-0.2c0,0.1-0.3,0.8-0.1,0.4c-0.5,0.7-1.3,1-2.1,0.7c-0.3-0.1-0.5-0.3-0.7-0.6
						c0.2,0.3,0-0.1-0.1-0.2c-0.2-0.7-0.1-1.2,0.5-1.6c0.2-0.6,0.7-0.8,1.3-0.7c0.7-0.1,1.1-0.2,1.6,0.3c0.1,0.1,0.4,0.5,0.2,0.2
						c0.6,1.1,0,2.5-1.4,3c-1.2-0.9-2.3-1.8-3.5-2.7c0.1,1.3,0.5,2.6,1.2,3.7c0.5,0.7,1,1.3,1.8,1.7c0.7,0.3,1.5,0.2,2.2,0.1
						C497.5,482.7,498.3,481.8,498.2,481L498.2,481z"/>
				</g>
			</g>
		</g>
		<g id="XMLID_13_">
			<g>
				<g>
					<path d="M662.2,686.1c1.1,10.9-4.8,22.1-10.5,31.5c-4.9,8-11.5,16.1-19.4,22.2c-0.7,1.4-1.8,2.6-3.4,3.4
						c-1.3,0.7-2.8,0.5-4-0.1c-0.4,0.1-0.9,0.1-1.4-0.1c-6.9-3-12.6-9-17.6-14c-5.2-5.2-10.3-10.3-14.6-16.2
						c-8.8-12-14.7-25.8-18.4-39.6c-0.6-2.5,0.5-4.6,2.8-6c11.9-7.6,24.4-15.5,37.7-21.1c2.9-1.2,5.3-1.5,7.2-1.1
						c6.8-3.6,18.2,10.3,21.7,13.9C650.2,666.9,661.1,674.9,662.2,686.1z M649.5,694.7c1.1-4.2,1.5-8.6-0.1-12.8
						c-1.7-4.3-5.6-7.7-8.9-11.1c-3.2-3.4-6.4-6.7-9.7-10c-0.6-0.6-1.1-1.2-1.7-1.8c0.5,3.4,0.8,6.7,1.1,9c1.9,13.2,3,26.6,3.4,39.9
						c0.2,6,0.2,12.1,0.1,18.1C640.6,716.3,646.6,706.2,649.5,694.7z M621.1,722.3c0.1-7.6-0.1-15.2-0.5-22.9
						c-0.4-7.9-1.1-15.9-2.1-23.8c-0.5-3.8-1-7.6-1.5-11.4c-0.3-1.8-0.3-4.5-0.7-7c-0.4,0.2-0.7,0.3-0.9,0.4
						c-1.8,0.9-3.6,1.8-5.4,2.8c-3,1.6-6,3.2-8.9,4.8c-5.2,2.9-10.4,5.8-15.5,8.8c3.2,11.9,8.3,23.1,14.8,34
						c3.4,5.8,6.9,11.6,11.3,16.9c2.6,3.2,5.8,6.1,8.7,9.1C620.2,730,621,725.4,621.1,722.3z"/>
				</g>
				<g>
					<path class="st4" d="M649.4,681.9c1.6,4.1,1.2,8.6,0.1,12.8c-2.9,11.4-8.9,21.5-15.6,31.4c0.1-6,0.1-12.1-0.1-18.1
						c-0.4-13.3-1.5-26.7-3.4-39.9c-0.3-2.3-0.6-5.6-1.1-9c0.5,0.6,1.1,1.2,1.7,1.8c3.2,3.3,6.5,6.6,9.7,10
						C643.8,674.3,647.8,677.6,649.4,681.9z"/>
				</g>
				<g>
					<path class="st4" d="M620.5,699.4c0.4,7.6,0.6,15.2,0.5,22.9c0,3.1-0.8,7.7-0.6,11.9c-3-3-6.1-5.9-8.7-9.1
						c-4.4-5.3-7.9-11.1-11.3-16.9c-6.5-10.9-11.6-22.1-14.8-34c5.1-3,10.3-5.9,15.5-8.8c3-1.6,5.9-3.2,8.9-4.8
						c1.8-0.9,3.6-1.9,5.4-2.8c0.2-0.1,0.5-0.2,0.9-0.4c0.4,2.4,0.4,5.2,0.7,7c0.5,3.8,1.1,7.6,1.5,11.4
						C619.4,683.5,620.1,691.5,620.5,699.4z"/>
				</g>
			</g>
		</g>
		<g>
			<g>
				<path d="M433.8,670.9c10.3,12.4,16.1,27.4,20.2,42.9c4.6,17.3,7.5,35.2,9.4,53c4.1,37.4,3.3,75.4-2.9,112.5
					c-1.1,6.8,9.3,9.7,10.4,2.9c6.3-39.5,7.5-79.6,2.5-119.2c-4.1-32.6-9.6-72.6-37-94.6C434.6,666.9,432.3,669.1,433.8,670.9
					L433.8,670.9z"/>
			</g>
		</g>
		<g>
			<g>
				<path d="M132.1,749.3c1.9-16.8,12.4-32.8,28.4-39.1c7.6-2.9,15.7-3.6,23.7-2.2c4.2,0.8,8.2,2.1,12.1,3.9c3.8,1.7,7.7,2.7,11.7,4
					c2.8,1,5.2-2.5,3.8-4.9c-2.7-4.6-5.7-8.2-10.6-10.4c-4.9-2.2-10-3.6-15.4-4.3c-10-1.3-20.9,0.3-30,4.8
					c-17.7,8.8-29.6,28.4-28.1,48.2C127.9,752.2,131.8,752.1,132.1,749.3L132.1,749.3z"/>
			</g>
		</g>
		<g>
			<g>
				<path d="M464.8,734.5c1.3-5.6-7.3-12.8-11.3-15.8c-6.2-4.7-13.1-7.9-20.9-9.1c-8.1-1.2-16.7-0.3-24.3,2.5
					c-6.3,2.3-15.7,7.3-9.6,14.9c1.4,1.7,5,1.3,5.9-0.8c-0.2,0.5,1.4-0.6,2-1c1.3-0.7,2.5-1.4,3.8-2c2.8-1.3,5.8-2.2,8.9-2.7
					c5.7-1.1,12-0.9,17.7,0.5c5.3,1.3,10.2,3.5,14.8,6.5c3.6,2.3,7.1,7.7,11.3,8.2C463.9,735.8,464.6,735.1,464.8,734.5L464.8,734.5
					z"/>
			</g>
		</g>
		<g>
			<g>
				<path d="M675.3,700.2c1.5,0,3.1-0.7,4.2-1.7c1-1,1.8-2.7,1.7-4.2c-0.1-1.5-0.6-3.1-1.7-4.2c-1.2-1.1-2.6-1.7-4.2-1.7
					c-1.5,0-3.1,0.7-4.2,1.7c-1,1-1.8,2.7-1.7,4.2c0.1,1.5,0.6,3.1,1.7,4.2C672.3,699.6,673.7,700.2,675.3,700.2L675.3,700.2z"/>
			</g>
		</g>
		<g>
			<g>
				<path d="M705.3,731.3c7.7,0,7.7-12,0-12C697.6,719.3,697.6,731.3,705.3,731.3L705.3,731.3z"/>
			</g>
		</g>
		<g>
			<g>
				<path d="M724.1,768.7c2-0.6,3.4-2.2,3.7-4.2c0.2-1.5-0.2-3.2-1.4-4.3c-1-0.9-2.2-1.5-3.6-1.5c-1.3,0-2.7,0.6-3.6,1.5
					c-1,1-1.4,2.3-1.5,3.6C717.5,767.1,721.1,769.6,724.1,768.7L724.1,768.7z"/>
			</g>
		</g>
		<g>
			<g>
				<path d="M181,465c5.6,0,5.6-8.7,0-8.7C175.3,456.3,175.3,465,181,465L181,465z"/>
			</g>
		</g>
		<g>
			<g>
				<path d="M171.6,492.9c1.3,0,2.6-0.6,3.5-1.4c0.9-0.9,1.5-2.3,1.4-3.5c-0.1-2.7-2.2-4.9-4.9-4.9c-1.3,0-2.6,0.6-3.5,1.4
					c-0.9,0.9-1.5,2.3-1.4,3.5C166.8,490.7,168.8,492.9,171.6,492.9L171.6,492.9z"/>
			</g>
		</g>
		<g>
			<path d="M348.3,968.5c-1.6,4.3-1,9.4-1.2,13.9c-0.2,4.8-0.6,9.6-1.4,14.3c-1.7,9.4-5.2,18.5-8.7,27.3
				c-3.2,7.9,10.4,13.7,13.9,5.9c4.5-10.1,6.8-20.4,8.3-31.3c1.3-9.3,3.4-22.7-1.5-31.2C355.3,963.2,349.7,964.5,348.3,968.5
				L348.3,968.5z"/>
		</g>
		<g>
			<path d="M392.4,970.7c-0.7,12.5,0.6,24.8-2.3,37.1c-2.7,11.7-5.6,23.3-10.4,34.3c-3,6.8,4.4,13,10.3,8c4.7-3.9,4.9-13.2,6.1-18.8
				c1.5-6.7,2.7-13.5,2.9-20.4c0.5-13.3,1.9-27.9-1.4-40.9C397,966.9,392.6,967.7,392.4,970.7L392.4,970.7z"/>
		</g>
		<g>
			<path d="M373.9,996.6c1,1.6,2.4,2.7,4.4,2.7c0.1,0,0.1,0,0.2,0c0.2,0,0.2,0,0-0.1c-0.4-0.2-0.2-0.2,0.7,0c0.3,0,0.7-0.1,1-0.1
				c-0.5,0-1,0-1.5,0c0.1,0,0.1,0,0.2,0c1.3,0.3,2.9-0.4,3.2-1.8c0,0.1-0.1,0.2-0.1,0.3c0.3-0.8,0.4-1,0.3-0.6
				c-0.1,0.3-0.1,0.2,0.1-0.3c0.1-0.2,0.2-0.4,0.3-0.6c-0.1,0.3-0.3,0.7-0.4,1c1.1-1.7,0.9-3.7-0.1-5.3c-0.7-1-1.6-1.8-2.8-2.2
				c-1.1-0.3-2.6-0.2-3.6,0.5C373.5,991.5,372.5,994.4,373.9,996.6L373.9,996.6z"/>
		</g>
		<g>
			<path d="M373.6,1017.3c0.5,0.5,1.1,1,1.8,1.1c-0.7-0.5-1.3-1-2-1.5c0.3,0.7,0.8,1.2,1.4,1.6c0.8,0.5,2.1,0.5,2.9,0
				c0.6-0.4,1.1-0.9,1.4-1.6c-0.7,0.5-1.3,1-2,1.5c0.7-0.1,1.3-0.6,1.8-1.1c1.1-1.1,1.4-2.7,0.8-4.1c-0.6-1.3-1.9-2.4-3.4-2.3
				c-1.3,0.1-2.6,0.7-3.3,1.9C372.2,1014.2,372.4,1016.1,373.6,1017.3L373.6,1017.3z"/>
		</g>
		<g>
			<path d="M411.6,1017.7c1.1,0,2.3-0.5,3.1-1.3c0.8-0.8,1.3-2,1.3-3.1c-0.1-2.4-1.9-4.4-4.4-4.4c-1.1,0-2.3,0.5-3.1,1.3
				c-0.8,0.8-1.3,2-1.3,3.1C407.3,1015.7,409.2,1017.7,411.6,1017.7L411.6,1017.7z"/>
		</g>
		<g>
			<path d="M415.6,997.2c6.8,0,6.8-10.5,0-10.5C408.9,986.7,408.9,997.2,415.6,997.2L415.6,997.2z"/>
		</g>
		<g>
			<path d="M511.7,928.7c7.7,2.4,13.5,4.9,18.2,11.9c3.8,5.7,6,13,10.8,17.9c1.6,1.7,4.6,0.4,4.6-1.9c0-8.3-6.8-17.6-12.3-23.5
				c-5.3-5.6-13.4-9.7-21.3-8.2C509.7,925.2,510,928.2,511.7,928.7L511.7,928.7z"/>
		</g>
		<g>
			<path d="M525.6,959.3c4.3,0,4.3-6.7,0-6.7C521.3,952.7,521.3,959.3,525.6,959.3L525.6,959.3z"/>
		</g>
		<g>
			<path d="M516,945.1c0,0.1,0.1,0.1,0.1,0.2c1.3,2,4.6,1.3,4.6-1.3c0-2.6-3.3-3.2-4.6-1.3c0,0.1-0.1,0.1-0.1,0.2
				C515.6,943.5,515.6,944.5,516,945.1L516,945.1z"/>
		</g>
		<g>
			<path d="M540.3,930.2c4.6,0,4.6-7.2,0-7.2C535.7,923.1,535.7,930.2,540.3,930.2L540.3,930.2z"/>
		</g>
		<g>
			<path d="M547.6,942.3c3.9,0,3.9-6.1,0-6.1C543.7,936.3,543.7,942.3,547.6,942.3L547.6,942.3z"/>
		</g>
		<g>
			<path d="M541.1,909.1c6.4,3.8,12.3,7.3,17.1,13.2c4.4,5.5,7,11.9,11.6,17.3c1.9,2.2,5.1,0.2,5.3-2.2c1.4-15.6-17.7-31-32-33.1
				C540.4,903.9,538.4,907.4,541.1,909.1L541.1,909.1z"/>
		</g>
	</g>
</g>
</svg>
