<?xml version="1.0" encoding="utf-8"?>
<!-- Generator: Adobe Illustrator 21.0.2, SVG Export Plug-In . SVG Version: 6.00 Build 0)  -->
<svg version="1.1" xmlns="http://www.w3.org/2000/svg" xmlns:xlink="http://www.w3.org/1999/xlink" x="0px" y="0px"
	 viewBox="0 0 958.8 1058.4" style="enable-background:new 0 0 958.8 1058.4;" xml:space="preserve">
<style type="text/css">
	.st0{fill:#492011;}
	.st1{fill:#2E3192;}
	.st2{fill:#FFD200;}
	.st3{fill:#006837;}
	.st4{fill:#FFFFFF;}
	.st5{fill:#BD1110;}
	.st6{fill:#005683;}
	.st7{fill:#00709C;}
	.st8{fill:#FF8800;}
	.st9{fill:#57A1BE;}
	.st10{fill:#333333;}
	.st11{fill:#CCCCCC;}
	.st12{fill:#0071BC;}
	.st13{fill:none;}
</style>
<g id="Layer_3">
</g>
<g id="Layer_1">
</g>
<g id="Layer_2">
	<g>
		<g>
			<g>
				<g>
					<path d="M148.4,1058.4c2,0,2-3.1,0-3.1C146.4,1055.3,146.4,1058.4,148.4,1058.4L148.4,1058.4z"/>
				</g>
			</g>
		</g>
	</g>
	<g>
		<g>
			<g>
				<g>
					<g>
						<g>
							<g>
								<path class="st0" d="M284.4,294.4c-4.3,5.9-8.3,12.1-12.1,18.4c-3.5-8-9.5-14.4-16.3-17.9c7.4-5.2,20.8-8.9,27.2-1.7
									C283.6,293.7,284,294.1,284.4,294.4z"/>
							</g>
						</g>
					</g>
				</g>
			</g>
			<g>
				<g>
					<g>
						<g>
							<g>
								<path class="st0" d="M237.1,307.6c9.3-8.2,25.2-0.2,30.5,13.3c-7.3,12.8-14.4,26-22.8,38.2c-12.6,18.3-40.3,17.1-42.8-14.3
									c-2.1-26.4,21.2-35.7,38.2-20.5c2.1,1.8,4.7-1.5,2.7-3.7c-3.1-3.5-6.5-6.1-10.1-8.1C234.2,310.9,235.5,309,237.1,307.6z"/>
							</g>
						</g>
					</g>
				</g>
			</g>
			<g>
				<g>
					<g>
						<g>
							<g>
								<path d="M272.3,312.8c3.8-6.3,7.8-12.5,12.1-18.4c-0.4-0.3-0.9-0.7-1.3-1.2c-6.4-7.3-19.8-3.5-27.2,1.7
									C262.8,298.4,268.8,304.9,272.3,312.8z M240.2,324.3c-17-15.2-40.3-5.9-38.2,20.5c2.5,31.4,30.2,32.7,42.8,14.3
									c8.4-12.2,15.5-25.4,22.8-38.2c-5.3-13.5-21.2-21.5-30.5-13.3c-1.6,1.4-2.9,3.3-4.3,4.9c3.5,2,7,4.7,10.1,8.1
									C244.9,322.8,242.3,326.2,240.2,324.3z M388.9,262.6c-22.6-7.9-48,0.2-63.5,9.8c-19.1,11.9-32.9,29.6-45,48.8
									c-8.1,13-16,34-27.4,48.4c23.7-9.3,40.3-34.8,57.4-57C330,287.4,355.2,269.9,388.9,262.6z M292.6,284.3
									c25.1-28,76.8-56.8,123.4-21.8c8.1,6.1,0.9,15.1-7.1,11.7c-0.5,0.2-1.1,0.3-1.7,0.4c-27.1,3.4-50,12.2-68.1,27.8
									c-15.9,13.8-27,32.6-40.4,48.9c-16,19.6-39,37.7-63.4,32.2c-4.4,1.5-9.2,1.7-14.4,0.2c-22-6.1-34.2-37.1-24.3-59.3
									c5.3-12,15.2-16.9,25.3-15.6c0.9-5,5.2-9.3,8.3-12.3c4.2-4,9.2-4.7,14.8-4.6c0.8,0,1.7,0.1,2.5,0.2
									c7.2-14.6,31.1-20.1,44.7-8.2C292.4,284.1,292.5,284.2,292.6,284.3z"/>
							</g>
						</g>
					</g>
				</g>
			</g>
			<g>
				<g>
					<g>
						<g>
							<g>
								<path class="st0" d="M325.4,272.4c15.5-9.6,40.9-17.7,63.5-9.8c-33.7,7.3-58.9,24.8-78.3,50c-17.1,22.3-33.7,47.7-57.4,57
									c11.3-14.4,19.2-35.4,27.4-48.4C292.5,301.9,306.3,284.3,325.4,272.4z"/>
							</g>
						</g>
					</g>
				</g>
			</g>
		</g>
		<g>
			<g id="XMLID_10_">
				<g>
					<g>
						<g>
							<path d="M882.9,632.4c5.5,6.6,3.1,16.9,2.1,24.6c-2.1,16.1-4.4,34.2-15.4,46.9c-9.5,11-24.5,16.4-38.8,16.8
								c-17.7,0.4-35-6.2-50.4-14.3c-14.5-7.6-28-17.6-38.1-30.5c-9.9-12.6-16.2-28.1-16.7-44.2c-0.5-17.9,8.4-32.6,14.9-48.6
								c1.4-3.3,5.8-3.1,7.2-0.8c-0.1-0.1-0.3-0.3-0.4-0.4c-3.4-3.3-8.2,1.6-5.1,5.1c1.1,1.2,2.2,2.5,3.3,3.7
								c-6.4,14.6-13.6,28.5-12,45.1c1.7,17.4,11.1,33.1,23.5,45c7.8,7.4,16.9,13.6,26.5,18.7c-0.1,1.4,0,2.7,0.6,4
								c0.8,1.9,3.1,2.9,4.8,1.3c0.6-0.6,1.1-1.2,1.5-1.9c2.1,1,4.2,1.9,6.4,2.8c14.6,6.1,31,9.8,46.6,5.6
								c15.4-4.2,25.5-15,29.7-30.2c2.3-8.1,3.5-16.6,4.2-25c0.4-4.3,0.8-8.8,0.6-13.1c-0.2-4.9-2.9-7-7.3-8.4
								c-7.3-2.4-14.9-3.6-22.1-6.4c-6.8-2.7-12.8-6.3-18.5-10.8c-5.8-4.7-11.3-10-18.1-13.3c-2.6-1.3-7.3-3.6-8.8,0
								c-0.8,2-0.4,4.8-0.5,6.9c-0.1,2.6-0.5,5.3-1.7,7.6c0-3.6-0.1-7.1-0.4-10.7c-0.2-1.9-3.2-2.6-3.5-0.5
								c-0.2,1.2-0.4,2.5-0.6,3.7l-1.9-0.3c0.7-5.1-0.7-10.5,3.9-14.5c6.2-5.4,15.3-1.2,21.3,2.5c6.9,4.3,12.6,10.3,19.3,15
								c7.5,5.2,16,8.1,24.7,10.3C870.2,625.7,878.1,626.7,882.9,632.4z"/>
						</g>
					</g>
					<g>
						<g>
							<path class="st1" d="M877.8,642.9c0.2,4.3-0.3,8.8-0.6,13.1c-0.7,8.4-2,16.8-4.2,25c-4.3,15.2-14.3,26.1-29.7,30.2
								c-15.6,4.2-32,0.5-46.6-5.6c-2.1-0.9-4.3-1.8-6.4-2.8c1.5-2.5,1.6-5.6,2.2-8.7c0.7-3.8,1.4-7.7,2-11.6
								c1.3-8,2.3-16.1,3.2-24.2c1.4-13.2,3.2-26.6,3.2-39.9c1.2-2.3,1.6-5,1.7-7.6c0.1-2.1-0.3-4.9,0.5-6.9c1.5-3.5,6.2-1.2,8.8,0
								c6.8,3.3,12.2,8.6,18.1,13.3c5.7,4.5,11.7,8.1,18.5,10.8c7.2,2.8,14.8,4,22.1,6.4C874.9,635.9,877.6,638.1,877.8,642.9z"/>
						</g>
					</g>
					<g>
						<g>
							<path d="M800.8,618.5c0,13.3-1.8,26.8-3.2,39.9c-0.9,8.1-1.8,16.2-3.2,24.2c-0.6,3.9-1.3,7.7-2,11.6
								c-0.6,3.1-0.7,6.1-2.2,8.7c-2.3-1.1-4.6-2.2-6.8-3.4c0.2-2.5,1-5,1.5-7.4c0.8-3.8,1.5-7.7,2.1-11.5c1.4-8,2.8-16,4-24
								c1.7-11,2.4-22.1,3.6-33.2c0.8-0.2,1.5-0.5,2.2-0.8C798.7,621.6,800,620.1,800.8,618.5z"/>
						</g>
					</g>
					<g>
						<g>
							<path d="M800.4,607.8c0.3,3.6,0.4,7.1,0.4,10.7c-0.8,1.7-2.1,3.1-4,4.1c-0.7,0.4-1.4,0.7-2.2,0.8c0.4-4.1,0.9-8.2,1.6-12.3
								c0.2-1.2,0.4-2.5,0.6-3.7C797.2,605.2,800.2,605.9,800.4,607.8z"/>
						</g>
					</g>
					<g>
						<g>
							<path d="M794.3,610.7l1.9,0.3c-0.6,4.1-1.1,8.2-1.6,12.3c-5.5,1.5-12.2-1.4-16.9-3.8c-6.6-3.5-12.3-8.8-17.7-13.9
								c-5.1-4.8-10-9.8-14.8-14.9c0.8-1.9,1.6-3.7,2.4-5.6c0.5-1.1,0.3-2.1-0.1-2.8c7.8,7.4,15.4,15,23.6,22.1
								c3.1,2.7,20.4,16.2,22.7,8.5C794.1,612.2,794.2,611.5,794.3,610.7z"/>
						</g>
					</g>
					<g>
						<g>
							<path class="st1" d="M794.7,623.4c-1.2,11-1.9,22.2-3.6,33.2c-1.2,8-2.6,16-4,24c-0.7,3.8-1.4,7.7-2.1,11.5
								c-0.5,2.4-1.3,4.9-1.5,7.4c-9.6-5.1-18.7-11.3-26.5-18.7c-12.5-11.8-21.9-27.6-23.5-45c-1.6-16.6,5.6-30.5,12-45.1
								c4.7,5.2,9.7,10.1,14.8,14.9c5.4,5.1,11.1,10.3,17.7,13.9C782.4,622,789.2,624.8,794.7,623.4z"/>
						</g>
					</g>
					<g>
						<g>
							<path d="M790.2,702.8c-0.4,0.7-0.9,1.3-1.5,1.9c-1.7,1.6-4,0.7-4.8-1.3c-0.5-1.3-0.7-2.6-0.6-4
								C785.7,700.6,787.9,701.8,790.2,702.8z"/>
						</g>
					</g>
					<g>
						<g>
							<path d="M747.6,582.3c0.5,0.7,0.6,1.7,0.1,2.8c-0.8,1.9-1.5,3.8-2.4,5.6c-1.1-1.2-2.2-2.4-3.3-3.7c-3.1-3.5,1.7-8.4,5.1-5.1
								C747.3,582,747.5,582.1,747.6,582.3z"/>
						</g>
					</g>
				</g>
			</g>
		</g>
		<g>
			<g>
				<g>
					<g>
						<g>
							<g>
								<g>
									<path class="st2" d="M157.8,411.5c-26.7-26.7-56.7-37.8-72.3-13.3s23.3,145.7,100.1,170.1l47.8-96.7
										C233.4,471.6,184.5,438.2,157.8,411.5z"/>
								</g>
							</g>
						</g>
					</g>
				</g>
			</g>
			<g>
				<g id="XMLID_17_">
					<g>
						<g>
							<g>
								<g>
									<path class="st3" d="M247.1,485.6c-7.3,15.9-8.2,33.9-15.3,49.9c-3.5,7.8-8.4,15.1-15.7,19.7c-6.9,4.3-14.8,6.9-21.1,12
										c-10.2-3.3-20.3-6.1-29.3-12.3c-9.4-6.5-17.9-14.4-26-22.5c-8.2-8.1-15.9-16.6-22.6-25.9c-5.2-7.2-9.1-14.9-13.1-22.7
										c5.2-3.1,9.3-7.6,13.5-12c5.8-6.2,11.7-12.3,17.5-18.5c5.8-6.2,11.5-12.5,17.3-18.7c3.1-3.4,6.2-6.7,9.3-10.1
										c1.6-1.7,3.2-3.1,4.2-4.9C188.7,445.8,218.6,465.8,247.1,485.6z"/>
								</g>
							</g>
						</g>
						<g>
							<g>
								<g>
									<path d="M249.1,481.7c0.6,2.1,1.1,4.3,1.7,6.4c-1.2-0.8-2.4-1.7-3.6-2.5C247.7,484.3,248.4,483,249.1,481.7z"/>
								</g>
							</g>
						</g>
						<g>
							<g>
								<g>
									<path d="M197.1,567.9c2.6,0.9,3.1,5.1,0,5.8c-1.7,0.4-3.2,0.6-4.7,0.7c-0.9-1.8-0.9-4,0.7-5.5c0.6-0.6,1.2-1.1,1.9-1.6
										C195.7,567.4,196.4,567.7,197.1,567.9z"/>
								</g>
							</g>
						</g>
						<g>
							<g>
								<g>
									<path d="M195,567.2c-0.6,0.5-1.3,1.1-1.9,1.6c-1.7,1.6-1.6,3.8-0.7,5.5c-4.4,0.3-8.2-0.5-12.9-2.4
										c-5.4-2.2-10.4-5-15.2-8.2c-10.3-6.9-19.6-15.2-28.5-23.9c-8.8-8.7-17.1-18-24.1-28.3c-5.3-7.9-10.6-16.9-13.3-26.3
										c0.5,0.5,1.2,0.7,1.9,0.4c1.3-0.5,2.5-1.2,3.7-1.9c4,7.8,7.9,15.5,13.1,22.7c6.7,9.4,14.4,17.9,22.6,25.9
										c8.1,8,16.6,16,26,22.5C174.7,561.1,184.8,563.9,195,567.2z"/>
								</g>
							</g>
						</g>
						<g>
							<g>
								<g>
									<path d="M163.8,413.9c1.4-0.2,3.1,0.6,3,2.3c-0.1,1.4-0.4,2.5-1,3.4c-0.9-1-1.8-2.1-2.7-3.1c-0.6-0.7-0.6-1.7-0.2-2.4
										C163.2,414,163.5,413.9,163.8,413.9z"/>
								</g>
							</g>
						</g>
						<g>
							<g>
								<g>
									<path d="M163.1,416.5c0.9,1,1.8,2.1,2.7,3.1c-1,1.8-2.6,3.2-4.2,4.9c-3.1,3.4-6.2,6.7-9.3,10.1
										c-5.8,6.2-11.5,12.5-17.3,18.7c-5.8,6.2-11.7,12.3-17.5,18.5c-4.2,4.4-8.3,8.9-13.5,12c-0.8-1.5-1.6-3.1-2.4-4.6
										c10.4-9.7,19.4-21,29.1-31.6c5.5-6,11-12,16.6-18.1c2.9-3.1,5.8-6.3,8.6-9.4c2.2-2.4,3.9-5.2,7.1-6
										C162.5,414.8,162.5,415.8,163.1,416.5z"/>
								</g>
							</g>
						</g>
						<g>
							<g>
								<g>
									<path d="M165.5,413.4c14.8,10.8,28.4,23.1,42.9,34.4c15,11.6,30.6,22.8,47.1,32.3c2.4,1.4,2.7,4.1,1.7,6.4
										c-8,18.1-9.1,38.4-17.8,56.2c-3.9,8-9.5,15.2-16.9,20.2c-7.5,5.1-16.1,8.2-23.5,13.5c-2.6,1.8-5.3,0.3-6.5-2
										c1.5-0.1,3-0.3,4.7-0.7c3.1-0.7,2.6-4.9,0-5.8c-0.7-0.2-1.4-0.5-2.1-0.7c6.3-5.1,14.3-7.7,21.1-12
										c7.3-4.6,12.3-11.9,15.7-19.7c7.1-16,7.9-34,15.3-49.9c1.2,0.9,2.4,1.7,3.6,2.5c-0.6-2.1-1.1-4.3-1.7-6.4
										c-0.7,1.3-1.4,2.6-1.9,3.9c-28.5-19.8-58.4-39.8-81.3-66c0.5-1,0.9-2.1,1-3.4c0.1-1.7-1.6-2.5-3-2.3
										c-0.3,0-0.6,0.1-0.8,0.2C163.4,413.2,164.4,412.6,165.5,413.4z"/>
								</g>
							</g>
						</g>
						<g>
							<g>
								<g>
									<path d="M101.6,479.2c0.8,1.6,1.6,3.1,2.4,4.6c-1.2,0.7-2.4,1.3-3.7,1.9c-0.7,0.3-1.4,0.1-1.9-0.4
										c-0.2-0.8-0.4-1.5-0.6-2.3c0.1-0.3,0.2-0.5,0.5-0.7C99.4,481.2,100.5,480.2,101.6,479.2z"/>
								</g>
							</g>
						</g>
						<g>
							<g>
								<g>
									<path d="M100.4,476.9c0.4,0.8,0.8,1.5,1.2,2.3c-1.1,1-2.2,2-3.3,3c-0.2,0.2-0.4,0.5-0.5,0.7c-0.4-1.5-0.7-3.1-0.9-4.6
										C96.7,476.3,99.3,474.8,100.4,476.9z"/>
								</g>
							</g>
						</g>
						<g>
							<g>
								<g>
									<path d="M97.8,482.9c0.2,0.8,0.4,1.6,0.6,2.3C97.8,484.7,97.5,483.7,97.8,482.9z"/>
								</g>
							</g>
						</g>
					</g>
				</g>
			</g>
			<g>
				<g>
					<g>
						<g>
							<g>
								<g>
									<path d="M190.8,580.5l-8.2-2.6c-23-7.3-44.1-22.7-62.8-45.7c-15.1-18.5-28.2-42.1-36.9-66.2c-4.4-12.3-18-53.8-5.8-73.1
										c6.7-10.5,16.2-16.7,27.6-18c17.8-2,39.2,8.6,60.2,29.6c25.7,25.7,73.7,58.5,74.2,58.8l7.2,4.9L190.8,580.5z M109,394.6
										c-0.7,0-1.4,0-2.1,0.1c-5.2,0.6-9.4,3.5-12.9,8.8c-3.3,5.2-3.1,25.8,7.7,55.5c13.3,36.8,40.8,80.2,79,96.7l40-80.9
										c-14.7-10.4-48.7-35.1-69.9-56.3C135.5,403.4,120.2,394.6,109,394.6z"/>
								</g>
							</g>
						</g>
					</g>
				</g>
			</g>
			<g>
				<g id="XMLID_16_">
					<g>
						<g>
							<g id="XMLID_14_">
								<g>
									<g>
										<g>
											<path class="st4" d="M159.2,402.7c2.9,10-5.3,19.6-10.1,27.7c-9.9,16.6-20.5,38.4-40.1,44.5c-0.9-0.4-1.9-0.4-3-0.4
												c-0.5,0-1-0.1-1.5-0.2c-0.1-0.1-0.3-0.2-0.4-0.3c-3.6-1.9-30.1-16.6-20-21.3c2.9-1.4,7.5,0,10.7-0.4
												c3-0.4,5.7-1.7,7.6-4.2c1.7-2.3,2.2-5,2.5-7.8c0.3-3.4-0.5-8.3,1.8-11.1c2.3-2.9,7.1-1.9,10.4-1.8c3.2,0.1,6.6,0,9.5-1.6
												c6.2-3.4,6.1-10.4,5.8-16.5c-0.1-3.2-0.3-10.2,5.1-7.8c3.2,1.4,4.8,4.4,8.8,4.2c3-0.2,5.2-2.1,6.6-4.6
												c0.6-1,1.2-3.9,2.4-4C157.1,396.7,158.8,401.2,159.2,402.7z"/>
										</g>
									</g>
									<g>
										<g>
											<path d="M109.9,475.5c0.6,0.7,0.9,1.9,0.3,2.7c-2.1,2.9-6.7,1.5-9.5,0.1c0.2-0.7,0.6-1.3,1.2-1.7
												c0.3,0.1,0.5,0.1,0.8,0.2c0.8,0.2,1.6-0.3,1.9-1c1.5-0.3,2.9-0.6,4.2-1C109.3,475,109.6,475.2,109.9,475.5z"/>
										</g>
									</g>
									<g>
										<g>
											<path d="M106,474.4c1.1,0.1,2.1,0,3,0.4c-1.4,0.4-2.8,0.8-4.2,1c0.2-0.5,0.2-1.2-0.2-1.6
												C105,474.3,105.5,474.4,106,474.4z"/>
										</g>
									</g>
									<g>
										<g>
											<path d="M103.7,476c0.4-0.1,0.7-0.1,1.1-0.2c-0.3,0.7-1,1.2-1.9,1c-0.3-0.1-0.5-0.1-0.8-0.2
												C102.5,476.3,103,476.1,103.7,476z"/>
										</g>
									</g>
									<g>
										<g>
											<path d="M103.7,476c-0.7,0.1-1.2,0.3-1.6,0.6c-0.9-0.2-1.8-0.4-2.6-0.7c0.2-1.3,1.5-2.6,3.1-2.2c0.6,0.2,1.3,0.3,2,0.4
												c0.5,0.5,0.5,1.1,0.2,1.6C104.4,475.9,104,476,103.7,476z"/>
										</g>
									</g>
									<g>
										<g>
											<path d="M102.5,473.8c-1.6-0.4-2.9,0.8-3.1,2.2c-5.2-1.6-10-4.1-14.5-7.4c-4.1-2.9-8.6-6.7-9.1-12.2
												c-0.4-4.4,1.8-8.2,6-9.8c4.2-1.6,11.6,1.1,14.8-2.2c2.8-2.8,1.4-9.4,2-13.1c0.6-3.5,2.1-6.9,5.1-8.9
												c3.7-2.4,8.2-2.1,12.5-2c5.2,0.1,9-0.4,9.2-6.4c0.3-7-1.9-16.8,6.9-19.7c2.1-0.7,4.4-0.7,6.5,0c1.8,0.6,3.5,2.7,5.2,3
												c2.8,0.5,2.6-2.3,3.7-4.4c1-1.8,2.4-3.3,4.3-4.1c8.6-3.6,15.8,10.4,16.7,17c1.6,12.1-7.4,23-13.6,32.5
												c-12.2,18.5-25.1,42.2-49.3,45.9c-3.7,0.5-6-3.2-5.2-5.9c2.7,1.4,7.4,2.9,9.5-0.1c0.6-0.8,0.3-2-0.3-2.7
												c-0.3-0.3-0.6-0.6-1-0.7c19.7-6.1,30.2-27.9,40.1-44.5c4.8-8.1,13.1-17.7,10.1-27.7c-0.4-1.5-2.1-6-4.1-5.8
												c-1.2,0.1-1.8,3-2.4,4c-1.4,2.5-3.6,4.4-6.6,4.6c-3.9,0.2-5.6-2.7-8.8-4.2c-5.4-2.4-5.2,4.5-5.1,7.8
												c0.2,6.2,0.4,13.1-5.8,16.5c-2.9,1.6-6.3,1.6-9.5,1.6c-3.2-0.1-8.1-1.1-10.4,1.8c-2.3,2.8-1.4,7.7-1.8,11.1
												c-0.3,2.8-0.8,5.5-2.5,7.8c-1.8,2.5-4.6,3.8-7.6,4.2c-3.2,0.4-7.8-0.9-10.7,0.4c-10.1,4.8,16.4,19.4,20,21.3
												c0.2,0.1,0.3,0.2,0.4,0.3C103.8,474.1,103.2,474,102.5,473.8z"/>
										</g>
									</g>
									<g>
										<g>
											<path d="M100.6,478.3c-1-0.5-1.3-1.5-1.2-2.3c0.8,0.3,1.7,0.5,2.6,0.7c-0.6,0.4-1.1,1-1.2,1.7
												C100.7,478.3,100.7,478.3,100.6,478.3z"/>
										</g>
									</g>
								</g>
							</g>
						</g>
						<g>
							<g>
								<path d="M177,431.5c3.2-1,6.1,2.2,5.3,5.3c-0.2,0.7-0.2,1.7-0.2,2.7c-2.3,2.5-6.3,3.4-10,0.2c-0.5-0.4-0.9-0.8-1.4-1.2
									C171.8,435.3,173.7,432.5,177,431.5z"/>
							</g>
						</g>
						<g>
							<g>
								<path d="M182.3,436.8c0.8-3.1-2.1-6.3-5.3-5.3c-3.4,1-5.2,3.8-6.3,6.9c-2.8-2.6-5.2-5.7-7.7-8.7c1.2-2.3,2.4-4.6,3.3-7.1
									c0.3-0.9,0.4-1.7,0.4-2.4c0.9,0.5,1.7,0.9,2.5,1.3c4,2,8.1,4,11.6,6.7c4.5,3.4,3.9,8.4,1.2,11.2
									C182.2,438.5,182.2,437.5,182.3,436.8z"/>
							</g>
						</g>
						<g>
							<g>
								<path d="M182.2,439.5c0,1.1,0,2.2-0.2,3.2c-0.5,2.4-1.2,4.7-2,7c-1.5,4.4-3.3,8.7-5.3,12.8c-4.1,8.2-9.5,15.9-15.7,22.6
									c-6.4,7-13.8,13-21.9,17.9c-5.1,3-10.1,4.9-15.4,6.1c0.4-1.4,0.1-3.1-1.2-4.7c-0.7-0.9-1.4-1.9-2.1-2.8
									c5.1-3,10.2-6.2,14.9-9.4c7.2-4.9,13.7-10.8,19.3-17.5c5.7-6.8,10.4-14.6,13.8-22.7c1.7-4.1,2.8-8.2,4-12.4
									c0.1-0.4,0.2-0.7,0.3-1.1c0.5,0.4,0.9,0.8,1.4,1.2C175.8,442.8,179.8,441.9,182.2,439.5z"/>
							</g>
						</g>
						<g>
							<g>
								<path class="st5" d="M170.8,438.4c-0.1,0.4-0.2,0.7-0.3,1.1c-1.2,4.2-2.3,8.4-4,12.4c-3.4,8.2-8.1,16-13.8,22.7
									c-5.6,6.7-12.1,12.6-19.3,17.5c-4.7,3.2-9.8,6.5-14.9,9.4c-4.9-7-8-14.8-12.1-22.2c11.5-0.1,23.3-12.2,30.7-18.9
									c9.8-8.8,19.7-18.9,26.1-30.7C165.5,432.7,168,435.8,170.8,438.4z"/>
							</g>
						</g>
						<g>
							<g>
								<path d="M166.8,420.2c0.1,0.8,0,1.6-0.4,2.4c-0.9,2.4-2.1,4.8-3.3,7.1c-2.2-2.8-5.6-6.4-6.3-9.9c-0.2-1.2,0.5-2.2,1.7-2.3
									C161.3,417.5,164.2,418.9,166.8,420.2z"/>
							</g>
						</g>
						<g>
							<g>
								<path d="M155.2,417.9c2.9-5.2,11.2-2.7,11.6,2.3c-2.6-1.4-5.5-2.7-8.3-2.7c-1.2,0-1.9,1.1-1.7,2.3c0.7,3.5,4.1,7.2,6.3,9.9
									c-6.4,11.8-16.3,21.9-26.1,30.7c-7.5,6.7-19.3,18.8-30.7,18.9c-0.3-0.6-0.7-1.2-1-1.7c-1.3-2.1-4.2-1.5-5,0.6
									c-0.7-0.3-1.4-0.6-2.1-1.1c-2.8-1.6-1.3-5.3,1.5-5.6c7.3-0.8,12.2-4.8,17.5-9.6c4.8-4.3,9.6-8.6,14.2-13.1
									C141,439.5,148.6,429.7,155.2,417.9z"/>
							</g>
						</g>
						<g>
							<g>
								<path d="M120.4,504.4c1.3,1.6,1.6,3.3,1.2,4.7c-2.9,0.7-5.9,1.2-9.1,1.5c0,0-0.1-0.1-0.1-0.1c-1-1.3-1.9-2.6-2.9-4
									c0.2-0.3,0.5-0.5,0.8-0.7c2.6-1.3,5.3-2.7,7.9-4.2C119,502.5,119.7,503.4,120.4,504.4z"/>
							</g>
						</g>
						<g>
							<g>
								<path d="M121.6,509.1c-0.9,3.6-5.9,5.5-9.1,1.5C115.7,510.2,118.7,509.8,121.6,509.1z"/>
							</g>
						</g>
						<g>
							<g>
								<path d="M106.2,479.3c4.2,7.4,7.2,15.2,12.1,22.2c-2.6,1.5-5.3,3-7.9,4.2c-0.3,0.2-0.6,0.4-0.8,0.7
									c-5.4-8.1-10-17.8-9.5-27.5c0-0.3,0.1-0.6,0.2-0.8C102.2,479,104.2,479.3,106.2,479.3z"/>
							</g>
						</g>
						<g>
							<g>
								<path d="M112.6,510.6c-0.3,0-0.5,0.1-0.8,0.1c-2.2,0.2-3.3-2.7-2.1-4.3c0.9,1.4,1.9,2.8,2.9,4
									C112.5,510.5,112.5,510.6,112.6,510.6z"/>
							</g>
						</g>
						<g>
							<g>
								<path d="M106.2,479.3c-2,0-4-0.4-6-1.2c0.7-2.1,3.7-2.7,5-0.6C105.6,478.2,105.9,478.8,106.2,479.3z"/>
							</g>
						</g>
					</g>
				</g>
			</g>
		</g>
		<g>
			<g>
				<g>
					<g>
						<g>
							<g>
								<path d="M411.2,832.4c2.6,0,5.2,0.5,7.6,1.5c6.9,2.9,11.7,9.4,12.3,16.9c1.3,16.7,5.1,16.7,13.2,16.7
									c13.9,0,23.8-5.7,31.1-17.9c3.9-6.4,11.1-10.2,18.6-9.6c4,0.3,8.2,0.4,12.4,0.4c19.4,0,49.9-3.2,85-18.2
									c9.8-4.2,21.1,0,25.8,9.6c0.4,0.8,0.7,1.5,1,2.3c3.2-8,5.9-16.1,8.1-24.2c1.2-4.6,4-8.7,8-11.4
									c94.7-65.2,90.2-281.8,56.1-378c-7.2-20.3-16.2-39.3-26.9-56.3c-4.7-7.5-3.9-17.2,2-23.9c5.9-6.6,15.4-8.6,23.5-4.8
									c15.9,7.5,30.7,11.4,44,11.4c6.2,0,12.2-0.9,17.8-2.5c25.1-7.5,40.1-21.1,47.8-31.5c-4,0-8.8-0.1-14.5-0.1
									c-9.7,0-20.8,0.1-32.5,0.1c-13.4,0.1-27.7,0.1-42,0.1c-25.5,0-62.1-0.2-86.3-1.9c-3.9-0.3-7.6-1.7-10.7-4.1
									c-30.8-23.7-66.7-36.3-106.8-37.5c-3-0.1-5.9-0.1-8.8-0.1c-83.5,0-156.6,37-195.7,98.9c-0.8,1.3-1.7,2.4-2.8,3.5
									c-5,5.1-11.5,10.4-18.5,15.7c5.5,3,9.5,8.6,10.2,15.2c1.1,9.5,7.2,13.1,7.8,13.5c9,5,12.7,16,8.6,25.4
									c-4,9.3-14.3,14-24,11.2c0,0,0,0,0,0c-6.9,5.8-16.7,6.2-24,1.2c-4.1,1.1-12.2,5.6-17.5,12.2c-3,3.8-3.8,6.7-3.7,7.7
									c0.2,1.2,0.6,1.9,0.8,2.2c6.2,6.7,7,16.8,2,24.4c-22.9,35-35,75.7-35,117.7c0,23.2,3.7,46.1,11.1,68.2
									c3.1,9.1-0.8,19.2-9.3,23.8c-8.4,4.7-19,2.6-25.1-4.8c-3.4-4.1-5.2-5.7-5.9-6.2c-6.4-5-13.1-7.6-19.3-7.6
									c-5.5,0-10.2,2.1-13.4,6.1c-4.2,5.1-5.4,12.8-3.6,21.6c5.9,28.4,60.6,87.4,94.6,95.6c1.6,0.4,2.9,0.6,3.8,0.7
									c0.4-4.2-0.7-12.2-3.1-17.6c-1.3-3.1-3.2-7-5.3-11.4c-4.3-8.9-1.5-19.7,6.7-25.2c8.2-5.6,19.2-4.3,25.9,2.9
									c37.8,40.9,88.8,65.3,144,68.9C408,832.6,409.6,832.4,411.2,832.4z M241.5,914.8c-6.4,0-15,1.8-15.5,17.7
									c-0.2,5.3,4,15.5,16.4,28.3c24.7,25.5,75.6,53.1,129,53.1c11.3,0,22.4-1.3,32.8-3.7c83.8-19.8,162.4-80.3,201.6-150.3
									l-1.8,1c-45.1,78.2-138.5,136.5-219.6,136.5l0,0c-43.3,0-77.5-17.5-96.4-49.3C274.3,925,254.8,914.8,241.5,914.8z
									 M371.4,1053.8c-65.3,0-126.3-32.8-157.7-65.2c-18.7-19.3-28.2-39.1-27.7-57.4c1.1-33.7,23.4-56.3,55.5-56.3
									c30.5,0,61.5,20.2,80.9,52.7c14.6,24.6,41.8,29.7,62,29.7l0,0c48,0,113.2-29.2,158.4-79.8c-14.1,2.1-26.4,2.9-36.4,2.9
									c-1.3,0-2.6,0-3.9,0c-14.5,17.6-34.7,27.1-58.2,27.1c-15.5,0-40.5-5.1-49.8-35.4c-42.9-4.3-83.4-19.3-118.4-43.4
									c-1.1,3.6-2.7,7.2-4.8,10.5c-6.9,10.5-18.2,16.3-32,16.3c-4.4,0-9.3-0.6-14.3-1.8c-51.3-12.3-115.6-83.9-124.4-126.4
									c-4.3-20.8-0.1-40.4,11.7-55c10.7-13.2,26.9-20.8,44.4-20.8c3.6,0,7.3,0.3,10.9,0.9c-1.5-11.4-2.3-22.8-2.3-34.3
									c0-45.6,14.5-89.1,34.8-129.6c9.7-19.4,27.1-44.9,28.9-46.7c-15.7-5.2-35.8-23.4-36.9-33.3c-1.5-13.7,7.5-25.9,21.5-29
									c8.3-1.9,44.4-13.6,60.8-29.1c48.3-74.9,139-115,239-110c46.5,2.3,82.3,4.7,118.8,31.2c22.8,1.3,54.8,1.5,77.6,1.5
									c14.2,0,28.4-0.1,41.8-0.1c11.8,0,22.9-0.1,32.7-0.1c30.3,0,37.8,0.6,42.4,1.7c11,2.8,18.3,12.5,18.6,24.9
									c0.5,23.4-25.4,66-82.8,83.2c-9.3,2.8-19.2,4.2-29.3,4.2c-4.3,0-8.7-0.3-13.2-0.8c2.9,6.9,5.7,13.9,8.2,21.1
									c36.6,103.5,45.4,335.4-65.1,419.8c-30.2,102-133.9,194.6-249.6,222C399.9,1052.1,385.8,1053.8,371.4,1053.8z"/>
							</g>
						</g>
					</g>
				</g>
			</g>
		</g>
		<g>
			<g>
				<g>
					<g>
						<g>
							<g>
								<path d="M410.2,859.6c-0.1,0-0.2,0-0.3,0C280.2,854,178.6,747.8,178.6,617.9c0-76.8,35.3-147.4,96.8-193.6
									c2.9-2.2,7.1-1.6,9.3,1.3c2.2,2.9,1.6,7.1-1.3,9.3c-58.1,43.7-91.5,110.4-91.5,183c0,122.8,96,223.1,218.6,228.4
									c3.7,0.2,6.5,3.3,6.3,6.9C416.7,856.9,413.8,859.6,410.2,859.6z"/>
							</g>
						</g>
					</g>
				</g>
			</g>
		</g>
		<g>
			<g>
				<g>
					<g>
						<g>
							<g>
								<path class="st6" d="M410.2,853c-125.1-5.4-224.9-108.6-224.9-235.1c0-77,37-145.3,94.1-188.3c40.6,21,72.4-17.6,97.6-36
									c72.1,18.4,188.2,7.7,267,149.8c11.9,21.6,12,48.4,12,74.4c0,23.4-3.4,45.9-9.7,67.2c-57.8-21.4-126.6,5.4-146.7,57.5
									C460.9,811.4,410.2,853,410.2,853z"/>
							</g>
						</g>
					</g>
				</g>
			</g>
		</g>
		<g>
			<g>
				<g>
					<g>
						<g>
							<g>
								<path class="st7" d="M523.5,601.6c0-99.6-79.9-180.4-179.1-182c-18.5,13.3-39.7,22.6-64.1,10.5c-1,0.4-1.9,0.7-2.9,1
									c-56,43-92.2,110.7-92.2,186.8c0,41.7,10.9,80.9,30,114.9c32.7,31.5,77.2,50.9,126.2,50.9
									C442,783.7,523.5,702.1,523.5,601.6z"/>
							</g>
						</g>
					</g>
				</g>
			</g>
		</g>
		<g>
			<g>
				<g>
					<g>
						<g>
							<g>
								<path class="st4" d="M331.2,444.7c-117.1,9.6-193.1,186.1-89.6,278.4c105,93.5,234.6-27.3,230.1-139.5
									C468.3,496.6,396.3,441.5,331.2,444.7 M223.7,525.7c35.6-54.8,103.7-99.4,178.5-44.7c-0.5,0-47.9,2.1-13.5,53.2
									c18.6,27.5,19.8,49.7,5.1,94.6c-5.3,22.2-6.9,28.9-11.7,51.7c-22.7-54.4-41.3-100.7-56-159.8c12.9-1.9,27.5-4,20-12.3
									c-1-1-68.9,5.7-69.5,5.8c-5.2,0.9-6.1,7-6.2,7.1c-0.5,4.8,0.4,4.8,15,3.9c3.9,20.9,5.7,30.4,15.3,60.9
									c-6.9,28.8-14.1,58.6-15.1,104.6c-31-61.6-43.3-104.4-45.7-157.8c4.4-2.7,10.2-1.6,14.1-5.6c2.7-2.7,3.9-8.8,0.6-9.5
									C243.1,515.2,234.2,523.5,223.7,525.7 M386.3,717.8c12.5-53.9,33.3-105.5,45.6-159.6c2.4-10.5,4.4-26.7,0.7-44.9
									C469.1,570.3,464.9,658.8,386.3,717.8 M279.5,733.7c-78.9-35.9-93.4-120.9-66.9-186.3C213.6,612.2,231.7,662.7,279.5,733.7
									 M325.8,741.3c-10.1,0.6-18.3,0.1-28.3-2c-3-30.1-5-67.8,10.2-133.4c27.6,71.4,58,123.8,58.2,124.1
									C360.7,732.5,345,740,325.8,741.3"/>
							</g>
						</g>
					</g>
				</g>
			</g>
		</g>
		<g>
			<g>
				<g>
					<g>
						<g>
							<g>
								<path class="st8" d="M268.1,412.1c-57.7,16.3-63.6-10.4-50.3-13.3c13.3-3,48.8-23.7,66.6-41.4L268.1,412.1z"/>
							</g>
						</g>
					</g>
				</g>
			</g>
		</g>
		<g>
			<g>
				<g>
					<g>
						<g>
							<g>
								<path class="st8" d="M645.6,814.7c-25.2,96.2-124.3,188-236.8,214.6c-96.8,22.9-204.3-51.8-202.8-97.7
									c1.7-51.7,66.6-48.9,99.2,5.9c49.9,83.9,220.6,25.1,284.2-91.8L645.6,814.7z"/>
							</g>
						</g>
					</g>
				</g>
			</g>
		</g>
		<g>
			<g>
				<g>
					<g>
						<g>
							<g>
								<path class="st9" d="M279.4,429.6c-0.6,0.5-1.3,1-1.9,1.5c1-0.4,1.9-0.7,2.9-1C280,429.9,279.7,429.8,279.4,429.6z"/>
							</g>
						</g>
					</g>
				</g>
			</g>
		</g>
		<g>
			<g>
				<g>
					<g>
						<g>
							<g>
								<path class="st9" d="M344.4,419.6c-1,0-2-0.1-3-0.1c-21.4,0-42,3.7-61.1,10.5C304.7,442.2,325.9,432.9,344.4,419.6z"/>
							</g>
						</g>
					</g>
				</g>
			</g>
		</g>
		<g>
			<g>
				<g>
					<g>
						<g>
							<path class="st2" d="M490.2,859.5c36.1,3.2,95.4-3.5,155.4-44.8c108.3-74.5,97.7-304.9,63.7-401.1
								c-34.1-96.2-105.1-161.3-202.8-164.3c-97.7-2.9-179.1,40-222,108.1c-28.9,45.9-7.4,71,5.9,76.9c13.3,5.9,69.6-16.3,85.9-45.9
								c38.5,23.7,81.4,13.3,118.4,1.5l71.1,20.7c-56.3-22.2-127.3-8.9-164.3,23.7c-37,32.6-11.8,56.3,16.3,59.2
								c28.1,3,82.9-22.2,125.8-13.3c42.9,8.9,56.1,24.6,102,66.1c0,0,25.1,100.7,0,139.3c-43.6-25.2-122.5,3.3-146,57L490.2,859.5z
								"/>
						</g>
					</g>
				</g>
			</g>
		</g>
		<g>
			<path class="st4" d="M676.5,785.6c-0.1-1.6-0.2-3.3-0.2-4.9c-0.8-15.9-1.4-30-5.1-45.2c-3.5-14.4-8.2-26-15.3-38.6
				c-2.7-4.9-5.6-9.6-8.6-14.3c-0.6,1-1.1,2-1.8,3c-43.6-25.2-122.5,3.3-146,57l-9.3,116.9c36.1,3.2,95.4-3.5,155.4-44.8
				C657.3,806.7,667.5,796.9,676.5,785.6z"/>
		</g>
		<g>
			<g>
				<g>
					<g>
						<g>
							<g>
								<path d="M502,745.9c-1,0-2-0.2-2.9-0.7c-3.3-1.6-4.7-5.6-3-8.9c17.9-36.5,51.6-59.8,92.4-63.9c33.7-3.4,67.3,7.2,81.6,25.8
									c2.3,2.9,1.7,7.1-1.2,9.3c-2.9,2.3-7.1,1.7-9.3-1.2c-11.5-14.9-40.8-23.6-69.8-20.7c-21.2,2.2-60.1,12.4-81.8,56.5
									C506.8,744.5,504.5,745.9,502,745.9z"/>
							</g>
						</g>
					</g>
				</g>
			</g>
		</g>
		<g>
			<g>
				<g>
					<g>
						<g>
							<g>
								<path d="M506.2,866.8c-6.7,0-12.3-0.3-16.6-0.7c-3.7-0.3-6.4-3.5-6.1-7.2c0.3-3.7,3.7-6.4,7.2-6.1c23.4,2,84.8,2,151.1-43.6
									c104.2-71.8,95.1-297.5,61.1-393.4C668,317,596.3,258.7,506.3,256c-92.2-2.8-173,36.5-216.2,105
									c-11.8,18.7-15.9,35.8-11.8,49.3c3,9.8,9.9,15.9,14.8,18.1c8.4,3.8,61.8-14.8,77.3-43c0.9-1.6,2.4-2.8,4.1-3.2
									c1.8-0.5,3.7-0.2,5.2,0.8c36.4,22.4,77.4,12.2,112.9,0.8c3.5-1.1,7.2,0.8,8.4,4.3c1.1,3.5-0.8,7.3-4.3,8.4
									c-39.2,12.5-80.5,21.2-118.3,1.1c-21,29.2-74.3,50.3-90.7,43c-7.9-3.5-17.8-12.3-22.1-26.4c-3.7-12.1-4.3-32.3,13.3-60.2
									c45.7-72.5,130.9-114.1,227.9-111.2c95.8,2.9,171.9,64.4,208.8,168.7c16,45.1,28.9,128,21.9,211.5
									c-5.6,66.2-25.4,154.2-88.1,197.4C591.8,859.9,537.4,866.8,506.2,866.8z"/>
							</g>
						</g>
					</g>
				</g>
			</g>
		</g>
		<g>
			<g>
				<g>
					<path d="M712.1,776.3c-3-0.4-5.9-0.8-8.9-1.2c1.8-2.8,3.5-5.7,5.1-8.7C709.6,769.8,710.9,773,712.1,776.3z"/>
				</g>
			</g>
		</g>
		<g>
			<g>
				<g>
					<path d="M651.3,677.6c-0.7,1.7-1.5,3.3-2.3,5c-0.6-2.4-1.2-4.8-1.9-7.2C648.6,676.1,650,676.8,651.3,677.6z"/>
				</g>
			</g>
		</g>
		<g>
			<g>
				<g>
					<g>
						<g>
							<g>
								<path d="M236,424c-15.1,0-22.6-4.5-26.2-8.2c-3.9-4-5.4-9.3-4-14.1c1.4-4.8,5.4-8.3,10.6-9.5c11.5-2.5,45.9-22.1,63.3-39.7
									c2.6-2.6,6.8-2.6,9.4,0c2.6,2.6,2.6,6.8,0,9.4c-18.3,18.3-54.9,39.9-69.9,43.2c-0.6,0.1-0.8,0.4-0.8,0.4
									c0.1,0,0.5,0.7,1.9,1.7c2.8,1.9,14.3,7.3,46-1.6c3.5-1,7.2,1,8.2,4.6c1,3.5-1.1,7.2-4.6,8.2C255.7,422.5,244.6,424,236,424z
									"/>
							</g>
						</g>
					</g>
				</g>
			</g>
		</g>
		<g>
			<g>
				<g id="XMLID_12_">
					<g>
						<g>
							<path class="st3" d="M771.5,783.4c4.5,13.5,10.4,26.5,18.4,38.2c-37,8.4-78,8.9-108-18c-27.3-24.5-39.1-60.6-60.9-89.3
								c-6-7.9-12.5-15.5-20.2-21.8c-3.8-3.1-8.3-6.9-13.2-9.2c13.3,1.2,26.9,0.3,40.2,1.4c15.4,1.3,30.8,4,45.5,9.2
								c15,5.3,29.1,13.3,43.3,20.3c13.9,6.8,27.6,14.3,41.7,20.8c1.2,8,3.9,16,6,23.8C766.5,767.1,768.8,775.3,771.5,783.4z"/>
						</g>
						<g>
							<path d="M797,819.9c-2.3,0.6-4.7,1.2-7.1,1.7c-8-11.7-13.9-24.7-18.4-38.2c-2.7-8.1-5-16.4-7.2-24.7
								c-2.1-7.8-4.8-15.8-6-23.8c0.9,0.4,1.9,0.9,2.8,1.3c2.6,1.2,5.1-0.1,6.3-2c2.3,6.6,3.7,13.7,5.4,20.5
								c2,7.8,4.1,15.5,6.5,23.1c4.9,15.7,11.3,31,22.5,43.3c2.5,2.8,1.5,7.2-2.2,8.3c-1.4,0.4-2.8,0.8-4.2,1.2l-0.7-2.5
								C795.5,825.5,796.2,822.7,797,819.9z"/>
						</g>
						<g>
							<path d="M797,819.9c-0.7,2.8-1.5,5.6-2.2,8.3c-1.7-2.2-3.3-4.4-4.9-6.6C792.3,821.1,794.6,820.5,797,819.9z"/>
						</g>
						<g>
							<path d="M794.8,828.3l0.7,2.5c-21.2,5.8-43.5,8.5-65.4,5.6c-19.1-2.6-37.1-9.8-52.1-22c-14-11.4-24.6-26.4-33.8-41.7
								c-9.5-15.6-17.7-31.9-27.6-47.2c-5-7.7-10.4-15.1-16.7-21.8c-3.1-3.3-6.3-6.4-9.7-9.2c-3.9-3.2-8-7.5-13.4-7.9
								c-2.6-0.2-3.5-4.2-0.7-4.9c1.6-0.3,3.2-0.4,4.8-0.2c0.3,0.7,1,1.4,1.9,1.5c1.6,0.2,3.3,0.4,4.9,0.5c4.9,2.3,9.4,6,13.2,9.2
								c7.7,6.4,14.2,13.9,20.2,21.8c21.8,28.7,33.5,64.9,60.9,89.3c30,26.8,71,26.3,108,18C791.4,823.9,793.1,826.1,794.8,828.3z"
								/>
						</g>
						<g>
							<path d="M765.4,729.1c0.8,1.7,1.5,3.4,2.1,5.2c-1.2,1.9-3.7,3.2-6.3,2c-0.9-0.4-1.9-0.8-2.8-1.3c-0.2-1.3-0.4-2.6-0.5-3.9
								C757.6,727.2,763.8,725.5,765.4,729.1z"/>
						</g>
						<g>
							<path d="M718.3,705.7c15.8,7.6,32,14.5,47.6,22.6c2.7,1.4,2.8,4,1.6,6c-0.6-1.8-1.3-3.5-2.1-5.2c-1.6-3.6-7.8-1.8-7.5,2
								c0.1,1.3,0.2,2.6,0.5,3.9c-14-6.5-27.8-14-41.7-20.8c-14.2-7-28.4-15-43.3-20.3c-14.6-5.2-30-7.9-45.5-9.2
								c-13.3-1.1-26.9-0.2-40.2-1.4c-2.2-1-4.5-1.8-6.8-2c-0.5-1.1-0.2-2.4,1.3-2.7c15.2-3.1,32.1-2,47.5-0.8
								c15.2,1.2,30.3,3.7,44.8,8.4C689.7,691.2,703.9,698.7,718.3,705.7z"/>
						</g>
						<g>
							<path d="M587.6,683.3c-1.6-0.1-3.3-0.3-4.9-0.5c-0.9-0.1-1.6-0.8-1.9-1.5C583.2,681.5,585.4,682.3,587.6,683.3z"/>
						</g>
					</g>
				</g>
			</g>
			<g>
				<g>
					<g>
						<path d="M671.4,721.8c19.6,18.9,42.9,34.8,67.9,47.9c-0.7-1.1-1.3-2.1-2-3.2c-3.1,10.1-5.1,20.4-6,30.9
							c1.6-0.7,3.2-1.4,4.9-2.1c-9.1-4.6-18.8-2.4-28.5-1.9c-5.4,0.3-14.1,0.9-17.8-3.4c-3.7-4.4-6.3-9.9-9.2-14.7
							c-5.5-9-11-18-16.6-27c-1.3-2.2-3.4-4.6-4.3-6.9c-1-2.8,0.5-4.5,2-6.8c1.9-2.8,6.2-12.6,11.4-10.3c2.8,1.2,4.6-1.9,2.6-3.6
							c-9.4-8.3-17.7,8.9-20.8,13.6c-3.5,5.3-1.2,8.2,2,13.5c3.9,6.4,7.9,12.8,11.8,19.3c3.8,6.2,7.6,12.3,11.3,18.5
							c2.5,4.2,4.5,10.4,10.2,12.3c6.3,2.1,14.3,1.9,20.7,1.3c7.5-0.6,15.2-2,22.2,1.6c1.9,1,4.7-0.3,4.9-2.1
							c0.9-10.5,2.9-20.8,5.8-30.9c0.4-1.3-0.8-2.6-2-3.2c-24.8-12.4-47.1-27.7-67.8-44.9C672.5,718.3,669.9,720.3,671.4,721.8
							L671.4,721.8z"/>
					</g>
				</g>
			</g>
			<g>
				<g>
					<circle class="st8" cx="702.8" cy="775.8" r="10"/>
				</g>
				<g>
					<path d="M702.8,788.3c-6.9,0-12.5-5.6-12.5-12.5s5.6-12.5,12.5-12.5s12.5,5.6,12.5,12.5S709.7,788.3,702.8,788.3z M702.8,768.3
						c-4.1,0-7.5,3.4-7.5,7.5s3.4,7.5,7.5,7.5s7.5-3.4,7.5-7.5S706.9,768.3,702.8,768.3z"/>
				</g>
			</g>
		</g>
		<g>
			<g>
				<g>
					<g>
						<g>
							<g>
								<path d="M364.4,350c-10.6,8-7.4,17.8,4.4,19.2c11.9,1.5,12.8,2.3,23.7-5.9c11.9-8.9,13.3-23.7,0-22.2
									C379.2,342.6,370.3,345.5,364.4,350z"/>
							</g>
						</g>
					</g>
				</g>
			</g>
		</g>
		<g>
			<g>
				<g>
					<g>
						<g>
							<g>
								<path d="M333.3,355.9c0,7.4-5.9,13.3-13.3,13.3c-7.4,0-13.3-5.9-13.3-13.3c0-7.3,5.9-13.3,13.3-13.3
									C327.3,342.6,333.3,348.5,333.3,355.9z"/>
							</g>
						</g>
					</g>
				</g>
			</g>
		</g>
		<g>
			<g>
				<g>
					<g>
						<g>
							<g>
								<path d="M487.2,318.9c0,7.4-6,13.3-13.3,13.3c-7.4,0-13.3-5.9-13.3-13.3c0-7.3,5.9-13.3,13.3-13.3
									C481.3,305.6,487.2,311.5,487.2,318.9z"/>
							</g>
						</g>
					</g>
				</g>
			</g>
		</g>
		<g>
			<g>
				<g>
					<g>
						<g>
							<g>
								<path d="M371.8,1040.2c-51.8,0-102.6-22.2-134.8-48.5c-24.5-20-38.2-42-37.6-60.3c0.7-21.9,11.7-37.2,30.3-42
									c23.5-6.1,59,7.3,81.2,44.7c18.3,30.8,51.6,36.8,76.1,36.2c73.1-1.4,157.6-56.3,196.5-127.8c1.8-3.2,5.8-4.4,9.1-2.7
									c3.2,1.8,4.4,5.8,2.7,9c-41,75.3-130.4,133.3-208,134.7c-40,0.6-71-14.4-87.8-42.7c-18.9-31.8-47.8-43.5-66.5-38.7
									c-12.6,3.2-19.8,13.7-20.3,29.5c-0.5,13.9,11.8,32.4,32.7,49.5c37.7,30.8,102.3,55.6,161.8,41.5
									C516.6,997,614.2,908.7,639.2,813c0.9-3.5,4.5-5.7,8.1-4.8c3.5,0.9,5.7,4.6,4.8,8.1c-26.2,100.2-127.9,192.5-241.7,219.4
									C397.6,1038.9,384.7,1040.2,371.8,1040.2z"/>
							</g>
						</g>
					</g>
				</g>
			</g>
		</g>
		<g>
			<g>
				<g>
					<g>
						<g>
							<g>
								<path d="M660.4,563.9c-1.6,0-3.2-0.6-4.5-1.7l-5.3-4.8c-43.1-38.9-69.1-62.5-108.5-70.6c-23.8-4.9-52.1,1.4-77.1,6.9
									c-19,4.2-35.3,7.9-48.1,6.5c-19.6-2-35.1-12.4-39.5-26.2c-3.1-9.8-2.3-25.5,19.5-44.6c40.7-35.8,115.9-46.7,171.2-24.9
									c3.4,1.4,5.1,5.2,3.8,8.6c-1.4,3.4-5.2,5.1-8.7,3.8c-51-20.2-120.2-10.3-157.4,22.5c-12.8,11.2-18.3,22.1-15.6,30.6
									c2.8,8.7,14.1,15.5,28.2,17c10.6,1.1,26.7-2.5,43.8-6.3c26.3-5.8,56.2-12.5,82.7-6.9c43,8.9,71.6,34.7,114.8,73.8l5.3,4.8
									c2.7,2.4,2.9,6.7,0.5,9.4C664,563.1,662.2,563.9,660.4,563.9z"/>
							</g>
						</g>
					</g>
				</g>
			</g>
		</g>
		<g>
			<g>
				<g>
					<g>
						<g>
							<g>
								<path class="st10" d="M188.2,683c-36.1-27.8-76.9-3-68.1,40c7.3,35.2,66.9,100.8,109.5,111c37,8.9,29.5-31,23.7-44.4
									C243,765.9,207.5,697.8,188.2,683z"/>
							</g>
						</g>
					</g>
				</g>
			</g>
		</g>
		<g>
			<g>
				<g>
					<g>
						<g>
							<g>
								<path d="M156.7,677.9c-9.6,0-18,3.9-23.8,11c-6.7,8.2-9,19.9-6.3,32.7c6.8,32.8,65.1,96.4,104.6,105.9
									c3,0.7,5.8,1.1,8.1,1.1c6.2,0,8.5-2.4,9.6-4.2c4.8-7.3,2.1-23.4-1.7-32.1c-10.9-25-45.6-90.5-63.1-104
									C175.4,681.5,165.9,677.9,156.7,677.9z M239.3,841.9L239.3,841.9c-3.4,0-7.2-0.5-11.2-1.5
									c-45.1-10.8-106.7-78.5-114.5-116.1c-3.5-16.8-0.3-32.4,9-43.8c8.2-10.1,20.6-15.9,34.1-15.9c12.1,0,24.4,4.5,35.6,13.1
									c21.9,16.9,59.1,90.8,67.2,109.2c3.3,7.6,10,30.6,0.7,44.8C257.1,836.3,251,841.9,239.3,841.9z"/>
							</g>
						</g>
					</g>
				</g>
			</g>
		</g>
		<g>
			<g>
				<g>
					<g>
						<g>
							<g>
								<path class="st10" d="M502,835.5c0,0-8.9,51.8-57.7,51.8c-48.8,0-28.1-59.2-34-97.7c-5.9-38.5-29.6-88.8,5.9-112.5
									c35.5-23.7,78.5,45.9,85.9,72.5C512.4,785.1,510.9,807.3,502,835.5z"/>
							</g>
						</g>
					</g>
				</g>
			</g>
		</g>
		<g>
			<g>
				<g>
					<g>
						<g>
							<g>
								<path d="M431.6,681.1c-3.7,0-7.1,1.1-10.5,3.4c-21,14-16.8,39.3-7.9,76.3c2.2,9.1,4.4,18.6,5.8,27.4
									c1.8,11.5,1.4,24.4,0.9,36.8c-0.6,19.3-1.3,39.2,7,47.8c3.6,3.8,9.3,5.6,17.3,5.6c40.6,0,48.7-42.6,49-44.5
									c0.1-0.4,0.1-0.8,0.3-1.1c7.9-25.1,10.3-45.4,0-80.7C486.9,728.4,455.5,681.1,431.6,681.1z M444.3,896.2
									c-12.9,0-23-3.7-30.1-11c-13.5-14-12.8-37.8-12-60.8c0.4-11.6,0.8-23.6-0.7-33.5c-1.3-8.1-3.3-16.8-5.5-26
									c-8.2-34.4-17.6-73.3,15.3-95.2c6.3-4.2,13.1-6.3,20.3-6.3c38.6,0,72.6,60.8,79,83.9c11.4,39.1,8.7,62.8,0.1,90.3
									C506.9,858.2,488.4,896.2,444.3,896.2z"/>
							</g>
						</g>
					</g>
				</g>
			</g>
		</g>
		<g>
			<g>
				<g>
					<g>
						<g>
							<g>
								<g>
									<path d="M326.9,400.8c-4.5-6.7-11.8-9.4-19.2-12c-9.2-3.2-21.2-3.1-30.4,0.2c-9.6,3.4-17.3,10.1-25.1,16.5
										c-3.9,3.2-7,7-11.8,9.1c-5.4,2.5-11.3,2.7-17.1,2.5c-2.7-0.1-3,3.7-0.6,4.5c8.6,3,18.8,3.1,27.6,1.1
										c4.2-1,8.1-2.1,11.8-4.4c4-2.6,7.6-5.8,11.4-8.6c7.3-5.3,16.5-7.8,25.4-9.3c4.2-0.7,8.8-2.2,13-2.2c4.5,0,9.3,2.2,13.1,4.5
										C326.1,403.4,327.6,401.9,326.9,400.8L326.9,400.8z"/>
								</g>
							</g>
						</g>
					</g>
				</g>
			</g>
		</g>
		<g>
			<g>
				<g>
					<g>
						<g>
							<g>
								<g>
									<path d="M417.8,376.6c10.4-21.3,42.1-14.6,60.7-12.2c11.6,1.5,23.8,4.5,35.5,4.3c9.9-0.2,18.5-7.3,14.6-17.6
										c-0.7-1.7-2.9-2.2-4-0.5c-1.6,2.6-9,2.6-11.6,2.6c-5.8-0.1-11.8-1.2-17.5-2c-12.3-1.6-24.6-3.3-37.1-2
										c-16.1,1.6-38.8,8.4-43.1,26.5C415,377,417.1,378,417.8,376.6L417.8,376.6z"/>
								</g>
							</g>
						</g>
					</g>
				</g>
			</g>
		</g>
		<g id="XMLID_7_">
			<g>
				<g>
					<g>
						<g>
							<g>
								<g>
									<path d="M135.9,371.3c2-0.7,4-1.4,5.8-2.4c0.6-0.3,1.1-0.7,1.7-1c9.7-6.1,18.2-15.4,21.2-26.7c0.2-0.9,0.4-1.8,0.6-2.6
										c-4,1.1-8.1,1.6-12.3,2.1c-5,0.6-13.1,2.3-18,3.7c-11,3.3-21.8,7.1-32.4,11.4c-10.9,4.3-21.7,9-32.1,14.6
										c-6.1,3.2-10.9,8.5-17.1,11.3c-0.8,1.1-1.6,2.1-2.3,3.3c-11.5,17.7-12.1,40.5-8.1,60.7c4.1,20.9,13.2,43.9,32.2,55.5
										c9.8,6,22.2,8.4,33.2,4.6c3.5-3,10-0.4,9.9,4.7c-0.3,9,6.2,14.2,13.8,17.2c5.3-0.2,10.6-1.3,14.7-2.6
										c5.4-1.7,12.1-4.6,17.2-8.8c-0.3-2.2-1-4.6-1.3-6.1c-0.9-4-2.1-8-3.1-12c-3.2-13.2-5.8-26.5-8.9-39.8
										c-6.2-26.6-14.6-52.6-18.6-79.6C131.7,375.6,133,372.2,135.9,371.3z M112.3,479c-0.4,3.5-3.2,5.4-5.9,5.7
										c-2.9,1.7-6,2.4-9.4,2.1c-8.2-0.6-15.3-6-20-12.5c-10.3-14.4-14.8-34.9-14.1-52.4c0.5-11.7,5-22,12.8-29.6
										c0.2-0.3,0.4-0.6,0.7-0.9c0.9-1,1.7-1.6,2.9-2.3c3.6-2,7.5-0.1,8.8,3.6c5.6,15.9,9.5,32.3,14.5,48.4
										C106.4,453.3,113.8,465.8,112.3,479z M127.7,503.9c-0.1-0.1,0-0.1,0.5-0.1c0.1,0.1,0.3,0.3,0.4,0.4
										C128.2,504.3,127.9,504.1,127.7,503.9z M138,470.9c1.6,5.9,3.3,11.7,5.3,17.4c0.9,2.7,1.9,5.4,3,8.1c0.4,1,0.8,2.1,1.2,3.1
										c-2.4,1.5-5,2.6-7.6,3.3c-2.2,0.6-4.4,1.1-6.7,1.2c-0.1,0-0.3,0-0.4,0c0-0.4,0-0.8,0-1.3c-0.1-2.9-0.3-5.9-0.5-8.8
										c-0.4-6.3-1.2-12.5-2-18.7c-1.6-12-3.9-23.9-7.3-35.5c-3.4-11.6-7.8-22.9-12.7-33.9c-3.7-8.3-8.1-17.3-13.8-24.8
										c5.4-1.5,11.1-2.5,16.7-3.5c8.3,19,12.6,39.4,17,59.6C132.6,448.4,135,459.7,138,470.9z"/>
								</g>
							</g>
						</g>
					</g>
				</g>
				<g>
					<g>
						<g>
							<g>
								<g>
									<path class="st8" d="M146.2,496.4c0.4,1,0.8,2.1,1.2,3.1c-2.4,1.5-5,2.6-7.6,3.3c-2.2,0.6-4.4,1.1-6.7,1.2
										c-0.1,0-0.3,0-0.4,0c0-0.4,0-0.8,0-1.3c-0.1-2.9-0.3-5.9-0.5-8.8c-0.4-6.3-1.2-12.5-2-18.7c-1.6-12-3.9-23.9-7.3-35.5
										c-3.4-11.6-7.8-22.9-12.7-33.9c-3.7-8.3-8.1-17.3-13.8-24.8c5.4-1.5,11.1-2.5,16.7-3.5c8.3,19,12.6,39.4,17,59.6
										c2.4,11.3,4.8,22.6,7.8,33.8c1.6,5.9,3.3,11.7,5.3,17.4C144.2,491,145.2,493.7,146.2,496.4z"/>
								</g>
							</g>
						</g>
					</g>
				</g>
			</g>
		</g>
		<g>
			<g>
				<g>
					<g>
						<g>
							<path d="M174.4,344.7c-0.6-4.2-4.4-8.4-8.7-9.7c-10.2,2.2-20.4,4.2-30.5,7c-13.4,3.7-26.6,8-39.8,12.3
								c-20.6,6.8-44.8,19.2-48.2,43.4c-0.2,1.7,2,3,3,1.3c5.6-9.7,10.9-18.2,20.3-24.6c9.7-6.6,21.7-9.3,32.8-12.7
								c11.7-3.7,23.5-7.2,35.4-10.3c7.8-2,15.8-4,23.9-5.3c-3.5,1.9-7.5,3.1-11.2,4.2c-11.5,3.3-25.2,5.1-34.8,12.4
								c-3.9,3-2.6,8.7,2.5,9.2c7.8,0.7,12.6,0.7,20.1-1.5c6.6-1.9,15.3-6.1,21.7-8.6c4.2-1.7,8.4-3.7,12-6.4
								C174.3,352.1,175,348.9,174.4,344.7z"/>
						</g>
					</g>
				</g>
			</g>
		</g>
		<g>
			<g>
				<g>
					<g>
						<path class="st4" d="M93.8,366.8c0,0-83-299-87-318s0-39,0-39s17,16,23,34s78.3,311.3,78.3,311.3L93.8,366.8z"/>
					</g>
				</g>
			</g>
			<g>
				<g>
					<g>
						<path d="M91,375.5l-2-7.4C85.6,355.9,5.9,68.8,1.9,49.8c-4.2-19.8-0.2-40.2,0-41L3.6,0l6.6,6.2c0.7,0.7,18,17.1,24.3,36.1
							c6,18,75.4,299.7,78.4,311.7l0.8,3.1L91,375.5z M10.4,21.1c-0.6,7.2-0.7,17.1,1.3,26.7c3.6,17,72.1,264.1,84.9,310.3l5.9-4.8
							C94.7,321.9,30.6,62,25,45.4C21.9,36,15.5,27.1,10.4,21.1z"/>
					</g>
				</g>
			</g>
		</g>
		<g>
			<g>
				<g>
					<g>
						<path d="M193.3,865.8c2,0,2-3.1,0-3.1C191.3,862.8,191.3,865.8,193.3,865.8L193.3,865.8z"/>
					</g>
				</g>
			</g>
		</g>
		<g>
			<g>
				<g id="XMLID_15_">
					<g>
						<g>
							<path d="M954.8,848.2c3.7,4.8,5.3,10.7,2.8,16.4c-0.7,1.6-2.5,2.7-4.2,2.4c-51.5-8-97.2-32.7-140.9-59.9c-1.9-3-3.7-6-5.4-9
								c45.6,25.7,91.6,51.6,143.8,60.4c0,0.9-0.2,1.9-0.6,3c1.4-0.8,2.8-1.6,4.2-2.4c-1.2-0.2-2.4-0.4-3.6-0.6
								c-0.1-6.6-10.1-11.2-14.4-14.6c-2.8-2.2-5.4-4.9-7-8.1c-1.8-3.6-2.1-7.6-3.8-11.2c-8.1-16.8-31.2-16.1-46.8-18.6
								c-18.6-3-36.5-9.9-52.3-20.1c-7.2-4.6-13.4-10.2-20.1-15.4c-4.9-3.8-10.9-8-17-6.5c-0.7-1.6-1.5-3.3-2.2-4.9
								c-0.4-1-0.8-2-1.3-3c13-4.8,25.3,7.6,34.7,15.2c13.6,11,29.6,19.1,46.5,23.7c15.8,4.3,33.3,3.1,48.3,9.9
								c5.7,2.6,11.1,6.4,14.8,11.4c4.3,5.8,4.1,14.2,9.1,19.3C944,840.4,950.6,842.8,954.8,848.2z"/>
						</g>
						<g>
							<path d="M954.5,859.1c-1.4,0.8-2.8,1.6-4.2,2.4c0.5-1,0.6-2,0.6-3C952.1,858.7,953.3,858.9,954.5,859.1z"/>
						</g>
						<g>
							<path class="st11" d="M936.4,843.9c4.3,3.4,14.3,8.1,14.4,14.6c-52.2-8.7-98.2-34.7-143.8-60.4
								c-6.5-11.1-12.4-22.5-17.7-34.2c6.2-1.5,12.2,2.7,17,6.5c6.7,5.2,12.9,10.8,20.1,15.4c15.9,10.2,33.7,17.1,52.3,20.1
								c15.6,2.5,38.7,1.8,46.8,18.6c1.7,3.6,2,7.6,3.8,11.2C931.1,839,933.6,841.7,936.4,843.9z"/>
						</g>
						<g>
							<path d="M890.9,938.7c-1.1,2.7-4.2,3-6.5,1.6c-18.7-11.8-37-24.3-53.7-38.7c-27.6-23.9-48.8-53.4-63.9-86.6
								c-11.6-25.4-21-52.4-28.3-79.6c2,2.2,4.5,4,7.3,5c3.1,9.6,6.1,19.3,9.5,28.8c11.7,32.5,26.1,64.6,47.5,92.1
								c22.1,28.4,51.3,50,81.5,69.2c-0.1,1.7-0.4,3.4-1,5c2.2-0.5,4.3-1.1,6.5-1.6l2.5,0C892,935.4,891.6,937,890.9,938.7z"/>
						</g>
						<g>
							<path d="M892.2,933.8l-2.5,0c-1.8-1.1-3.6-2.3-5.4-3.4c0.3-6.2-2.4-12.8-0.2-19c1.5-4.2,4.5-5.6,7.9-8c5.3-3.8-1-11-4.5-13.7
								c-7.1-5.4-16.3-7.5-24.2-11.5c-9-4.6-16.6-11.2-23.4-18.7c-14.1-15.3-26.2-32.9-37.1-50.6c-8.8-14.4-16.6-29.4-23.4-44.7
								l2.3-1c0.8,1.9,2.8,3.1,5.1,1.8c0.9-0.5,1.8-0.8,2.6-1c5.3,11.7,11.2,23.1,17.7,34.2c-0.1-0.1-0.3-0.1-0.4-0.2
								c-2.3-1.3-4.7,2.6-2.4,4c2.7,1.7,5.5,3.4,8.2,5.2c1.9,3,3.8,6,5.8,9c6,9.1,12.4,17.9,19.2,26.4c6.8,8.5,13.9,17,22.8,23.4
								c13.2,9.4,39.1,11.8,42.2,31.3c0.7,4.2-0.3,8.9-3.6,11.8c-3,2.6-6.7,2.9-7.2,7.4C891,922.3,892.8,928,892.2,933.8z"/>
						</g>
						<g>
							<path d="M889.7,933.8c-2.2,0.5-4.3,1.1-6.5,1.6c0.7-1.6,1-3.3,1-5C886.1,931.5,887.9,932.6,889.7,933.8z"/>
						</g>
						<g>
							<path class="st11" d="M884,911.4c-2.2,6.1,0.5,12.8,0.2,19c-30.2-19.2-59.4-40.8-81.5-69.2c-21.3-27.4-35.8-59.6-47.5-92.1
								c-3.4-9.5-6.5-19.1-9.5-28.8c2.8,1,5.9,1.3,9.1,0.7c4.5-0.9,8.1-3.7,12.2-0.3c3.8,3.2,5.8,8.3,7.7,12.8
								c1.5,3.6,3,7.1,4.5,10.6c6.8,15.4,14.6,30.3,23.4,44.7c10.8,17.8,23,35.3,37.1,50.6c6.8,7.4,14.3,14.1,23.4,18.7
								c7.9,4,17.1,6.1,24.2,11.5c3.5,2.6,9.8,9.9,4.5,13.7C888.5,905.8,885.5,907.1,884,911.4z"/>
						</g>
						<g>
							<path d="M812.5,807.1c-2.7-1.7-5.5-3.4-8.2-5.2c-2.3-1.4,0.1-5.3,2.4-4c0.1,0.1,0.3,0.1,0.4,0.2
								C808.9,801.1,810.7,804.1,812.5,807.1z"/>
						</g>
						<g>
							<path d="M787.2,759.1c0.7,1.6,1.4,3.3,2.2,4.9c-0.9,0.2-1.8,0.5-2.6,1c-2.3,1.2-4.3,0-5.1-1.8c-0.9-2-0.5-4.8,2-6.1
								c0.8-0.4,1.6-0.8,2.3-1C786.4,757.1,786.8,758.1,787.2,759.1z"/>
						</g>
						<g>
							<path d="M781.7,763.2l-2.3,1c-1.6-3.5-3.1-7-4.5-10.6c-1.9-4.5-3.9-9.6-7.7-12.8c-4.2-3.5-7.7-0.6-12.2,0.3
								c-3.2,0.6-6.3,0.3-9.1-0.7c-1.6-5.2-3.3-10.4-5-15.5c1,0.2,1.9,0.7,2.5,1.8c3.3,5.7,8,5.9,13.7,4.1c4.6-1.4,9-1.5,13.3,0.9
								c8.7,4.8,12.2,15.5,15.8,24.4c-0.8,0.3-1.6,0.6-2.3,1C781.1,758.4,780.8,761.2,781.7,763.2z"/>
						</g>
						<g>
							<path d="M745.8,740.3c-2.8-1-5.3-2.7-7.3-5c-0.8-3-1.6-5.9-2.3-8.9c1.2-1.2,3-2,4.6-1.7C742.5,730,744.2,735.1,745.8,740.3z"
								/>
						</g>
						<g>
							<path d="M738.5,735.4c-1.2-1.3-2.2-2.8-3.1-4.4c-0.9-1.7-0.4-3.3,0.7-4.5C736.9,729.4,737.7,732.4,738.5,735.4z"/>
						</g>
						<g>
							<path d="M740.8,724.8c-1.6-0.3-3.5,0.4-4.6,1.7c-1-4.1-2-8.1-3-12.2c-0.5-2.1,3-2.9,3.7-0.9
								C738.2,717.1,739.5,721,740.8,724.8z"/>
						</g>
					</g>
				</g>
			</g>
		</g>
		<g>
			<g>
				<g>
					<path class="st2" d="M505,388.5c-0.2,0-0.4,0-0.7,0c-0.8,0-1.5,0.7-1.5,1.5c0,0.8,0.7,1.5,1.5,1.5c0.2,0,0.4,0,0.7,0
						c0.8,0,1.5-0.7,1.5-1.5C506.4,389.2,505.8,388.5,505,388.5L505,388.5z"/>
				</g>
			</g>
		</g>
		<g>
			<g>
				<g>
					<path d="M727.3,433.3c8.2,2.3,4.7,15-3.5,12.8c-28.1-7.6-56.3-14.9-84.5-21.9c-14.1-3.5-28.3-6.9-42.4-10.4
						c-13.4-3.4-28.2-5.9-40.4-12.7c-1-0.6-1.6-1.4-1.9-2.4c3.1,0.9,6.2,1.7,9,1.4c1.9-0.2,3.8-2.3,2.5-4.3
						c-0.6-0.9-1.3-1.6-2.1-2.2c12.2,0.7,24.6,4.6,36.3,7.4c14.2,3.4,28.3,6.9,42.4,10.4c23,5.7,46,11.5,68.9,17.6
						c0.2,4.3,1.1,8.5,4.5,10.8c4.4,2.9,10.5-1.9,8.9-6.9c0-0.1-0.1-0.2-0.1-0.3C725.8,432.9,726.5,433.1,727.3,433.3z"/>
				</g>
				<g>
					<path d="M725.1,433c1.6,4.9-4.6,9.8-8.9,6.9c-3.4-2.3-4.3-6.4-4.5-10.8c4.5,1.2,8.9,2.4,13.4,3.6
						C725,432.8,725,432.9,725.1,433z"/>
				</g>
				<g>
					<path d="M723.9,421.9c0.4,3.4,0.2,7.6,1.1,10.9c-4.5-1.2-8.9-2.4-13.4-3.6c-0.2-3.2,0-6.4-0.3-9.1c-0.9-7.8-2.5-15.4-4.7-23
						c-0.6-2.2-1.3-4.4-2-6.5c3.6,0.5,6.6,1.2,9.8-1.2c0.6-0.4,1.1-0.9,1.5-1.4c0.1,0.4,0.2,0.7,0.4,1c2.5,7.2,4.5,14.6,6,22.1
						C722.8,414.7,723.4,418.3,723.9,421.9z"/>
				</g>
				<g>
					<path d="M715.4,380.9c1.9,2.4,2,5,0.4,7c-1.1-3.2-2.4-6.4-3.8-9.6C713.4,379,714.6,379.8,715.4,380.9z"/>
				</g>
				<g>
					<path d="M715.8,387.9c-0.4,0.5-0.9,1-1.5,1.4c-3.2,2.4-6.2,1.7-9.8,1.2c-1.6-4.8-3.5-9.5-5.5-14.2c4.2,0.1,9.3,0.3,13,2
						C713.4,381.5,714.6,384.7,715.8,387.9z"/>
				</g>
				<g>
					<path class="st4" d="M711.3,420c0.3,2.7,0.2,5.9,0.3,9.1c-22.9-6.1-45.9-11.9-68.9-17.6c-14.1-3.5-28.2-7-42.4-10.4
						c-11.7-2.8-24.1-6.7-36.3-7.4c-1.1-0.9-2.3-1.5-3.6-2c9.4-1.1,18.8-2.6,28.2-3.3c14.1-0.9,28.2-1.9,42.3-2.1
						c14.1-0.2,28.3,0.1,42.4,1c6.8,0.4,13.5,1.1,20.2,1.9c3.5,0.4,7,0.9,10.5,1.3c0.2,0,0.4,0.1,0.6,0.1c0.7,2.1,1.4,4.3,2,6.5
						C708.7,404.6,710.4,412.3,711.3,420z"/>
				</g>
				<g>
					<path d="M704.5,390.5c-0.2,0-0.4,0-0.6-0.1c-3.5-0.4-7-0.9-10.5-1.3c-6.7-0.8-13.4-1.5-20.2-1.9c-14.1-0.9-28.2-1.3-42.4-1
						c-14.1,0.2-28.2,1.1-42.3,2.1c-9.4,0.6-18.8,2.2-28.2,3.3c-2.2-0.9-4.7-1.3-7-1.8c-2.8-0.5-5.6-0.9-8.4-1.3
						c0.3-0.4,0.7-0.6,1.1-0.8c13.6-5.3,28.8-6.9,43.2-9.2c13.8-2.2,27.8-3.2,41.7-3.8c14.4-0.6,28.9-0.6,43.3,0.2
						c7.1,0.4,14.1,0.8,21.1,1.3c1.1,0.1,2.3,0.1,3.7,0.2C701,381,702.9,385.7,704.5,390.5z"/>
				</g>
				<g>
					<path d="M566.1,395.9c1.4,1.9-0.5,4-2.5,4.3c-2.9,0.3-6-0.5-9-1.4c-0.6-2.3,1.1-5.1,3.9-5.2c1.8,0,3.6,0,5.5,0.1
						C564.8,394.3,565.5,395,566.1,395.9z"/>
				</g>
				<g>
					<path d="M564,393.6c-1.8-0.1-3.6-0.1-5.5-0.1c-2.8,0.1-4.5,2.9-3.9,5.2c-2.3-0.7-4.6-1.5-6.8-1.9c-5.4-1-10.9-1.5-16.3-2.7
						c-5.7-1.2-11.3-2.7-16.7-4.6c-3-1.1-7-2-9.9-4c4-0.7,8-1.5,12.1-2.3c0.8,0.3,1.5,0.5,2.2,0.7c5.6,1.5,11.3,2.6,17.1,3.4
						c2.9,0.4,5.8,0.7,8.7,1.1c-1.2,1.5-0.7,4.1,1.8,4.1c4.6-0.1,9.1-0.5,13.7-1C561.7,392.1,562.9,392.8,564,393.6z"/>
				</g>
				<g>
					<path d="M553.3,389.8c2.4,0.5,4.8,0.9,7,1.8c-4.5,0.5-9.1,0.9-13.7,1c-2.5,0.1-3-2.6-1.8-4.1
						C547.7,388.9,550.5,389.3,553.3,389.8z"/>
				</g>
				<g>
					<path d="M516.9,383.3c-4,0.8-8,1.6-12.1,2.3c-1.1-0.8-2.1-1.6-2.8-2.8c-0.6-0.9,0-2.4,1.1-2.6
						C507.4,379.4,512.5,381.8,516.9,383.3z"/>
				</g>
			</g>
		</g>
		<g id="XMLID_9_">
			<g>
				<g>
					<path d="M901.7,759c0,0.3,0,0.7,0,1c0,0.2,0,0.3,0,0.5c0,0.3,0,0.5,0,0.8c0,0.2,0,0.3,0,0.5c0,0.4,0,0.8-0.1,1.2
						c0,0.1,0,0.2,0,0.3c0,0.3-0.1,0.7-0.1,1c0,0.1,0,0.2-0.1,0.3c-0.1,0.4-0.2,0.8-0.3,1.2c0,0.1,0,0.1-0.1,0.2
						c-0.1,0.2-0.1,0.4-0.2,0.6c0,0,0,0,0,0c-0.2,0.6-0.5,1.2-0.8,1.7c-1.1,1.8-2.7,2.8-4.5,3.4c-4.2,0.6-8.7-0.5-12.6-1.8
						c-6.3-2-12.1-5.1-17.7-8.5c-1.8-1.1-5.7-4.2-9.5-6.3c1.6,7.8,3.2,15.6,4.6,23.4c0,0.2,0,0.3,0.1,0.5c-0.2,0.3-0.4,0.6-0.7,0.8
						c-0.8,1.5-1.7,2.9-2.8,4.1c-0.4,0.5-0.9,1-1.4,1.4c0,0,0,0,0,0c-4.8,4-11.7,5.6-18.2,5.4c-23.3-0.7-47-8.4-68.3-17.6
						c-22.2-9.5-43-21.9-62.7-35.9c-10.3-7.4-20.4-15-30.1-23.2c-8.4-7.1-16.9-12.2-25.7-20.9c-1.4-1.7-3.1-3.1-4.8-4.4
						c-1.7-1.3-3.7-2.8-5.9-3.3c-0.1-0.8,0-1.6,0.2-2.4c6.3-21.1,9.5-43.1,9.5-65.3c0-24.8-3.9-49.1-11.7-72.3
						c-1.2-3.5,0.7-7.3,4.2-8.4c3.5-1.2,7.3,0.7,8.4,4.2c1,3.1,2,6.2,2.9,9.3c18.5,14.5,37.4,28.4,56.6,41.9
						c18.7,13.2,37.6,26,56.9,38.3c9.6,6.1,19.1,12.4,29,18c2.9,1.6,5.8,3.2,8.9,4.4c-0.1-5.5,1.5-11.7,3-15.9
						c0.2-0.5,0.6-0.9,1-1.1c2-6.3,9.8-9.4,16-8.2c4.9,1,8.9,4,12.8,6.9c4.2,3.1,8.7,5.9,13.6,7.7c4.4,1.7,29.3,7.6,29.2-2
						c0.8-0.4,1.6-0.8,2.4-1.1c0,0,0,0,0,0c0.2,0,0.3-0.1,0.5-0.1c0.1,0,0.1,0,0.2,0c0.1,0,0.2,0,0.3-0.1c0,0,0.1,0,0.2,0
						c0.1,0,0.2,0,0.3,0c0,0,0.1,0,0.2,0c0.1,0,0.3,0,0.4,0c0,0,0,0,0,0c0.2,0,0.3,0.1,0.5,0.1c0,0,0.1,0,0.1,0
						c0.1,0,0.2,0.1,0.3,0.1c0.1,0,0.1,0,0.2,0.1c0.1,0,0.2,0.1,0.3,0.2c0,0,0.1,0.1,0.1,0.1c0.1,0.1,0.3,0.2,0.4,0.4
						c0.2,0.2,0.5,0.5,0.7,0.7c0,0,0.1,0.1,0.1,0.2c0.2,0.2,0.3,0.4,0.4,0.6c0,0,0,0,0,0c0,0,0,0,0,0c0,0,0,0,0,0
						c0.6,2.7,0.5,5.8,0.8,8.4c0.5,5.2,1,10.4,1.5,15.6c1.1,10.7,2.2,21.5,3.3,32.2c1.2,11.2,2.4,22.4,4.1,33.5c1.3,8.5,3,17,4,25.5
						c0.1,0,0.1,0,0.2,0C901.6,757.9,901.7,758.5,901.7,759z M869.6,753.9c4.1,2.5,15.7,9.8,23,9.2c-1.9-10.1-2.4-20.6-3.3-30.8
						c-1-10.7-2.2-21.4-3.2-32.1c-1-11-1.9-22.1-2.7-33.2c-0.3-5.2-0.7-10.4-0.9-15.6c0-0.6-0.1-1.3-0.2-2
						c-4.3,2.9-10.8,3.9-15.9,3.7c-12.7-0.6-23.8-5.5-33.9-12.9c-4-2.9-10.7-8.1-15.5-3.7c-4.7,4.2,3.6,7.7,6.4,9.5
						c4.9,3.3,9,10.4,6.8,15.8c0.9,2.5,1.7,5,2.5,7.4c1.7,4.9,3.3,9.9,4.8,14.8c3.1,10.3,6.1,20.5,8.7,30.9
						c2.5,9.9,4.9,19.9,7.1,29.8C859.2,746.5,864.8,751,869.6,753.9z M848.9,776.6c-0.5-2.7-1-5.3-1.6-8c-0.1-0.1-0.2-0.1-0.3-0.2
						c0-0.2,0-0.4,0-0.6h0.1c-3.3-16.8-6.7-33.5-10.5-50.2c-2.4-10.8-4.7-21.6-7.2-32.3c-1.2-5.1-2.3-10.1-3.4-15.2
						c-0.2-1.1-0.5-2.2-0.8-3.3c-4.6,2.1-10.7,1.1-15.4,0.1c-5.4-1.1-10.6-3.3-15.5-5.8c-11.1-5.6-21.6-12.8-32-19.5
						c-37.9-24.3-74.4-50.5-106.8-81.7c4.7,18.9,7,38.3,7,58c0,23.4-3.3,46.5-9.9,68.7c5.3,3.1,10,7.2,14.9,10.9
						c5.5,4.1,11,8.3,16.5,12.3c10.3,7.5,20.6,15,31.3,21.9c35.9,23.3,77.2,45.7,120.9,48.1C840.4,780.1,846.1,780.1,848.9,776.6z
						 M818.1,656.6c2.9,0.1,2.7,0.9,1.5-1.7c-1.7-3.5-6.1-5.3-8.6-8.2c0,1.2,0,2.3,0.1,3.5c0.1,1.9,0.5,3.7,0.7,5.5
						C813.9,656.2,816,656.5,818.1,656.6z"/>
				</g>
				<g>
					<path class="st12" d="M892.6,763.1c-7.3,0.5-18.9-6.8-23-9.2c-4.8-2.9-10.4-7.4-16.3-9c-2.2-10-4.6-19.9-7.1-29.8
						c-2.6-10.4-5.6-20.7-8.7-30.9c-1.5-5-3-9.9-4.8-14.8c-0.8-2.4-1.5-4.9-2.5-7.4c2.1-5.4-1.9-12.5-6.8-15.8
						c-2.8-1.9-11-5.3-6.4-9.5c4.8-4.4,11.5,0.7,15.5,3.7c10.2,7.4,21.2,12.3,33.9,12.9c5.1,0.2,11.6-0.8,15.9-3.7
						c0.1,0.7,0.1,1.4,0.2,2c0.2,5.2,0.6,10.4,0.9,15.6c0.7,11.1,1.6,22.1,2.7,33.2c1,10.7,2.2,21.4,3.2,32.1
						C890.2,742.6,890.7,753,892.6,763.1z"/>
				</g>
				<g>
					<path class="st12" d="M847.4,768.6c0.5,2.7,1,5.3,1.6,8c-2.9,3.5-8.5,3.5-12.6,3.2c-43.7-2.4-85-24.8-120.9-48.1
						c-10.7-6.9-21-14.4-31.3-21.9c-5.5-4-11-8.2-16.5-12.3c-4.9-3.7-9.6-7.8-14.9-10.9c6.6-22.2,9.9-45.3,9.9-68.7
						c0-19.7-2.3-39.1-7-58c32.4,31.2,68.9,57.4,106.8,81.7c10.4,6.7,20.9,13.9,32,19.5c4.9,2.5,10.1,4.7,15.5,5.8
						c4.7,1,10.8,2,15.4-0.1c0.3,1.1,0.5,2.2,0.8,3.3c1.1,5.1,2.2,10.2,3.4,15.2c2.5,10.8,4.8,21.6,7.2,32.3
						c3.8,16.7,7.2,33.4,10.5,50.2h-0.1c0,0.2,0,0.4,0,0.6C847.2,768.5,847.3,768.6,847.4,768.6z"/>
				</g>
				<g>
					<path class="st12" d="M819.6,654.9c1.2,2.6,1.4,1.8-1.5,1.7c-2.1,0-4.2-0.4-6.2-0.9c-0.2-1.8-0.6-3.7-0.7-5.5
						c-0.1-1.2-0.1-2.3-0.1-3.5C813.5,649.6,818,651.4,819.6,654.9z"/>
				</g>
			</g>
		</g>
		<g>
			<g>
				<g>
					<g>
						<g>
							<g>
								<path class="st8" d="M621.9,290.7c-26.6-2.1-5.9,17.8,2.9,25.2c8.9,7.4,72.5,65.1,131.8,47.4c59.2-17.8,77-66.6,65.1-69.6
									C809.9,290.7,676.7,295.2,621.9,290.7z"/>
							</g>
						</g>
					</g>
				</g>
			</g>
		</g>
		<g>
			<g>
				<g>
					<g>
						<g>
							<g>
								<path d="M616.3,297.3c1.8,2.8,6,7.8,12.8,13.5l1.7,1.4C677.1,351.7,712,360,733.1,360l0,0c7.5,0,14.8-1,21.7-3.1
									c32.5-9.7,52.4-29.9,60.3-45.5c2.9-5.8,3.5-9.7,3.5-11.5c-4.4-0.5-15.9-0.7-34.3-0.7c-9.8,0-20.9,0.1-32.7,0.1
									c-13.4,0.1-27.8,0.1-42.1,0.1c-26.5,0-64.5-0.2-88.1-2.1C619.3,297.2,617.5,297.2,616.3,297.3z M733.1,373.3L733.1,373.3
									c-23.3,0-61.5-8.8-110.8-50.9l-1.6-1.3c-21.8-18.2-18.8-26.5-17.8-29.2c1.9-5.2,7.1-7.9,15.4-7.9c1.3,0,2.7,0.1,4.3,0.2
									c23.1,1.9,60.7,2.1,87,2.1c14.3,0,28.6-0.1,42.1-0.1c11.9-0.1,23-0.1,32.8-0.1c28.2,0,35.9,0.5,39.1,1.3
									c5.2,1.3,8.3,5.9,8.5,12.2c0.4,16.2-21.4,54.6-73.3,70.2C750.4,372.1,741.9,373.3,733.1,373.3z"/>
							</g>
						</g>
					</g>
				</g>
			</g>
		</g>
		<g>
			<g id="XMLID_5_">
				<g>
					<g>
						<g>
							<g>
								<g>
									<g>
										<path d="M770.9,203.1c9.2,12.1,10.5,31.6,4.3,45.3c-5,11.2-18.1,19-30.5,22.1c-1.6,5.1-4.2,10.2-8,15.3
											c-12.9,17-34.8,22.9-53.8,14.9c-2.6,5.1-6.1,9.6-10.7,13.2c-15.9,12.5-43.3,19.8-63.1,16.1c-24.6-4.5-41.3-23.3-59.5-38.6
											c-21.7-18.2-47.7-29.8-75.8-33.8c-12.6-1.8-25.4-2.5-38.1-1.3c-12.9,1.2-25.2,5.9-38,6.9c-3.6,0.3-5-2.9-4.3-5.7
											c-0.7-0.9-1.1-2.1-0.7-3.4c14.3-47.4,62.6-70.1,108.4-76.2c47.3-6.4,102.5-1.8,139.6,31.6c1.4,1.2,2.1,2.6,2.5,3.9
											c2.5,0.1,5,0.4,7.5,0.9c19.1-21.1,48.4-30.3,74.5-14.4c0.3,0.2,0.5,0.3,0.7,0.5c2-2.3,4.1-4.3,6.2-5.7
											C744.8,186,762,191.4,770.9,203.1z M756.6,249.8c8.8-7.4,10.1-20.4,6.2-30.9c-4.3-11.8-18.8-19.4-27-6.1
											c-2.3,3.8-2.5,7.4-4.5,10.3c0.5,0.6,1,1.2,1.5,1.8c8.1,10.3,13.1,21.1,13.6,32.1C750,254.8,753.4,252.5,756.6,249.8z
											 M686.7,290.4c21.7,4.4,46.4-7.8,46.2-33.1c-0.1-8.4-11-29.6-20.3-31.6c-7.1,1.7-10.1,5.4-9.1,11
											c-0.9,5.1,1.3,9.2,6.4,12.3c2.3,2.3,5,2.8,7.3,5.6c2.4,2.8,1.3,6.3-2,7.6c-20.3,7.9-31.6-23.5-24.9-38.4
											c6.8-15.3,18.3-16.3,28.7-10.8c0.2-0.7,0.4-1.4,0.6-2.2c-0.3-0.1-0.5-0.2-0.8-0.3c-22.2-9.9-46.7-6.4-58.9,16.2
											c-1.3,2.4-4.4,4.1-7.2,3.9c-0.5,0-1-0.1-1.5-0.3c-20.4-7.5-32.9-0.1-44.6,16.9c-1.2,1.7-4.6,1.3-4.4-1.2
											c1.1-13.9,10.1-23.9,21.6-29c-62.7-44.7-179.9-39.8-219.6,32.2c21.2-9.9,51.5-9.8,72.7-6.8c28.4,4,55.4,15.1,78.1,32.7
											c13.3,10.3,24.8,23.5,39.5,31.8c19,10.6,38.8,7.1,57.9-1.4c10.7-4.8,16.6-12,17.6-23.7c0.9-10.6-0.1-24.8-11.6-29.5
											c-11-4.5-26.4,1.8-20.4,14.7c3.9,8.4,7.9,4.7,14.9,8.5c2.1,1.1,2.9,3.7,2.4,5.9c-0.2,0.9-0.4,1.7-0.6,2.6
											c-0.6,2.8-3.2,5.3-5.9,5.9c-17.2,3.9-34.4-8.9-33-27.3c1.3-17,16.5-29.9,33.1-30.3c1.2,0,2.3,0,3.5,0.1
											C680.5,234.1,692.9,265.2,686.7,290.4z"/>
									</g>
								</g>
							</g>
						</g>
					</g>
					<g>
						<g>
							<g>
								<g>
									<g>
										<path class="st0" d="M762.8,218.9c3.8,10.5,2.6,23.6-6.2,30.9c-3.1,2.6-6.6,5-10.1,7.1c-0.5-11-5.5-21.8-13.6-32.1
											c-0.5-0.6-1-1.2-1.5-1.8c1.9-2.9,2.1-6.5,4.5-10.3C743.9,199.5,758.5,207.1,762.8,218.9z"/>
									</g>
								</g>
							</g>
						</g>
					</g>
					<g>
						<g>
							<g>
								<g>
									<g>
										<path class="st0" d="M659.8,226.7c12.3-22.7,36.7-26.2,58.9-16.2c0.3,0.1,0.5,0.2,0.8,0.3c-0.3,0.7-0.5,1.4-0.6,2.2
											c-10.4-5.5-21.9-4.4-28.7,10.8c-6.7,14.9,4.6,46.3,24.9,38.4c3.3-1.3,4.4-4.9,2-7.6c-2.3-2.8-5-3.3-7.3-5.6
											c-5.1-3.1-7.2-7.2-6.4-12.3c-1-5.7,2-9.4,9.1-11c9.3,2,20.2,23.2,20.3,31.6c0.2,25.3-24.5,37.5-46.2,33.1
											c6.2-25.2-6.2-56.2-34.2-57.9l0.1-1.8C655.4,230.8,658.6,229.1,659.8,226.7z"/>
									</g>
								</g>
							</g>
						</g>
					</g>
					<g>
						<g>
							<g>
								<g>
									<g>
										<path class="st0" d="M651.1,230.3c0.5,0.2,1,0.3,1.5,0.3l-0.1,1.8c-1.1-0.1-2.3-0.1-3.5-0.1
											c-16.6,0.4-31.8,13.4-33.1,30.3c-1.4,18.5,15.8,31.3,33,27.3c2.7-0.6,5.3-3.2,5.9-5.9c0.2-0.9,0.4-1.7,0.6-2.6
											c0.5-2.2-0.3-4.8-2.4-5.9c-7.1-3.7-11-0.1-14.9-8.5c-6.1-13,9.4-19.2,20.4-14.7c11.4,4.7,12.5,18.9,11.6,29.5
											c-1,11.8-6.9,19-17.6,23.7c-19.1,8.6-38.9,12.1-57.9,1.4c-14.8-8.3-26.3-21.5-39.5-31.8c-22.7-17.6-49.7-28.7-78.1-32.7
											c-21.2-3-51.4-3.1-72.7,6.8c39.7-72,156.9-76.9,219.6-32.2c-11.5,5.1-20.5,15.1-21.6,29c-0.2,2.5,3.2,2.9,4.4,1.2
											C618.3,230.2,630.7,222.7,651.1,230.3z M612.2,299.5c7,3.2,13-7.3,6-10.3c-4.3-1.8-7.5-4.5-9.6-8.7
											c-2.2-4.2-2.1-8.2-3-12.6c-0.7-3.6-5.6-3.7-7.3-1C590.8,278.5,601.5,294.6,612.2,299.5z"/>
									</g>
								</g>
							</g>
						</g>
					</g>
					<g>
						<g>
							<g>
								<g>
									<g>
										<path d="M618.2,289.2c7,2.9,1,13.5-6,10.3c-10.7-4.9-21.5-20.9-14-32.5c1.8-2.7,6.6-2.6,7.3,1c0.9,4.4,0.9,8.4,3,12.6
											C610.7,284.7,613.9,287.4,618.2,289.2z"/>
									</g>
								</g>
							</g>
						</g>
					</g>
				</g>
			</g>
		</g>
		<g>
			<g>
				<path d="M544.3,484.8c62.2,12.8,102.8,67.5,150.6,104.5c7,5.4,14.2,10.7,21.5,15.8c7.1,4.9,15.1,11.8,23.3,14.5
					c2.7,0.9,4.6-2.8,2.7-4.7c-5.4-5.5-13.4-9-19.7-13.4c-7.1-4.8-14.1-9.9-21-15.1c-12.9-9.8-25.1-20.4-37.1-31.3
					c-22.3-20.2-44.2-41.2-70.3-56.6c-15.1-8.9-31.9-16.4-49.6-18C542.4,480.3,541.9,484.3,544.3,484.8L544.3,484.8z"/>
			</g>
		</g>
		<g>
			<g>
				<path d="M543.9,482.4c3.9-4.1,4.5-11.5,5.6-16.8c1.4-6.7,2.3-13.5,2.9-20.4c1.2-14.1,0.8-28.3-1-42.3c-0.5-3.7-6.3-3.7-5.8,0
					c1.8,13.4,2.3,27,1.2,40.5c-0.5,7-1.5,13.9-2.8,20.7c-1,5.5-3.8,12.1-2.7,17.7C541.6,482.9,543.1,483.2,543.9,482.4L543.9,482.4
					z"/>
			</g>
		</g>
		<g id="XMLID_1_">
			<g>
				<path d="M747.4,512.5c3.1,33,0.7,66.4-2.3,99.3c-0.1,0.6-0.2,1.2-0.4,1.8c0,2.4-1.6,4.7-4.1,4.3c-3.9,1.7-9,0.3-9.7-4.1
					c-13.6-6.4-26.1-14.5-38.2-23.6c-26-19.5-48.6-42.8-73.4-63.7c-12.4-10.5-25.5-20.2-39.4-28.6c-6.6-4-13.5-7.7-20.5-11
					c-6.4-3-13-5.1-19.6-7.4c-2.9,6.4-13.6,2.9-11.9-4.6c3-13.1,5.3-26.4,6.3-39.8c0.5-6.6,0.7-13.3,0.8-20c0.1-5-0.2-10.4,0.4-15.5
					c-0.5-0.1-0.9-0.3-1.4-0.5c-2.1-0.8-2-3.3,0-4.2c7.6-3.1,16.6-2.7,24.7-2.6c8,0.2,16.1,0.5,24.1,1c16.3,0.9,32.5,2.6,48.6,5.3
					c32.7,5.5,64.6,15,95.2,27.5c6.6,2.7,6.3,9.6,2.5,12.8c4.3,9.3,7.4,19.4,10.1,29C743.5,482.7,746,497.6,747.4,512.5z
					 M731.6,604.6c2.8-29.7,4.6-59.5,3-89.3c-0.8-14.9-2.5-29.6-5.3-44.2c-2.1-10.6-5.3-20.8-8.4-31c-29.5-12.5-60.4-21.6-91.8-28.1
					c-15.8-3.3-31.8-6-47.9-7.8c-8-0.9-16-1.4-24.1-1.8c-4.7-0.2-9.7-0.2-14.6-0.9c1.4,4.5,1.9,9.4,2.4,14c0.8,7,1,13.9,0.9,21
					c-0.2,13-1.8,25.9-4.6,38.6c15.8,2.5,31.4,9.8,44.9,17.7C639.3,523.5,676,577.3,731.6,604.6z"/>
				<path class="st3" d="M734.5,515.3c1.7,29.8-0.1,59.6-3,89.3c-55.5-27.3-92.2-81.1-145.5-112.1c-13.5-7.9-29.2-15.2-44.9-17.7
					c2.9-12.6,4.5-25.6,4.6-38.6c0.1-7-0.1-14-0.9-21c-0.5-4.5-1-9.4-2.4-14c4.8,0.7,9.8,0.7,14.6,0.9c8,0.4,16.1,0.9,24.1,1.8
					c16.1,1.7,32.1,4.5,47.9,7.8c31.4,6.5,62.2,15.7,91.8,28.1c3.1,10.3,6.3,20.5,8.4,31C732,485.6,733.7,500.4,734.5,515.3z"/>
			</g>
		</g>
		<g>
			<g>
				<g id="XMLID_3_">
					<g>
						<g>
							<g>
								<path d="M433.7,497.4c0.8,0.3,0.8,0.3,0,0.1C433.8,497.5,433.7,497.4,433.7,497.4z"/>
							</g>
						</g>
						<g>
							<g>
								<path class="st13" d="M433.7,497.4c0,0,0,0.1,0,0.1C434.6,497.7,434.6,497.7,433.7,497.4z"/>
							</g>
						</g>
						<g>
							<g>
								<path class="st4" d="M438.3,389.8c-0.4,1.5,3.4,4.5,4.3,5.5c1.8,1.9,3.4,3.9,4.2,6.4c3,9.5-8.8,10.9-14.2,15.6
									c-0.2,0.1-0.3,0.2-0.4,0.2c0.5,0.4,1.3,0.6,1.9,0.8c1.8,0.6,3.8,0.7,5.7,1.4c3.4,1.2,5.6,3.1,7.3,6.3
									c0.7,1.4,0.4,3.7-0.7,4.8c-2.9,3.1-6.2,5.3-9.8,7.5c-1.8,1.1-3.6,2.1-5.2,3.5c-0.3,0.3-2.7,2.3-2.5,2.8
									c0.2,0.4,1.2,0.5,1.6,0.7c1.8,1,4.6,0.8,6.6,1.6c1.8,0.8,3.5,1.9,4.7,3.5c2.1,2.8,2.4,6.5,1.7,9.8
									c-1.7,8.2-10.4,12.1-12.5,20.1c-0.4,1.5-1.5,5.5-0.2,6.8c1,1,3.3,0.7,4.6,1c3,0.6,5.7,2,7.2,4.8c1.1,2.1-0.1,7.8,1.1,8.7
									c1.8,1.5,8.8-1,10.7-1.7c7.5-2.4,14.4-6.6,20.5-11.7c3.4-2.8,6.4-5.9,9.1-9.3c1.1-1.4,2.5-2.8,2.7-4.6
									c0.3-2.2-0.5-5.2-0.7-7.4c-1-10.2-2.4-20.4-3.8-30.6c-1.2-9.2-1.7-19-4.3-28c-2.4-8-6.3-15.4-15-17.7c-1-0.3-2-0.3-4.6-1
									C450,387.7,439.1,386.1,438.3,389.8z"/>
							</g>
						</g>
						<g>
							<g>
								<path d="M496.5,476c-0.2-5.4-1.6-10.8-2.4-16.1c-1.1-6.9-2-13.8-2.9-20.7c-2.2-16.5-3.3-54.8-27.2-53.6
									c-5-2.4-10.2-4.2-15.8-5c-5.2-0.7-11.9-1.1-15.8,3.1c-3.3,3.5-2.9,8.3-0.6,12.1c1.2,2,4.8,4.8,6,7.4
									c-6.6,3.1-15.9,7.4-15.4,14.8c0.2,3.4,2.5,6,5.3,7.7c1.4,0.8,2.9,1.4,4.5,1.8c0.6,0.2,1.6,0.3,2.7,0.5
									c-6.2,4.1-14.4,7.3-15.7,15.2c-0.7,4,1.4,7.7,4.9,9.6c2.1,1.2,4.3,1.5,6.6,2c3.5,0.7,4.6,1.6,2.7,5
									c-2.4,4.2-6.8,7.1-9.3,11.4c-2.6,4.5-4.1,10.1-3.6,15.2c0.4,4.2,2.5,8.2,6.6,9.9c1.6,0.6,3.3,0.8,5,1c0.4,0,0.8,0.1,1.3,0.1
									c0.2,0,0.3,0.1,0.4,0.1c0-0.1,0-0.1,0-0.1c0.8,0.3,0.8,0.3,0,0.1c0.2,1-0.4,2.7-0.4,3.6c-0.1,21.7,37.6,3.6,45.6-2.2
									C485.8,494,496.8,485.2,496.5,476z M483.9,478.9c-2.7,3.4-5.7,6.5-9.1,9.3c-6.1,5-13,9.2-20.5,11.7
									c-1.9,0.6-8.9,3.2-10.7,1.7c-1.1-0.9,0-6.6-1.1-8.7c-1.4-2.8-4.1-4.3-7.2-4.8c-1.4-0.3-3.7,0-4.6-1
									c-1.2-1.3-0.2-5.3,0.2-6.8c2.1-8.1,10.8-11.9,12.5-20.1c0.7-3.3,0.3-7-1.7-9.8c-1.2-1.6-2.9-2.8-4.7-3.5
									c-2-0.8-4.9-0.6-6.6-1.6c-0.3-0.2-1.4-0.3-1.6-0.7c-0.2-0.5,2.2-2.5,2.5-2.8c1.6-1.3,3.4-2.4,5.2-3.5
									c3.6-2.2,6.9-4.4,9.8-7.5c1.1-1.1,1.4-3.4,0.7-4.8c-1.7-3.2-3.9-5.1-7.3-6.3c-1.8-0.6-3.9-0.7-5.7-1.4
									c-0.6-0.2-1.4-0.4-1.9-0.8c0.1,0,0.2-0.1,0.4-0.2c5.4-4.7,17.2-6.1,14.2-15.6c-0.8-2.5-2.5-4.5-4.2-6.4
									c-0.9-1-4.6-4-4.3-5.5c0.9-3.7,11.7-2,19.9-0.1c3.6,0.8,4.7,0.6,5.6,1.1c9.7,6,11.6,9.5,14,17.5c2.7,8.9,3.1,18.8,4.3,28
									c1.3,10.2,2.7,20.4,3.8,30.6c0.2,2.2,1,5.2,0.7,7.4C486.3,476.1,485,477.5,483.9,478.9z"/>
							</g>
						</g>
					</g>
				</g>
				<g>
					<g>
						<g>
							<path d="M485.4,449.9c-8-0.8-16.4,0.4-24.4,0.9c-4,0.3-8,0.6-12.1,0.7c-3.5,0.1-7.1-1.3-10.3,0c-1.3,0.5-2.3,2.4-1.6,3.7
								c3.6,6.7,14.9,3.9,21.1,3.3c9.1-0.8,19-1.1,27.8-3.8C488.4,453.9,487.8,450.1,485.4,449.9L485.4,449.9z"/>
						</g>
					</g>
				</g>
				<g>
					<g>
						<g>
							<path d="M432.5,423.7c7.8,4.2,17.1,6,25.7,7.4c4.4,0.7,8.9,1.2,13.4,1.5c4.2,0.3,7.7,1,11.3-1.4c1.7-1.1,1.9-4.2,0.1-5.4
								c-3.5-2.3-7-1.8-11.1-2c-4.2-0.2-8.3-0.5-12.5-1c-8.6-0.9-17.1-3-25.7-3.5C431.2,419.2,430.2,422.5,432.5,423.7L432.5,423.7z
								"/>
						</g>
					</g>
				</g>
			</g>
			<g>
				<path class="st5" d="M549.3,426.4c0.5,12.2-0.9,24.5-3.4,36.4c-1.3,6.5-3.3,12.9-6.5,18.8c-1.7,3.2-3.7,6.2-5.9,9.1
					c-0.8,1-1.7,3-2.8,3.6c-0.5,1-0.7,1-0.6-0.1c-0.6-0.2-1.2-0.4-1.8-0.6c-6.1-3.1-13.8-4.4-20.3-6.5c-2.2-0.7-4.3-1.4-6.5-2.1
					c-0.2-0.4-0.6-0.7-1.1-1c-5.1-2.2-10.4-4-15.7-5.9c1.7-14.9,3.1-30.1,1-45c-2.1-14.9-7.7-29.8-13.4-43.8c4.3-0.2,8.7-0.7,12.9-1
					c7.6-0.5,15.3-0.7,22.9-0.5c7,0.2,14,0.6,20.9,1.3c3,0.3,7.6-0.1,10.2,1.9c1.9,2.8,3.5,5.8,5.1,8.9c1.1,3.2,2.2,6.4,2.8,9.7
					C548.3,415.1,549,420.8,549.3,426.4z"/>
			</g>
			<g>
				<path d="M556.5,431.3c-0.2-5.2-0.6-11-1.7-16.8c0.2-0.4,0.2-0.8,0-1.2c-0.1-0.3-0.3-0.6-0.4-0.9c-1.4-7-3.8-13.8-7.6-19.3
					c-1.5-4.3-2-8-7.8-9.3c-8.1-1.7-16.9-1.9-25.1-2.2c-8.2-0.3-16.5-0.3-24.7,0.1c-8.3,0.4-17.2,0.7-25,3.7
					c-1.8,0.7-1.6,3.7,0.5,3.9c0.3,0,0.6,0,0.9,0.1c4.4,14.9,11.1,29.2,13.3,44.7c2.2,15.3,0.4,30.7-1.4,46c-0.2,1.5,0.6,3.1,2,3.7
					c1.7,0.7,3.4,1.3,5.1,1.9c0.1,0.4,0.2,0.8,0.3,1.1c1.3,3.1,5.8,3.6,8.6,4.5c8.6,2.8,17.2,5.5,25.9,8.3c3.6,1.1,8,3.4,11.8,3.4
					c3,0.1,4.6-1.9,6.3-4.1c5.1-6.4,9.6-13.5,12.4-21.3C555.3,463,557,446.6,556.5,431.3z M545.9,462.8c-1.3,6.5-3.3,12.9-6.5,18.8
					c-1.7,3.2-3.7,6.2-5.9,9.1c-0.4,0.5-0.8,1.2-1.2,1.9c-2.9-2-6.5-2.7-10-3.8c-4.3-1.4-8.7-2.8-13-4.2c-8.1-2.6-16.2-5.4-24.5-7.8
					c1.6-14.5,2.9-29.2,0.8-43.8c-2.1-14.9-7.7-29.8-13.4-43.8c4.3-0.2,8.7-0.7,12.9-1c7.6-0.5,15.3-0.7,22.9-0.5
					c7,0.2,14,0.6,20.9,1.3c3,0.3,7.6-0.1,10.2,1.9c1.9,2.8,3.5,5.8,5.1,8.9c1.1,3.2,2.2,6.4,2.8,9.7c1.1,5.6,1.8,11.2,2.1,16.8
					C549.8,438.6,548.3,450.9,545.9,462.8z"/>
			</g>
			<g>
				<g>
					
						<ellipse transform="matrix(0.1456 -0.9893 0.9893 0.1456 36.7981 848.9125)" class="st8" cx="509.9" cy="403.2" rx="10" ry="10"/>
				</g>
				<g>
					<path d="M508.1,415.5c-6.8-1-11.6-7.4-10.5-14.2s7.4-11.6,14.2-10.5c6.8,1,11.6,7.4,10.5,14.2S514.9,416.5,508.1,415.5z
						 M511,395.7c-4.1-0.6-7.9,2.2-8.5,6.3c-0.6,4.1,2.2,7.9,6.3,8.5c4.1,0.6,7.9-2.2,8.5-6.3C517.9,400.2,515.1,396.3,511,395.7z"
						/>
				</g>
			</g>
			<g>
				<g>
					
						<ellipse transform="matrix(0.1456 -0.9893 0.9893 0.1456 5.1974 884.486)" class="st8" cx="514.7" cy="439.2" rx="10" ry="10"/>
				</g>
				<g>
					<path d="M512.9,451.6c-6.8-1-11.6-7.4-10.5-14.2c1-6.8,7.4-11.6,14.2-10.5c6.8,1,11.6,7.4,10.5,14.2
						C526.1,447.9,519.7,452.6,512.9,451.6z M515.8,431.8c-4.1-0.6-7.9,2.2-8.5,6.3s2.2,7.9,6.3,8.5c4.1,0.6,7.9-2.2,8.5-6.3
						S519.9,432.4,515.8,431.8z"/>
				</g>
			</g>
		</g>
	</g>
</g>
</svg>
